SplineFontDB: 3.0
FontName: Allan
FullName: Allan
FamilyName: Allan
Weight: Bold
Copyright: Copyright: Copyright (c) 2010, Anton Koovit (anton@kork.ee). All rights reserved. Licenced under SIL OFL v1.1\n\n
Version: 1.001
ItalicAngle: -14.3
UnderlinePosition: 0
UnderlineWidth: 0
Ascent: 1624
Descent: 424
LayerCount: 2
Layer: 0 0 "Back"  1
Layer: 1 1 "Fore"  0
NeedsXUIDChange: 1
FSType: 0
OS2Version: 0
OS2_WeightWidthSlopeOnly: 0
OS2_UseTypoMetrics: 1
CreationTime: 1292094997
ModificationTime: 1292271248
PfmFamily: 17
TTFWeight: 500
TTFWidth: 5
LineGap: 0
VLineGap: 0
OS2TypoAscent: 1583
OS2TypoAOffset: 0
OS2TypoDescent: -465
OS2TypoDOffset: 0
OS2TypoLinegap: 512
OS2WinAscent: 1836
OS2WinAOffset: 0
OS2WinDescent: 724
OS2WinDOffset: 0
HheadAscent: 1836
HheadAOffset: 0
HheadDescent: -724
HheadDOffset: 0
OS2Vendor: 'PfEd'
Lookup: 258 0 0 "'kern' Horizontal Kerning in Latin lookup 0"  {"'kern' Horizontal Kerning in Latin lookup 0 subtable"  } ['kern' ('latn' <'dflt' > ) ]
MarkAttachClasses: 1
DEI: 91125
TtTable: prep
PUSHW_1
 511
SCANCTRL
PUSHB_1
 1
SCANTYPE
SVTCA[y-axis]
MPPEM
PUSHB_1
 8
LT
IF
PUSHB_2
 1
 1
INSTCTRL
EIF
PUSHB_2
 70
 6
CALL
IF
POP
PUSHB_1
 16
EIF
MPPEM
PUSHB_1
 20
GT
IF
POP
PUSHB_1
 128
EIF
SCVTCI
PUSHB_1
 6
CALL
NOT
IF
SVTCA[y-axis]
PUSHB_1
 6
DUP
RCVT
PUSHB_1
 3
CALL
WCVTP
PUSHB_1
 7
DUP
RCVT
PUSHB_3
 6
 39
 2
CALL
PUSHB_1
 3
CALL
WCVTP
PUSHB_1
 8
DUP
RCVT
PUSHB_3
 6
 47
 2
CALL
PUSHB_1
 3
CALL
WCVTP
SVTCA[x-axis]
PUSHB_1
 9
DUP
RCVT
PUSHB_1
 3
CALL
WCVTP
PUSHB_1
 17
DUP
RCVT
PUSHB_3
 9
 210
 2
CALL
PUSHB_2
 3
 70
SROUND
CALL
WCVTP
PUSHB_1
 16
DUP
RCVT
PUSHB_3
 17
 107
 2
CALL
PUSHB_2
 3
 70
SROUND
CALL
WCVTP
PUSHB_1
 15
DUP
RCVT
PUSHB_3
 16
 70
 2
CALL
PUSHB_2
 3
 70
SROUND
CALL
WCVTP
PUSHB_1
 14
DUP
RCVT
PUSHB_3
 15
 63
 2
CALL
PUSHB_2
 3
 70
SROUND
CALL
WCVTP
PUSHB_1
 13
DUP
RCVT
PUSHB_3
 14
 41
 2
CALL
PUSHB_2
 3
 70
SROUND
CALL
WCVTP
PUSHB_1
 12
DUP
RCVT
PUSHW_3
 13
 406
 2
CALL
PUSHB_2
 3
 70
SROUND
CALL
WCVTP
PUSHB_1
 11
DUP
RCVT
PUSHB_3
 12
 26

StartChar: .notdef
Encoding: 65536 -1 0
Width: 1460
VWidth: 0
Flags: HW
HStem: 0 100<262 936> 1350 98<596 1270>
DStem2: 136 68 262 100 0.246999 0.969016<62.1304 1355.9> 936 100 1044 54 0.246999 0.969016<0 1293.77>
LayerCount: 2
Back
SplineSet
1404 1398 m 2
 1410 1420 1410 1448 1366 1448 c 2
 556 1448 l 2
 520 1448 500 1436 490 1396 c 2
 136 68 l 2
 120 12 146 0 176 0 c 2
 972 0 l 2
 1016 0 1032 12 1044 54 c 2
 1404 1398 l 2
596 1350 m 1
 1270 1350 l 1
 936 100 l 1
 262 100 l 1
 596 1350 l 1
EndSplineSet
Fore
SplineSet
596 1350 m 1,0,-1
 262 100 l 1,1,-1
 936 100 l 1,2,-1
 1270 1350 l 1,3,-1
 596 1350 l 1,0,-1
1404 1398 m 2,4,5
 1044 54 l 2,6,7
 1039 37 1039 37 1033 26 c 0,8,9
 1018 0 1018 0 972 0 c 2,10,-1
 176 0 l 2,11,12
 118 1 118 1 136 68 c 2,13,-1
 490 1396 l 2,14,15
 492 1404 492 1404 495 1412 c 0,16,17
 510 1448 510 1448 556 1448 c 2,18,-1
 1366 1448 l 2,19,20
 1418 1448 1418 1448 1404 1398 c 2,4,5
EndSplineSet
EndChar

StartChar: A
Encoding: 65 65 1
Width: 1023
VWidth: 0
Flags: HMW
HStem: 0 21G<648.22 840.45> 390 238<426.65 627.65> 1426 20G<612.684 879.121 897.007 928.652>
DStem2: 605.646 54 873.646 44 0.0565708 0.998399<-40.0614 336.706 575.23 1090.39>
LayerCount: 2
Back
SplineSet
696 1404 m 1
 606 54 l 2
 602 22 618 0 652 0 c 2
 814 0 l 2
 844 0 870 12 874 44 c 1
 948 1350 l 2
 952 1416 916 1450 870 1446 c 1
 640 1444 l 2
 602 1444 556 1418 530 1364 c 2
 -138 78 l 1
 -152 38 -144 6 -94 4 c 2
 62 -2 l 1
 102 -6 124 10 138 38 c 2
 802 1394 l 1
 696 1404 l 1
208 628 m 2
 190 628 184 624 178 588 c 1
 148 462 l 2
 134 410 146 390 184 390 c 2
 746 390 l 2
 774 390 804 416 810 446 c 2
 834 564 l 2
 844 608 828 628 792 628 c 2
 208 628 l 2
EndSplineSet
Fore
SplineSet
427 628 m 1,0,-1
 644 628 l 1,1,-1
 679 1142 l 1,2,-1
 427 628 l 1,0,-1
310 390 m 1,3,-1
 138 38 l 2,4,5
 115 -6 115 -6 62 -2 c 1,6,-1
 -94 4 l 2,7,8
 -95 4 -95 4 -98 4 c 0,9,10
 -162 9 -162 9 -138 78 c 1,11,-1
 530 1364 l 2,12,13
 537 1378 537 1378 547 1392 c 0,14,15
 586 1444 586 1444 640 1444 c 2,16,-1
 870 1446 l 1,17,18
 889 1447 889 1447 905 1440 c 0,19,20
 951 1419 951 1419 948 1350 c 2,21,-1
 874 44 l 1,22,23
 868 2 868 2 814 0 c 1,24,-1
 652 0 l 2,25,26
 645 0 645 0 638 1 c 0,27,28
 600 9 600 9 606 54 c 1,29,-1
 628 390 l 1,30,-1
 310 390 l 1,3,-1
EndSplineSet
Colour: ff00
EndChar

StartChar: AE
Encoding: 198 198 2
Width: 1532
VWidth: 0
Flags: HMW
HStem: 0 238<907 1321.06> 390 238<469 665> 666 238<1020 1448.04> 1210 238<1072 1617.06>
DStem2: 665 390 907 238 0.173377 0.984855<-107.741 0 241.677 326.434 567.765 777.805>
LayerCount: 2
Back
SplineSet
826 1210 m 2
 1554 1210 l 2
 1584 1210 1616 1236 1622 1266 c 2
 1648 1384 l 2
 1658 1428 1640 1448 1602 1448 c 2
 860 1448 l 2
 834 1448 828 1444 820 1408 c 2
 788 1282 l 2
 774 1230 786 1210 826 1210 c 2
850 904 m 1
 826 666 l 1
 1388 666 l 2
 1416 666 1446 692 1452 722 c 2
 1476 840 l 2
 1486 884 1470 904 1434 904 c 2
 850 904 l 1
684 238 m 1
 620 72 l 1
 606 20 618 0 658 0 c 2
 1258 0 l 2
 1288 0 1320 26 1326 56 c 2
 1352 174 l 2
 1362 218 1344 238 1306 238 c 2
 684 238 l 1
844 1404 m 1
 606 54 l 2
 602 22 618 0 652 0 c 2
 814 0 l 2
 844 0 870 12 874 44 c 2
 1096 1350 l 1
 1100 1416 1064 1452 1018 1448 c 1
 776 1448 l 2
 730 1448 692 1414 658 1364 c 2
 -190 90 l 2
 -222 42 -204 6 -154 4 c 2
 22 -2 l 1
 62 -6 84 10 98 38 c 1
 950 1394 l 1
 844 1404 l 1
306 628 m 1
 184 390 l 1
 746 390 l 1
 792 628 l 1
 306 628 l 1
EndSplineSet
Fore
SplineSet
469 628 m 1,0,-1
 707 628 l 1,1,-1
 800 1156 l 1,2,-1
 469 628 l 1,0,-1
319 390 m 1,3,-1
 98 38 l 2,4,5
 73 -2 73 -2 26 -2 c 0,6,7
 24 -2 24 -2 22 -2 c 1,8,-1
 -154 4 l 2,9,10
 -177 5 -177 5 -192 16 c 0,11,12
 -224 39 -224 39 -190 90 c 2,13,-1
 658 1364 l 2,14,15
 714 1448 714 1448 776 1448 c 2,16,-1
 1602 1448 l 2,17,18
 1661 1448 1661 1448 1648 1384 c 1,19,-1
 1622 1266 l 2,20,21
 1619 1254 1619 1254 1611 1242 c 0,22,23
 1591 1210 1591 1210 1554 1210 c 2,24,-1
 1072 1210 l 1,25,-1
 1020 904 l 1,26,-1
 1434 904 l 2,27,28
 1489 904 1489 904 1476 840 c 2,29,-1
 1452 722 l 2,30,31
 1450 711 1450 711 1442 698 c 0,32,33
 1421 666 1421 666 1388 666 c 2,34,-1
 980 666 l 1,35,-1
 907 238 l 1,36,-1
 1306 238 l 2,37,38
 1365 238 1365 238 1352 174 c 1,39,-1
 1326 56 l 2,40,41
 1323 44 1323 44 1315 32 c 0,42,43
 1295 0 1295 0 1258 0 c 2,44,-1
 652 0 l 2,45,46
 633 0 633 0 614 17 c 0,47,48
 601 28 601 28 606 54 c 2,49,-1
 665 390 l 1,50,-1
 319 390 l 1,3,-1
EndSplineSet
Colour: ff00
EndChar

StartChar: Aring
Encoding: 197 197 7
Width: 1108
VWidth: 0
Flags: HMW
HStem: 0 21G<636.284 848.779> 390 238<433 637> 1558 166<705.1 866.856>
DStem2: 614 54 884 58 0.0583592 0.998296<-26.4356 336.77 575.298 1105.56>
LayerCount: 2
Back
SplineSet
250 628 m 2
 232 628 226 624 220 588 c 1
 190 462 l 2
 176 410 188 390 226 390 c 2
 788 390 l 2
 816 390 846 416 852 446 c 2
 876 564 l 2
 886 608 870 628 834 628 c 2
 250 628 l 2
696 1248 m 1
 614 54 l 2
 612 22 626 0 660 0 c 2
 822 0 l 2
 852 0 880 12 882 44 c 2
 958 1324 l 2
 962 1390 878 1248 832 1252 c 2
 570 1272 l 1
 532 1272 538 1370 512 1316 c 2
 -130 78 l 2
 -150 40 -136 6 -86 4 c 2
 70 -2 l 2
 110 -4 132 10 146 38 c 2
 732 1244 l 1
 696 1248 l 1
458 1418 m 0
 442 1292 508 1182 614 1136 c 1
 700 1172 l 1
 734 1112 l 1
 908 1112 1066 1250 1088 1418 c 0
 1108 1586 982 1724 808 1724 c 0
 634 1724 478 1586 458 1418 c 0
670 1448 m 0
 694 1524 760 1572 816 1554 c 0
 874 1536 902 1460 876 1382 c 0
 850 1308 784 1260 726 1276 c 0
 668 1294 644 1370 670 1448 c 0
EndSplineSet
Fore
SplineSet
670 1448 m 0,0,1
 654 1401 654 1401 662 1356 c 0,2,3
 674 1292 674 1292 726 1276 c 1,4,5
 759 1267 759 1267 794 1284 c 0,6,7
 851 1312 851 1312 876 1382 c 1,8,9
 892 1430 892 1430 882 1476 c 0,10,11
 863 1558 863 1558 792 1558 c 0,12,13
 771 1558 771 1558 748 1547 c 0,14,15
 692 1518 692 1518 670 1448 c 0,0,1
458 1418 m 1,16,17
 474 1541 474 1541 571 1630 c 0,18,19
 674 1724 674 1724 808 1724 c 0,20,21
 936 1722 936 1722 1022 1633 c 1,22,23
 1105 1541 1105 1541 1088 1418 c 0,24,25
 1069 1277 1069 1277 950 1187 c 5,26,-1
 884 58 l 2,27,28
 882 29 882 29 870 12 c 0,29,30
 860 0 860 0 822 0 c 2,31,-1
 660 0 l 1,32,33
 610 1 610 1 614 54 c 2,34,-1
 637 390 l 2,35,-1
 317 390 l 1,36,-1
 149 38 l 2,37,38
 129 -4 129 -4 70 -2 c 2,39,-1
 -86 4 l 2,40,41
 -107 5 -107 5 -122 14 c 0,42,43
 -150 33 -150 33 -127 78 c 2,44,-1
 483 1261 l 1,45,46
 448 1332 448 1332 458 1418 c 1,16,17
690 1157 m 1,47,-1
 433 628 l 1,48,-1
 653 628 l 1,49,-1
 690 1157 l 1,47,-1
EndSplineSet
Colour: ff00
EndChar

StartChar: B
Encoding: 66 66 9
Width: 1012
VWidth: 0
Flags: HMW
HStem: 0 248<298 484.917> 1214 234<194.812 270 544 699.343>
VStem: 711 309<954.139 1200.79>
DStem2: -24 62 298 248 0.247282 0.968943<259.848 678.464 880.018 1188.92>
LayerCount: 2
Back
SplineSet
382 644 m 1
 472 644 538 642 566 618 c 0
 608 584 608 522 582 438 c 0
 534 290 450 256 344 250 c 2
 264 246 l 1
 134 0 l 1
 226 0 l 2
 406 0 536 -10 668 108 c 1
 768 194 838 352 852 470 c 0
 870 644 836 718 730 758 c 1
 740 718 l 1
 808 734 884 774 940 864 c 0
 986 938 1020 1054 1020 1158 c 0
 1020 1346 876 1448 636 1448 c 0
 344 1448 242 1448 242 1448 c 2
 226 1448 202 1432 196 1408 c 2
 158 1266 l 2
 150 1238 184 1214 218 1214 c 0
 260 1214 226 1214 614 1214 c 0
 702 1214 722 1162 706 1072 c 0
 684 954 626 842 488 846 c 1
 432 850 l 1
 382 644 l 1
318 1404 m 2
 -24 62 l 2
 -32 30 -18 0 16 0 c 2
 186 0 l 2
 216 0 238 14 246 44 c 2
 588 1386 l 2
 596 1418 582 1448 548 1448 c 2
 378 1448 l 2
 348 1448 326 1434 318 1404 c 2
EndSplineSet
Fore
SplineSet
451 849 m 1,0,-1
 488 846 l 2,1,2
 502 846 502 846 514 847 c 0,3,4
 666 860 666 860 706 1072 c 0,5,6
 712 1106 712 1106 711 1131 c 0,7,8
 707 1214 707 1214 614 1214 c 2,9,-1
 544 1214 l 1,10,-1
 451 849 l 1,0,-1
270 1214 m 1,11,-1
 218 1214 l 2,12,13
 200 1214 200 1214 184 1222 c 0,14,15
 150 1239 150 1239 158 1266 c 2,16,-1
 196 1408 l 2,17,18
 198 1416 198 1416 203 1424 c 0,19,20
 219 1448 219 1448 242 1448 c 2,21,-1
 378 1448 l 1,22,-1
 548 1448 l 1,23,-1
 636 1448 l 2,24,25
 768 1448 768 1448 859 1408 c 0,26,27
 1020 1336 1020 1336 1020 1158 c 0,28,29
 1020 1131 1020 1131 1017 1102 c 0,30,31
 1002 964 1002 964 940 864 c 0,32,33
 881 769 881 769 783 731 c 1,34,35
 801 718 801 718 816 701 c 0,36,37
 870 635 870 635 852 470 c 0,38,39
 845 411 845 411 821 344 c 0,40,41
 765 192 765 192 668 108 c 1,42,43
 573 23 573 23 440 6 c 0,44,45
 391 0 391 0 226 0 c 2,46,-1
 186 0 l 1,47,-1
 134 0 l 1,48,-1
 16 0 l 2,49,50
 3 0 3 0 -7 6 c 0,51,52
 -33 23 -33 23 -24 62 c 2,53,-1
 270 1214 l 1,11,-1
298 248 m 1,54,-1
 344 250 l 2,55,56
 398 253 398 253 437 267 c 0,57,58
 538 303 538 303 582 438 c 1,59,60
 623 570 623 570 566 618 c 0,61,62
 535 644 535 644 399 644 c 1,63,-1
 298 248 l 1,54,-1
EndSplineSet
Colour: ff00
EndChar

StartChar: C
Encoding: 67 67 10
Width: 870
VWidth: 0
Flags: HW
HStem: -16 21G<257.887 368.762> 1200 264<506.311 612.478>
VStem: 1 287<231.547 716.353>
LayerCount: 2
Back
SplineSet
928 1078 m 0
 896 1308 836 1416 704 1448 c 0
 674 1456 626 1464 598 1464 c 0
 348 1464 148 1182 58 816 c 0
 -30 464 -28 142 160 26 c 0
 218 -10 266 -16 288 -16 c 0
 498 -16 610 92 756 326 c 0
 776 358 776 396 750 406 c 2
 586 478 l 2
 544 496 530 486 504 436 c 0
 442 314 410 266 358 228 c 0
 354 226 344 230 340 228 c 1
 268 246 274 494 342 752 c 0
 414 1028 496 1200 582 1200 c 0
 588 1200 600 1198 606 1196 c 1
 628 1140 640 1106 648 1008 c 0
 650 976 682 954 712 962 c 2
 888 1014 l 1
 920 1026 932 1050 928 1078 c 0
EndSplineSet
Fore
SplineSet
929 1068 m 0,0,1
 932 1032 932 1032 888 1014 c 1,2,-1
 712 962 l 2,3,4
 698 958 698 958 680 964 c 0,5,6
 650 976 650 976 648 1008 c 0,7,8
 646 1031 646 1031 644 1050 c 0,9,10
 636 1121 636 1121 606 1196 c 1,11,12
 594 1200 594 1200 582 1200 c 0,13,14
 459 1199 459 1199 342 752 c 0,15,16
 289 549 289 549 289 404 c 0,17,18
 289 243 289 243 340 228 c 1,19,-1
 358 228 l 1,20,21
 376 241 376 241 393 258 c 0,22,23
 434 301 434 301 504 436 c 0,24,25
 518 463 518 463 529 475 c 0,26,27
 548 495 548 495 586 478 c 2,28,-1
 750 406 l 2,29,30
 759 402 759 402 765 393 c 0,31,32
 781 366 781 366 756 326 c 0,33,34
 650 156 650 156 564 82 c 0,35,36
 450 -16 450 -16 288 -16 c 0,37,38
 228 -16 228 -16 160 26 c 0,39,40
 89 71 89 71 48 158 c 0,41,42
 1 262 1 262 1 417 c 0,43,44
 1 587 1 587 58 816 c 0,45,46
 128 1095 128 1095 253 1257 c 0,47,48
 413 1464 413 1464 598 1464 c 0,49,50
 775 1464 775 1464 855 1334 c 0,51,52
 915 1237 915 1237 929 1068 c 0,0,1
EndSplineSet
Colour: ff00
EndChar

StartChar: D
Encoding: 68 68 14
Width: 924
VWidth: 0
Flags: HMW
HStem: -8 258<299.695 450.545> 1201 261<536.344 634.621>
VStem: 660 288<692.27 1179.49>
DStem2: -16 104 298 252 0.247775 0.968818<221.186 1121.99>
LayerCount: 2
Back
SplineSet
292 1306 m 1
 -16 104 l 2
 -32 42 -14 16 36 6 c 0
 120 -10 224 -8 320 -8 c 0
 622 -8 796 274 884 610 c 0
 918 740 948 894 948 1034 c 0
 948 1264 846 1462 526 1462 c 0
 324 1462 226 1436 186 1428 c 0
 170 1424 144 1412 140 1388 c 2
 120 1230 l 2
 116 1202 128 1174 162 1174 c 0
 204 1174 216 1202 528 1202 c 1
 560 1200 588 1196 600 1192 c 0
 674 1170 680 938 616 682 c 0
 534 360 450 250 368 250 c 0
 356 250 316 250 298 252 c 1
 562 1288 l 1
 292 1306 l 1
EndSplineSet
Fore
SplineSet
540 1201 m 1,0,1
 298 252 l 1,2,3
 316 250 316 250 368 250 c 0,4,5
 506 251 506 251 616 682 c 1,6,7
 663 873 663 873 660 1023 c 0,8,9
 656 1176 656 1176 600 1192 c 0,10,11
 579 1198 579 1198 540 1201 c 1,0,1
262 1191 m 1,12,13
 239 1188 239 1188 218 1184 c 0,14,15
 167 1174 167 1174 162 1174 c 0,16,17
 152 1174 152 1174 143 1178 c 0,18,19
 114 1190 114 1190 120 1230 c 2,20,-1
 140 1388 l 1,21,22
 146 1417 146 1417 186 1428 c 0,23,24
 188 1428 188 1428 192 1429 c 0,25,26
 348 1462 348 1462 526 1462 c 0,27,28
 659 1462 659 1462 752 1416 c 0,29,30
 948 1319 948 1319 948 1034 c 0,31,32
 948 855 948 855 884 610 c 0,33,34
 843 455 843 455 783 334 c 0,35,36
 612 -8 612 -8 320 -8 c 0,37,38
 314 -8 314 -8 306 -8 c 0,39,40
 111 -8 111 -8 36 6 c 0,41,42
 23 9 23 9 13 13 c 0,43,44
 -34 33 -34 33 -16 104 c 2,45,-1
 262 1191 l 1,12,13
EndSplineSet
Colour: ff00
EndChar

StartChar: E
Encoding: 69 69 15
Width: 912
VWidth: 0
Flags: HMW
HStem: 0 238<629.779 692.779> 666 238 1210 238<192.779 231.779 925.779 988.779>
DStem2: -24.2213 62 294.779 238 0.246951 0.969028<249.434 691.114 936.722 1184.69>
LayerCount: 2
Back
SplineSet
198 1210 m 2
 926 1210 l 2
 956 1210 988 1236 994 1266 c 2
 1020 1384 l 2
 1030 1428 1012 1448 974 1448 c 2
 232 1448 l 2
 206 1448 200 1444 192 1408 c 2
 160 1282 l 2
 146 1230 158 1210 198 1210 c 2
318 1404 m 2
 -24 62 l 2
 -32 30 -18 0 16 0 c 2
 186 0 l 2
 216 0 238 14 246 44 c 2
 588 1386 l 2
 596 1418 582 1448 548 1448 c 2
 378 1448 l 2
 348 1448 326 1434 318 1404 c 2
222 904 m 2
 204 904 198 900 192 864 c 1
 162 738 l 2
 148 686 160 666 198 666 c 2
 760 666 l 2
 788 666 818 692 824 722 c 2
 848 840 l 2
 858 884 842 904 806 904 c 2
 222 904 l 2
56 238 m 2
 38 238 32 234 24 198 c 2
 -8 72 l 2
 -22 20 -10 0 30 0 c 2
 630 0 l 2
 660 0 692 26 698 56 c 2
 724 174 l 2
 734 218 716 238 678 238 c 2
 56 238 l 2
EndSplineSet
Fore
SplineSet
465 904 m 1,0,-1
 806 904 l 2,1,2
 861 903 861 903 848 840 c 2,3,-1
 824 722 l 2,4,5
 821 710 821 710 814 698 c 0,6,7
 792 666 792 666 760 666 c 2,8,-1
 405 666 l 1,9,-1
 295 238 l 1,10,-1
 678 238 l 2,11,12
 737 237 737 237 724 174 c 1,13,-1
 698 56 l 2,14,15
 695 44 695 44 687 32 c 0,16,17
 664 0 664 0 630 0 c 2,18,-1
 16 0 l 2,19,20
 3 0 3 0 -8 6 c 0,21,22
 -34 23 -34 23 -24 62 c 2,23,-1
 269 1210 l 1,24,-1
 198 1210 l 2,25,26
 190 1210 190 1210 183 1211 c 0,27,28
 143 1218 143 1218 160 1282 c 2,29,-1
 192 1408 l 2,30,31
 196 1426 196 1426 201.5 1437 c 128,-1,32
 207 1448 207 1448 232 1448 c 2,33,-1
 974 1448 l 2,34,35
 1033 1447 1033 1447 1020 1384 c 1,36,-1
 994 1266 l 2,37,38
 991 1254 991 1254 983 1242 c 0,39,40
 960 1210 960 1210 926 1210 c 2,41,-1
 543 1210 l 1,42,-1
 465 904 l 1,0,-1
EndSplineSet
Colour: ff00
EndChar

StartChar: Eth
Encoding: 208 208 20
Width: 924
VWidth: 0
Flags: HMW
HStem: -8 258<302 453> 1201 259
DStem2: -16 104 298 252 0.24822 0.968704<221.31 1121.63>
LayerCount: 2
Back
SplineSet
162 762 m 2
 144 762 138 758 130 722 c 2
 98 596 l 2
 84 544 96 524 136 524 c 2
 736 524 l 2
 766 524 798 550 804 580 c 2
 830 698 l 2
 840 742 822 762 784 762 c 2
 162 762 l 2
EndSplineSet
Fore
SplineSet
21 826 m 2,0,1
 169 826 l 1,2,-1
 262 1191 l 1,3,4
 239 1188 239 1188 218 1184 c 0,5,6
 166 1174 166 1174 162 1174 c 0,7,8
 152 1174 152 1174 143 1178 c 0,9,10
 119 1188 119 1188 119 1218 c 0,11,12
 119 1224 119 1224 120 1230 c 2,13,-1
 140 1388 l 2,14,15
 146 1417 146 1417 186 1428 c 2,16,-1
 192 1429 l 2,17,18
 351 1462 351 1462 526 1462 c 0,19,20
 659 1462 659 1462 752 1416 c 0,21,22
 948 1319 948 1319 948 1034 c 0,23,24
 948 855 948 855 884 610 c 0,25,26
 843 455 843 455 783 334 c 0,27,28
 612 -8 612 -8 320 -8 c 2,29,-1
 306 -8 l 2,30,31
 110 -8 110 -8 36 6 c 0,32,33
 23 9 23 9 13 13 c 0,34,35
 -21 27 -21 27 -21 68 c 0,36,37
 -21 84 -21 84 -16 104 c 2,38,-1
 108 588 l 1,39,-1
 -5 588 l 2,40,41
 -12 588 -12 588 -20 589 c 0,42,43
 -48 593 -48 593 -48 627 c 0,44,45
 -48 641 -48 641 -43 660 c 2,46,-1
 -11 786 l 2,47,48
 -6 805 -6 805 -4 811 c 0,49,50
 2 826 2 826 21 826 c 2,0,1
540 1201 m 1,51,-1
 444 826 l 1,52,-1
 512 826 l 2,53,54
 560 826 560 826 560 783 c 0,55,56
 560 774 560 774 558 762 c 2,57,-1
 532 644 l 2,58,59
 529 632 529 632 521 620 c 0,60,61
 498 588 498 588 464 588 c 2,62,-1
 384 588 l 1,63,-1
 298 252 l 1,64,65
 316 250 316 250 368 250 c 0,66,67
 506 251 506 251 616 682 c 0,68,69
 660 859 660 859 660 1001 c 0,70,71
 660 1012 660 1012 660 1023 c 0,72,73
 656 1176 656 1176 600 1192 c 0,74,75
 579 1198 579 1198 540 1201 c 1,51,-1
EndSplineSet
EndChar

StartChar: Euro
Encoding: 8364 8364 21
Width: 900
VWidth: 0
Flags: HMW
HStem: -22 252<311.244 443.638> 466 176<-136.965 -131.052 -131.052 -131.052 -123.405 11 317 747.652> 726 176<-94.9646 -89.0517 -89.0517 -89.0517 -81.4045 38 386 819.652> 1174 289<499.263 631.122>
VStem: 11 286<233.144 466> 637 265<1058.32 1168.28>
LayerCount: 2
Back
SplineSet
902 1092 m 0
 902 1320 854 1410 686 1452 c 0
 396 1526 158 1224 58 816 c 0
 -42 414 8 66 274 -2 c 1
 520 -68 670 24 772 312 c 0
 784 348 790 374 756 378 c 2
 618 398 l 2
 566 406 562 402 536 364 c 1
 442 256 452 230 354 230 c 0
 280 230 274 494 342 752 c 0
 420 1048 504 1198 596 1172 c 0
 646 1158 640 1106 636 1000 c 0
 634 972 644 960 670 968 c 2
 862 1028 l 2
 894 1040 902 1064 902 1092 c 0
-62 902 m 2
 -80 902 -86 898 -94 862 c 1
 -112 798 l 2
 -126 746 -114 726 -74 726 c 2
 756 726 l 2
 786 726 818 752 824 782 c 2
 836 838 l 2
 846 882 828 902 790 902 c 2
 -62 902 l 2
-104 642 m 2
 -122 642 -128 638 -136 602 c 1
 -154 538 l 2
 -168 486 -156 466 -116 466 c 2
 684 466 l 2
 714 466 746 492 752 522 c 2
 764 578 l 2
 774 622 756 642 718 642 c 2
 -104 642 l 2
EndSplineSet
Fore
SplineSet
-104 642 m 2,0,1
 24 642 l 1,2,3
 32 697 32 697 38 726 c 1,4,-1
 -74 726 l 2,5,6
 -81 726 -81 726 -89 727 c 0,7,8
 -130 735 -130 735 -112 798 c 2,9,-1
 -94 862 l 2,10,11
 -87 887 l 0,12,13
 -81 902 -81 902 -62 902 c 2,14,-1
 82 902 l 1,15,16
 166 1174 166 1174 313 1326 c 0,17,18
 446 1463 446 1463 597 1463 c 0,19,20
 771 1463 771 1463 848 1355 c 0,21,22
 902 1279 902 1279 902 1092 c 0,23,24
 902 1044 902 1044 862 1028 c 1,25,-1
 670 968 l 2,26,27
 664 966 664 966 658 966 c 0,28,29
 633 964 633 964 636 1000 c 1,30,31
 640 1097 640 1097 637 1113 c 0,32,33
 627 1174 627 1174 577 1174 c 0,34,35
 480 1174 480 1174 386 902 c 1,36,-1
 790 902 l 2,37,38
 850 902 850 902 836 838 c 2,39,-1
 824 782 l 2,40,41
 821 769 821 769 813 758 c 0,42,43
 791 726 791 726 756 726 c 2,44,-1
 335 726 l 1,45,46
 324 684 324 684 317 642 c 1,47,-1
 718 642 l 2,48,49
 778 642 778 642 764 578 c 2,50,-1
 752 522 l 2,51,52
 749 509 749 509 741 498 c 0,53,54
 719 466 719 466 684 466 c 2,55,-1
 296 466 l 1,56,57
 293 406 293 406 297 357 c 0,58,59
 307 230 307 230 354 230 c 0,60,61
 404 230 404 230 429 244 c 0,62,63
 448 254 448 254 484 300 c 0,64,65
 514 338 514 338 536 364 c 1,66,67
 552 387 552 387 561 394 c 0,68,69
 574 404 574 404 618 398 c 2,70,-1
 756 378 l 2,71,72
 765 377 765 377 773 372 c 0,73,74
 788 361 788 361 772 312 c 1,75,76
 741 198 741 198 600 62 c 0,77,78
 513 -22 513 -22 332 -22 c 0,79,80
 260 -22 260 -22 163 51 c 0,81,82
 10 168 10 168 11 466 c 1,83,-1
 -116 466 l 2,84,85
 -123 466 -123 466 -131 467 c 0,86,87
 -172 475 -172 475 -154 538 c 2,88,-1
 -136 602 l 2,89,90
 -129 627 l 0,91,92
 -123 642 -123 642 -104 642 c 2,0,1
EndSplineSet
EndChar

StartChar: F
Encoding: 70 70 22
Width: 864
VWidth: 0
Flags: HW
HStem: 0 21G<9.59842 209.893> 566 238<440 794.039> 1210 238<198 269 543 989.061>
DStem2: -24 62 246 44 0.246999 0.969016<-7.31552 587.924 833.617 1184.8>
LayerCount: 2
Back
SplineSet
198 1210 m 2
 926 1210 l 2
 956 1210 988 1236 994 1266 c 2
 1020 1384 l 2
 1030 1428 1012 1448 974 1448 c 2
 232 1448 l 2
 206 1448 200 1444 192 1408 c 2
 160 1282 l 2
 146 1230 158 1210 198 1210 c 2
196 804 m 2
 178 804 172 800 166 764 c 1
 136 638 l 2
 122 586 134 566 172 566 c 2
 734 566 l 2
 762 566 792 592 798 622 c 2
 822 740 l 2
 832 784 816 804 780 804 c 2
 196 804 l 2
318 1404 m 2
 -24 62 l 2
 -32 30 -18 0 16 0 c 2
 186 0 l 2
 216 0 238 14 246 44 c 2
 588 1386 l 2
 596 1418 582 1448 548 1448 c 2
 378 1448 l 2
 348 1448 326 1434 318 1404 c 2
EndSplineSet
Fore
SplineSet
440 804 m 1,0,-1
 780 804 l 2,1,2
 835 803 835 803 822 740 c 2,3,-1
 798 622 l 2,4,5
 795 610 795 610 788 598 c 0,6,7
 766 566 766 566 734 566 c 2,8,-1
 379 566 l 1,9,-1
 246 44 l 1,10,11
 234 1 234 1 186 0 c 1,12,-1
 16 0 l 2,13,14
 3 0 3 0 -7 6 c 0,15,16
 -33 23 -33 23 -24 62 c 2,17,-1
 269 1210 l 1,18,-1
 198 1210 l 2,19,20
 190 1210 190 1210 183 1211 c 0,21,22
 143 1218 143 1218 160 1282 c 2,23,-1
 192 1408 l 2,24,25
 196 1426 196 1426 201 1435 c 0,26,27
 208 1448 208 1448 232 1448 c 2,28,-1
 378 1448 l 1,29,-1
 548 1448 l 1,30,-1
 974 1448 l 2,31,32
 1033 1447 1033 1447 1020 1384 c 1,33,-1
 994 1266 l 2,34,35
 991 1254 991 1254 983 1242 c 0,36,37
 960 1210 960 1210 926 1210 c 2,38,-1
 543 1210 l 1,39,-1
 440 804 l 1,0,-1
EndSplineSet
Colour: ff00
EndChar

StartChar: G
Encoding: 71 71 23
Width: 900
VWidth: 0
Flags: HW
HStem: -12 268<310.258 445.817> 486 212<402.375 544> 1175 289<499.041 625.332>
VStem: 2 290<260.605 731.795> 636 296<1021.84 1172.02>
LayerCount: 2
Back
SplineSet
932 1056 m 0
 932 1234 896 1350 796 1412 c 0
 742 1446 664 1464 598 1464 c 0
 348 1464 148 1182 58 816 c 0
 26 690 2 550 2 442 c 0
 2 248 42 104 162 32 c 0
 218 0 296 -12 350 -12 c 0
 570 -12 730 186 820 466 c 1
 834 502 840 538 814 546 c 1
 606 530 l 1
 580 542 560 534 548 498 c 0
 498 322 410 240 348 256 c 0
 276 274 274 494 342 752 c 0
 420 1048 504 1198 596 1172 c 0
 646 1158 636 1062 632 956 c 0
 630 928 640 916 666 924 c 2
 892 992 l 1
 924 1004 932 1028 932 1056 c 0
438 698 m 2
 420 698 414 694 408 674 c 2
 372 542 l 2
 362 504 368 486 396 486 c 2
 812 486 l 2
 838 486 846 516 854 542 c 2
 886 654 l 2
 898 690 882 698 868 698 c 2
 438 698 l 2
EndSplineSet
Fore
SplineSet
438 698 m 2,0,1
 868 698 l 2,2,3
 899 697 899 697 886 654 c 1,4,-1
 854 542 l 2,5,6
 842 502 842 502 828 491 c 1,7,8
 825 480 825 480 820 466 c 0,9,10
 775 325 775 325 709 221 c 0,11,12
 562 -12 562 -12 350 -12 c 0,13,14
 204 -11 204 -11 120 63 c 1,15,16
 2 169 2 169 2 442 c 0,17,18
 2 595 2 595 58 816 c 0,19,20
 125 1084 125 1084 253 1257 c 0,21,22
 407 1464 407 1464 598 1464 c 1,23,24
 709 1461 709 1461 796 1412 c 1,25,26
 822 1396 822 1396 844 1373 c 0,27,28
 932 1281 932 1281 932 1056 c 0,29,30
 932 1008 932 1008 892 992 c 1,31,-1
 666 924 l 2,32,33
 660 922 660 922 654 922 c 0,34,35
 630 921 630 921 632 956 c 1,36,37
 636 1051 636 1051 636 1066 c 0,38,39
 635 1161 635 1161 596 1172 c 0,40,41
 587 1175 587 1175 578 1175 c 0,42,43
 455 1179 455 1179 342 752 c 0,44,45
 293 564 293 564 292 421 c 0,46,47
 292 270 292 270 348 256 c 0,48,49
 380 249 380 249 417 273 c 0,50,51
 496 327 496 327 544 486 c 1,52,-1
 396 486 l 1,53,54
 361 488 361 488 372 542 c 1,55,-1
 408 674 l 2,56,57
 409 678 409 678 411 683 c 0,58,59
 418 698 418 698 438 698 c 2,0,1
EndSplineSet
Colour: ff00
EndChar

StartChar: H
Encoding: 72 72 24
Width: 1198
VWidth: 0
Flags: HMW
HStem: 0 21G<-12.6152 5.89061 17.5984 217.894 645.384 663.89 675.599 875.894> 666 238 1428 20G<362.106 562.401 574.11 592.616 1020.11 1220.4 1232.11 1250.62>
DStem2: -16 62 413 666 0.246951 0.969028<-6.09172 691.114 936.722 1440.22> 796 666 912 44 0.246951 0.969028<-629.396 0 245.606 816.914>
LayerCount: 2
Back
SplineSet
354 904 m 2
 336 904 330 900 324 864 c 1
 294 738 l 2
 280 686 292 666 330 666 c 2
 892 666 l 2
 920 666 950 692 956 722 c 2
 980 840 l 2
 990 884 974 904 938 904 c 2
 354 904 l 2
326 1404 m 2
 -16 62 l 2
 -24 30 -10 0 24 0 c 2
 194 0 l 2
 224 0 246 14 254 44 c 2
 596 1386 l 2
 604 1418 590 1448 556 1448 c 2
 386 1448 l 2
 356 1448 334 1434 326 1404 c 2
984 1404 m 2
 642 62 l 2
 634 30 648 0 682 0 c 2
 852 0 l 2
 882 0 904 14 912 44 c 2
 1254 1386 l 2
 1262 1418 1248 1448 1214 1448 c 2
 1044 1448 l 2
 1014 1448 992 1434 984 1404 c 2
EndSplineSet
Fore
SplineSet
326 1404 m 1,0,1
 338 1447 338 1447 386 1448 c 1,2,-1
 556 1448 l 2,3,4
 569 1448 569 1448 579 1442 c 0,5,6
 605 1425 605 1425 596 1386 c 2,7,-1
 473 904 l 1,8,-1
 857 904 l 1,9,-1
 984 1404 l 1,10,11
 996 1447 996 1447 1044 1448 c 1,12,-1
 1214 1448 l 2,13,14
 1227 1448 1227 1448 1237 1442 c 0,15,16
 1263 1425 1263 1425 1254 1386 c 2,17,-1
 912 44 l 1,18,19
 900 1 900 1 852 0 c 1,20,-1
 682 0 l 2,21,22
 669 0 669 0 659 6 c 0,23,24
 633 23 633 23 642 62 c 2,25,-1
 796 666 l 1,26,-1
 413 666 l 1,27,-1
 254 44 l 1,28,29
 242 1 242 1 194 0 c 1,30,-1
 24 0 l 2,31,32
 11 0 11 0 1 6 c 0,33,34
 -25 23 -25 23 -16 62 c 2,35,-1
 326 1404 l 1,0,1
EndSplineSet
Colour: ff00
EndChar

StartChar: I
Encoding: 73 73 25
Width: 552
VWidth: 0
Flags: HMW
HStem: 0 21G<9.59842 209.893> 1428 20G<354.107 554.401>
DStem2: -24 62 246 44 0.246951 0.969028<-55.288 1342>
LayerCount: 2
Back
SplineSet
318 1404 m 2
 -24 62 l 2
 -32 30 -18 0 16 0 c 2
 186 0 l 2
 216 0 238 14 246 44 c 2
 588 1386 l 2
 596 1418 582 1448 548 1448 c 2
 378 1448 l 2
 348 1448 326 1434 318 1404 c 2
EndSplineSet
Fore
SplineSet
318 1404 m 1,0,1
 330 1447 330 1447 378 1448 c 1,2,-1
 548 1448 l 2,3,4
 561 1448 561 1448 571 1442 c 0,5,6
 597 1425 597 1425 588 1386 c 2,7,-1
 246 44 l 1,8,9
 234 1 234 1 186 0 c 1,10,-1
 16 0 l 2,11,12
 3 0 3 0 -7 6 c 0,13,14
 -33 23 -33 23 -24 62 c 2,15,-1
 318 1404 l 1,0,1
EndSplineSet
Colour: ff00
EndChar

StartChar: Iacute
Encoding: 205 205 26
Width: 552
VWidth: 0
Flags: HW
HStem: 0 21<9.59842 209.893> 1428 20<354.107 554.401> 1516 298<493.531 561.75>
DStem2: -24 62 246 44 0.246951 0.969028<-55.288 1342>
LayerCount: 2
Back
SplineSet
318 1404 m 2
 -24 62 l 2
 -32 30 -18 0 16 0 c 2
 186 0 l 2
 216 0 238 14 246 44 c 2
 588 1386 l 2
 596 1418 582 1448 548 1448 c 2
 378 1448 l 2
 348 1448 326 1434 318 1404 c 2
EndSplineSet
Refer: 66 180 N 1 0 0 1 228 366 2
Fore
Refer: 25 73 N 1 0 0 1 0 0 2
Refer: 66 180 N 1 0 0 1 228 366 2
EndChar

StartChar: Icircumflex
Encoding: 206 206 27
Width: 552
VWidth: 0
Flags: HW
HStem: 0 21<9.59842 209.893> 1428 20<354.107 554.401> 1516 318
VStem: 211 557
DStem2: -24 62 246 44 0.246951 0.969028<-55.288 1342> 226 1562 408 1538 0.707107 0.707107<36.416 282.843>
LayerCount: 2
Back
SplineSet
318 1404 m 2
 -24 62 l 2
 -32 30 -18 0 16 0 c 2
 186 0 l 2
 216 0 238 14 246 44 c 2
 588 1386 l 2
 596 1418 582 1448 548 1448 c 2
 378 1448 l 2
 348 1448 326 1434 318 1404 c 2
EndSplineSet
Refer: 94 710 N 1 0 0 1 54 366 2
Fore
Refer: 25 73 S 1 0 0 1 0 0 2
Refer: 94 710 N 1 0 0 1 54 366 2
EndChar

StartChar: Idieresis
Encoding: 207 207 28
Width: 552
VWidth: 0
Flags: HW
HStem: 0 21<9.59842 209.893> 1428 20<354.107 554.401> 1520 264<261.99 439.813 582.155 759.813>
VStem: 214 258<1549.49 1752.74> 534 258<1549.83 1752.06>
DStem2: -24 62 246 44 0.246951 0.969028<-55.288 1342>
LayerCount: 2
Back
SplineSet
318 1404 m 2
 -24 62 l 2
 -32 30 -18 0 16 0 c 2
 186 0 l 2
 216 0 238 14 246 44 c 2
 588 1386 l 2
 596 1418 582 1448 548 1448 c 2
 378 1448 l 2
 348 1448 326 1434 318 1404 c 2
EndSplineSet
Refer: 102 776 N 1 0 0 1 -32 328 2
Fore
Refer: 25 73 N 1 0 0 1 0 0 2
Refer: 102 776 N 1 0 0 1 -32 328 2
EndChar

StartChar: Igrave
Encoding: 204 204 29
Width: 552
VWidth: 0
Flags: HW
HStem: 0 21<9.59842 209.893> 1428 20<354.107 554.401> 1516 298<405.25 470.375>
DStem2: -24 62 246 44 0.246951 0.969028<-55.288 1342>
LayerCount: 2
Back
SplineSet
318 1404 m 2
 -24 62 l 2
 -32 30 -18 0 16 0 c 2
 186 0 l 2
 216 0 238 14 246 44 c 2
 588 1386 l 2
 596 1418 582 1448 548 1448 c 2
 378 1448 l 2
 348 1448 326 1434 318 1404 c 2
EndSplineSet
Refer: 128 96 N 1 0 0 1 56 366 2
Fore
Refer: 25 73 N 1 0 0 1 0 0 2
Refer: 128 96 N 1 0 0 1 56 366 2
EndChar

StartChar: J
Encoding: 74 74 30
Width: 612
VWidth: 0
Flags: HMW
HStem: 1428 20G<413.114 614.599>
DStem2: 40 82 306 44 0.246605 0.969116<-168.526 1420.25>
LayerCount: 2
Back
SplineSet
436 1448 m 2
 408 1448 386 1434 378 1404 c 2
 40 82 l 2
 6 -48 -100 -136 -194 -172 c 0
 -224 -184 -222 -214 -210 -238 c 2
 -156 -350 l 2
 -146 -368 -122 -374 -94 -366 c 0
 0 -338 234 -228 306 44 c 1
 648 1388 l 2
 656 1418 642 1448 608 1448 c 2
 436 1448 l 2
EndSplineSet
Fore
SplineSet
436 1448 m 1,0,1
 608 1448 l 2,2,3
 621 1448 621 1448 632 1441 c 0,4,5
 658 1424 658 1424 648 1388 c 2,6,-1
 306 44 l 1,7,8
 262 -120 262 -120 134 -236 c 0,9,10
 29 -330 29 -330 -94 -366 c 1,11,12
 -139 -378 -139 -378 -156 -350 c 1,13,-1
 -210 -238 l 2,14,15
 -211 -236 -211 -236 -213 -232 c 0,16,17
 -232 -187 -232 -187 -194 -172 c 0,18,19
 -153 -156 -153 -156 -114 -130 c 0,20,21
 6 -48 6 -48 40 82 c 2,22,-1
 378 1404 l 1,23,24
 390 1446 390 1446 436 1448 c 1,0,1
EndSplineSet
Colour: ff00
EndChar

StartChar: K
Encoding: 75 75 31
Width: 996
VWidth: 0
Flags: HMW
HStem: 0 21G<9.59842 209.893 586.672 805.634> 1428 20G<354.107 554.401 898.532 1126.09>
DStem2: -24 62 246 44 0.246951 0.969028<-7.31554 675.712 896.419 1441.44> 654 736 401 651 0.238477 -0.971148<22.2129 701.598> 455 865 654 736 0.604386 0.796691<17.4997 764.662>
LayerCount: 2
Back
SplineSet
390 696 m 1
 542 50 l 2
 552 14 576 0 616 0 c 2
 774 0 l 2
 818 0 832 22 820 60 c 1
 628 840 l 1
 634 710 l 1
 1138 1374 l 1
 1168 1410 1160 1448 1114 1448 c 2
 918 1448 l 2
 878 1448 870 1438 858 1422 c 2
 420 816 l 1
 390 696 l 1
318 1404 m 2
 -24 62 l 2
 -32 30 -18 0 16 0 c 2
 186 0 l 2
 216 0 238 14 246 44 c 2
 588 1386 l 2
 596 1418 582 1448 548 1448 c 2
 378 1448 l 2
 348 1448 326 1434 318 1404 c 2
EndSplineSet
Fore
SplineSet
318 1404 m 1,0,1
 330 1447 330 1447 378 1448 c 1,2,-1
 548 1448 l 2,3,4
 560 1448 560 1448 571 1442 c 0,5,6
 598 1425 598 1425 588 1386 c 2,7,-1
 455 865 l 1,8,-1
 858 1422 l 2,9,10
 866 1433 866 1433 876 1440 c 0,11,12
 888 1448 888 1448 918 1448 c 2,13,-1
 1114 1448 l 2,14,15
 1138 1448 1138 1448 1150 1434 c 1,16,17
 1168 1410 1168 1410 1138 1374 c 1,18,-1
 654 736 l 1,19,-1
 820 60 l 1,20,21
 837 2 837 2 774 0 c 1,22,-1
 616 0 l 2,23,24
 558 0 558 0 542 50 c 1,25,-1
 401 651 l 1,26,-1
 246 44 l 1,27,28
 234 1 234 1 186 0 c 1,29,-1
 16 0 l 2,30,31
 4 0 4 0 -7 6 c 0,32,33
 -34 23 -34 23 -24 62 c 2,34,-1
 318 1404 l 1,0,1
EndSplineSet
Colour: ff00
EndChar

StartChar: L
Encoding: 76 76 32
Width: 812
VWidth: 0
Flags: HMW
HStem: 0 238<295 693.062> 1428 20G<354.107 554.401>
DStem2: -24 62 295 238 0.246951 0.969028<249.326 1441.44>
LayerCount: 2
Back
SplineSet
56 238 m 2
 38 238 32 234 24 198 c 2
 -8 72 l 2
 -22 20 -10 0 30 0 c 2
 630 0 l 2
 660 0 692 26 698 56 c 2
 724 174 l 2
 734 218 716 238 678 238 c 2
 56 238 l 2
318 1404 m 2
 -24 62 l 2
 -32 30 -18 0 16 0 c 2
 186 0 l 2
 216 0 238 14 246 44 c 2
 588 1386 l 2
 596 1418 582 1448 548 1448 c 2
 378 1448 l 2
 348 1448 326 1434 318 1404 c 2
EndSplineSet
Fore
SplineSet
318 1404 m 1,0,1
 330 1447 330 1447 378 1448 c 1,2,-1
 548 1448 l 2,3,4
 561 1448 561 1448 571 1442 c 0,5,6
 597 1425 597 1425 588 1386 c 2,7,-1
 295 238 l 1,8,-1
 678 238 l 2,9,10
 737 237 737 237 724 174 c 1,11,-1
 698 56 l 2,12,13
 695 44 695 44 687 32 c 0,14,15
 664 0 664 0 630 0 c 2,16,-1
 16 0 l 2,17,18
 3 0 3 0 -7 6 c 0,19,20
 -33 23 -33 23 -24 62 c 2,21,-1
 318 1404 l 1,0,1
EndSplineSet
Colour: ff00
EndChar

StartChar: M
Encoding: 77 77 33
Width: 1284
VWidth: 0
Flags: HMW
HStem: 0 21G<9.59842 209.893 761.599 961.893> 1428 20G<354.107 573.188 1090.62 1306.4>
DStem2: -24 62 246 44 0.246951 0.969028<-7.31554 799.403> 728 62 998 44 0.246951 0.969028<-7.31555 628.415>
LayerCount: 2
Back
SplineSet
436 1448 m 1
 384 1404 l 1
 412 1086 448 750 428 456 c 0
 424 398 458 380 492 376 c 2
 624 362 l 1
 666 362 708 380 752 454 c 0
 894 692 1066 954 1232 1322 c 1
 1216 1448 l 1
 1108 1448 l 2
 1082 1448 1066 1440 1048 1410 c 2
 520 500 l 1
 614 406 l 1
 660 740 650 1060 618 1402 c 0
 614 1434 602 1448 570 1448 c 2
 436 1448 l 1
318 1404 m 2
 -24 62 l 2
 -32 30 -18 0 16 0 c 2
 186 0 l 2
 216 0 238 14 246 44 c 2
 588 1386 l 2
 596 1418 582 1448 548 1448 c 2
 378 1448 l 2
 348 1448 326 1434 318 1404 c 2
1070 1404 m 2
 728 62 l 2
 720 30 734 0 768 0 c 2
 938 0 l 2
 968 0 990 14 998 44 c 2
 1340 1386 l 2
 1348 1418 1334 1448 1300 1448 c 2
 1130 1448 l 2
 1100 1448 1078 1434 1070 1404 c 2
EndSplineSet
Fore
SplineSet
318 1404 m 1,0,1
 330 1447 330 1447 378 1448 c 1,2,-1
 570 1448 l 2,3,4
 576 1448 576 1448 583 1447 c 0,5,6
 613 1442 613 1442 618 1402 c 1,7,8
 654 1012 654 1012 641 709 c 1,9,-1
 1048 1410 l 2,10,11
 1050 1413 1050 1413 1052 1417 c 0,12,13
 1073 1448 1073 1448 1108 1448 c 2,14,-1
 1300 1448 l 2,15,16
 1313 1448 1313 1448 1323 1442 c 0,17,18
 1349 1425 1349 1425 1340 1386 c 2,19,-1
 998 44 l 1,20,21
 986 1 986 1 938 0 c 1,22,-1
 768 0 l 2,23,24
 755 0 755 0 745 6 c 0,25,26
 719 23 719 23 728 62 c 2,27,-1
 883 671 l 1,28,-1
 752 454 l 2,29,30
 751 452 751 452 749 449 c 0,31,32
 696 362 696 362 624 362 c 1,33,-1
 492 376 l 1,34,35
 424 385 424 385 428 456 c 1,36,37
 437 594 437 594 431 771 c 1,38,-1
 246 44 l 1,39,40
 234 1 234 1 186 0 c 1,41,-1
 16 0 l 2,42,43
 3 0 3 0 -7 6 c 0,44,45
 -33 23 -33 23 -24 62 c 2,46,-1
 318 1404 l 1,0,1
EndSplineSet
Colour: ff00
EndChar

StartChar: N
Encoding: 78 78 34
Width: 1190
VWidth: 0
Flags: HMW
HStem: 0 21G<9.59842 209.893 657.667 867.893> 1428 20G<354.107 557.453 1012.11 1212.4>
DStem2: -24 62 246 44 0.246951 0.969028<-7.30549 875.804> 776 620 904 44 0.246951 0.969028<0 865.647>
LayerCount: 2
Back
SplineSet
332 1364 m 1
 628 62 l 2
 636 30 634 0 668 0 c 2
 838 0 l 1
 898 84 l 1
 602 1386 l 2
 594 1418 596 1448 516 1448 c 2
 392 1448 l 1
 332 1364 l 1
318 1404 m 2
 -24 62 l 2
 -32 30 -18 0 16 0 c 2
 186 0 l 2
 216 0 238 14 246 44 c 2
 588 1386 l 2
 596 1418 582 1448 548 1448 c 2
 378 1448 l 2
 348 1448 326 1434 318 1404 c 2
976 1404 m 2
 634 62 l 2
 626 30 640 0 674 0 c 2
 844 0 l 2
 874 0 896 14 904 44 c 2
 1246 1386 l 2
 1254 1418 1240 1448 1206 1448 c 2
 1036 1448 l 2
 1006 1448 984 1434 976 1404 c 2
EndSplineSet
Fore
SplineSet
318 1404 m 1,0,1
 330 1447 330 1447 378 1448 c 1,2,-1
 543 1448 l 2,3,4
 563 1448 563 1448 580 1434 c 0,5,6
 584 1431 584 1431 588 1426 c 0,7,8
 593 1419 593 1419 602 1386 c 1,9,-1
 776 620 l 1,10,-1
 976 1404 l 1,11,12
 988 1447 988 1447 1036 1448 c 1,13,-1
 1206 1448 l 2,14,15
 1218 1448 1218 1448 1229 1442 c 0,16,17
 1256 1425 1256 1425 1246 1386 c 2,18,-1
 904 44 l 1,19,20
 892 1 892 1 844 0 c 1,21,-1
 674 0 l 2,22,23
 653 0 653 0 644 12 c 0,24,25
 636 24 636 24 632 40 c 2,26,-1
 450 845 l 1,27,-1
 246 44 l 1,28,29
 234 1 234 1 186 0 c 1,30,-1
 16 0 l 2,31,32
 4 0 4 0 -7 6 c 0,33,34
 -34 23 -34 23 -24 62 c 2,35,-1
 318 1404 l 1,0,1
EndSplineSet
Colour: ff00
EndChar

StartChar: O
Encoding: 79 79 36
Width: 900
VWidth: 0
Flags: HW
HStem: -10 238<298.327 404.26> 1198 266<505.682 647.271>
VStem: 4 278<236.267 689.238> 659 273<760.553 1193.23>
LayerCount: 2
Back
SplineSet
58 816 m 4
 22 676 4 550 4 440 c 4
 4 240 44 98 164 30 c 0
 218 0 296 -10 352 -10 c 0
 614 -10 780 276 864 610 c 4
 910 792 932 940 932 1058 c 4
 932 1240 898 1354 798 1414 c 0
 742 1446 660 1464 600 1464 c 0
 350 1464 152 1180 58 816 c 4
342 752 m 4
 382 906 424 1034 472 1112 c 4
 516 1184 548 1198 600 1198 c 4
 688 1198 672 992 596 682 c 4
 556 522 516 404 472 328 c 4
 426 252 394 228 350 228 c 4
 264 228 258 432 342 752 c 4
EndSplineSet
Fore
SplineSet
342 752 m 0,0,1
 282 524 282 524 282 381 c 0,2,3
 282 228 282 228 350 228 c 0,4,5
 365 228 365 228 380 232 c 0,6,7
 423 246 423 246 472 328 c 1,8,9
 534 436 534 436 596 682 c 1,10,11
 659 939 659 939 659 1068 c 128,-1,12
 659 1197 659 1197 596 1198 c 1,13,14
 524 1198 524 1198 472 1112 c 0,15,16
 409 1008 409 1008 342 752 c 0,0,1
58 816 m 0,17,18
 126 1079 126 1079 251 1251 c 0,19,20
 407 1464 407 1464 600 1464 c 0,21,22
 609 1464 609 1464 618 1464 c 0,23,24
 779 1455 779 1455 856 1364 c 1,25,26
 932 1274 932 1274 932 1058 c 0,27,28
 932 879 932 879 864 610 c 0,29,30
 815 416 815 416 739 275 c 0,31,32
 584 -10 584 -10 352 -10 c 0,33,34
 193 -10 193 -10 109 71 c 1,35,36
 4 175 4 175 4 440 c 0,37,38
 4 606 4 606 58 816 c 0,17,18
EndSplineSet
Colour: ff00
EndChar

StartChar: Oslash
Encoding: 216 216 41
Width: 900
VWidth: 0
Flags: HW
HStem: -10 238<299.459 404.26> 1444 20G<503.318 604.312>
DStem2: -110 192 54 64 0.63531 0.772257<-61.9441 52.2026 705.499 876.124 1519.7 1689.83>
LayerCount: 2
Back
SplineSet
1110 1342 m 2
 1132 1368 1116 1392 1086 1410 c 2
 1000 1468 l 2
 968 1490 948 1478 928 1454 c 2
 -110 192 l 2
 -148 144 -130 126 -102 102 c 2
 -14 32 l 2
 8 14 34 40 54 64 c 2
 1110 1342 l 2
58 816 m 0
 22 676 4 550 4 440 c 0
 4 240 44 98 164 30 c 0
 218 0 296 -10 352 -10 c 0
 614 -10 780 276 864 610 c 0
 910 792 932 940 932 1058 c 0
 932 1240 898 1354 798 1414 c 0
 742 1446 660 1464 600 1464 c 0
 350 1464 152 1180 58 816 c 0
342 752 m 0
 382 906 424 1034 472 1112 c 0
 516 1184 548 1198 600 1198 c 0
 688 1198 672 992 596 682 c 0
 556 522 516 404 472 328 c 0
 426 252 394 228 350 228 c 0
 264 228 258 432 342 752 c 0
EndSplineSet
Fore
SplineSet
342 752 m 1,0,1
 338 737 l 1,2,-1
 656 1124 l 1,3,4
 645 1196 645 1196 600 1198 c 1,5,6
 576 1198 576 1198 558 1193 c 0,7,8
 514 1180 514 1180 472 1112 c 0,9,10
 409 1009 409 1009 342 752 c 1,0,1
58 816 m 0,11,12
 126 1079 126 1079 251 1251 c 0,13,14
 407 1464 407 1464 600 1464 c 0,15,16
 609 1464 609 1464 618 1464 c 0,17,18
 721 1458 721 1458 798 1414 c 0,19,20
 831 1394 831 1394 855 1366 c 1,21,-1
 928 1454 l 2,22,23
 930 1456 930 1456 932 1459 c 0,24,25
 963 1493 963 1493 1000 1468 c 2,26,-1
 1086 1410 l 1,27,28
 1138 1378 1138 1378 1110 1342 c 2,29,-1
 930 1124 l 1,30,31
 932 1083 932 1083 932 1058 c 0,32,33
 932 879 932 879 864 610 c 0,34,35
 815 416 815 416 739 275 c 0,36,37
 584 -10 584 -10 352 -10 c 0,38,39
 236 -10 236 -10 164 30 c 0,40,41
 115 58 115 58 84 100 c 1,42,-1
 54 64 l 2,43,44
 11 13 11 13 -14 32 c 2,45,-1
 -102 102 l 2,46,47
 -115 113 -115 113 -122 121 c 0,48,49
 -144 148 -144 148 -110 192 c 2,50,-1
 8 336 l 1,51,52
 4 380 4 380 4 440 c 0,53,54
 4 606 4 606 58 816 c 0,11,12
284 342 m 1,55,56
 294 230 294 230 350 228 c 0,57,58
 365 228 365 228 380 232 c 0,59,60
 423 246 423 246 472 328 c 1,61,62
 534 436 534 436 596 682 c 1,63,-1
 609 735 l 1,64,-1
 284 342 l 1,55,56
EndSplineSet
EndChar

StartChar: P
Encoding: 80 80 43
Width: 940
VWidth: 0
Flags: HMW
HStem: 0 21G<9.59842 209.893> 1214 234<195.056 270 544 710.489>
VStem: 720 252<937.517 1196.06>
DStem2: -24 62 246 44 0.247218 0.96896<-7.30121 616.535 820.092 1188.92>
LayerCount: 2
Back
SplineSet
294 584 m 1
 674 570 754 666 812 724 c 1
 888 792 972 1016 972 1188 c 0
 972 1372 838 1448 668 1448 c 2
 242 1448 l 2
 226 1448 202 1432 196 1408 c 2
 160 1270 l 2
 152 1242 168 1214 202 1214 c 0
 244 1214 594 1212 660 1210 c 0
 686 1210 720 1190 720 1164 c 0
 720 1096 692 962 672 904 c 1
 630 826 576 800 510 796 c 2
 364 786 l 1
 294 584 l 1
318 1404 m 2
 -24 62 l 2
 -32 30 -18 0 16 0 c 2
 186 0 l 2
 216 0 238 14 246 44 c 2
 588 1386 l 2
 596 1418 582 1448 548 1448 c 2
 378 1448 l 2
 348 1448 326 1434 318 1404 c 2
EndSplineSet
Fore
SplineSet
436 791 m 1,0,-1
 510 796 l 2,1,2
 519 797 519 797 529 798 c 0,3,4
 622 812 622 812 672 904 c 1,5,6
 677 920 677 920 684 943 c 0,7,8
 720 1079 720 1079 720 1164 c 0,9,10
 720 1175 720 1175 711 1186 c 0,11,12
 691 1210 691 1210 660 1210 c 0,13,14
 649 1211 649 1211 603 1211 c 0,15,16
 565 1211 565 1211 544 1212 c 1,17,-1
 436 791 l 1,0,-1
270 1214 m 1,18,-1
 202 1214 l 2,19,20
 188 1214 188 1214 176 1221 c 0,21,22
 150 1237 150 1237 160 1270 c 2,23,-1
 196 1408 l 2,24,25
 198 1416 198 1416 203 1424 c 0,26,27
 219 1448 219 1448 242 1448 c 2,28,-1
 668 1448 l 2,29,30
 754 1448 754 1448 821 1422 c 0,31,32
 972 1362 972 1362 972 1188 c 0,33,34
 972 1077 972 1077 925 930 c 0,35,36
 872 765 872 765 765 680 c 1,37,38
 652 586 652 586 383 583 c 1,39,-1
 246 44 l 1,40,41
 234 1 234 1 186 0 c 1,42,-1
 16 0 l 2,43,44
 3 0 3 0 -7 6 c 0,45,46
 -33 23 -33 23 -24 62 c 2,47,-1
 270 1214 l 1,18,-1
EndSplineSet
Colour: ff00
EndChar

StartChar: Q
Encoding: 81 81 44
Width: 900
VWidth: 0
Flags: HW
HStem: 1198 266<505.724 648.717>
VStem: 4 278<236.267 689.238> 660 272<768.67 1193.58>
LayerCount: 2
Back
SplineSet
58 816 m 0
 22 676 4 550 4 440 c 0
 4 240 44 98 164 30 c 0
 218 0 296 -10 352 -10 c 0
 614 -10 780 276 864 610 c 0
 910 792 932 940 932 1058 c 0
 932 1240 898 1354 798 1414 c 0
 742 1446 660 1464 600 1464 c 0
 350 1464 152 1180 58 816 c 0
342 752 m 0
 382 906 424 1034 472 1112 c 0
 516 1184 548 1198 600 1198 c 0
 688 1198 672 992 596 682 c 0
 556 522 516 404 472 328 c 0
 426 252 394 228 350 228 c 0
 264 228 258 432 342 752 c 0
150 -136 m 2
 140 -184 150 -214 180 -202 c 0
 262 -172 348 -166 422 -202 c 0
 502 -240 590 -218 650 -198 c 0
 676 -190 684 -178 688 -156 c 2
 710 -44 l 2
 718 -4 702 24 676 14 c 0
 592 -12 520 -16 434 14 c 1
 360 42 252 34 198 8 c 1
 186 0 178 -8 174 -30 c 2
 150 -136 l 2
EndSplineSet
Fore
SplineSet
150 -136 m 1,0,1
 174 -30 l 2,2,3
 179 -6 179 -6 198 8 c 0,4,5
 199 8 199 8 202 10 c 0,6,7
 204 12 204 12 206 12 c 1,8,9
 184 20 184 20 164 30 c 0,10,11
 134 47 134 47 109 71 c 0,12,13
 4 175 4 175 4 440 c 0,14,15
 4 606 4 606 58 816 c 0,16,17
 125 1075 125 1075 251 1251 c 0,18,19
 403 1463 403 1463 618 1464 c 0,20,21
 713 1463 713 1463 798 1414 c 1,22,23
 831 1394 831 1394 856 1364 c 0,24,25
 932 1274 932 1274 932 1058 c 0,26,27
 932 879 932 879 864 610 c 0,28,29
 833 488 833 488 791 386 c 0,30,31
 662 73 662 73 458 7 c 1,32,33
 560 -23 560 -23 676 14 c 0,34,35
 687 18 687 18 697 13 c 0,36,37
 719 0 719 0 710 -44 c 2,38,-1
 688 -156 l 2,39,40
 687 -159 687 -159 686 -163 c 0,41,42
 679 -188 679 -188 650 -198 c 0,43,44
 512 -244 512 -244 422 -202 c 0,45,46
 317 -153 317 -153 180 -202 c 0,47,48
 171 -205 171 -205 164 -204 c 0,49,50
 137 -198 137 -198 150 -136 c 1,0,1
342 752 m 0,51,52
 282 524 282 524 282 381 c 0,53,54
 282 228 282 228 350 228 c 0,55,56
 365 228 365 228 380 232 c 0,57,58
 423 246 423 246 472 328 c 1,59,60
 534 436 534 436 596 682 c 1,61,62
 660 943 660 943 660 1072 c 0,63,64
 660 1197 660 1197 600 1198 c 1,65,66
 524 1198 524 1198 472 1112 c 0,67,68
 409 1009 409 1009 342 752 c 0,51,52
EndSplineSet
Colour: ff00
EndChar

StartChar: R
Encoding: 82 82 45
Width: 958
VWidth: 0
Flags: HMW
HStem: 0 21G<9.59842 209.893 547.204 736.031> 1214 234<195.056 270 544 710.489>
VStem: 480 286<8.26518 215.405> 720 252<937.517 1196.06>
DStem2: -24 62 246 44 0.247218 0.96896<-7.30121 605.446 814.031 1188.92>
LayerCount: 2
Back
SplineSet
294 584 m 1
 560 582 l 1
 702 620 754 666 812 724 c 1
 888 792 972 1016 972 1188 c 0
 972 1372 838 1448 668 1448 c 2
 242 1448 l 2
 226 1448 202 1432 196 1408 c 2
 160 1270 l 2
 152 1242 168 1214 202 1214 c 0
 244 1214 594 1212 660 1210 c 0
 686 1210 720 1190 720 1164 c 0
 720 1096 692 962 672 904 c 1
 630 826 576 804 510 796 c 2
 332 770 l 1
 294 584 l 1
480 628 m 1
 416 616 l 1
 480 100 l 2
 488 40 516 0 552 0 c 2
 710 0 l 2
 740 0 774 16 764 84 c 2
 678 660 l 1
 480 628 l 1
318 1404 m 2
 -24 62 l 2
 -32 30 -18 0 16 0 c 2
 186 0 l 2
 216 0 238 14 246 44 c 2
 588 1386 l 2
 596 1418 582 1448 548 1448 c 2
 378 1448 l 2
 348 1448 326 1434 318 1404 c 2
EndSplineSet
Fore
SplineSet
435 785 m 1,0,-1
 510 796 l 2,1,2
 539 800 539 800 543 802 c 0,3,4
 625 830 625 830 651 871 c 0,5,6
 676 913 676 913 684 943 c 0,7,8
 720 1077 720 1077 720 1164 c 0,9,10
 720 1180 720 1180 704 1193 c 0,11,12
 690 1205 690 1205 670 1209 c 0,13,14
 658 1211 658 1211 603 1212 c 0,15,16
 576 1212 576 1212 544 1212 c 1,17,-1
 435 785 l 1,0,-1
270 1214 m 1,18,-1
 202 1214 l 2,19,20
 188 1214 188 1214 176 1221 c 0,21,22
 150 1237 150 1237 160 1270 c 2,23,-1
 196 1408 l 2,24,25
 198 1416 198 1416 203 1424 c 0,26,27
 219 1448 219 1448 242 1448 c 2,28,-1
 668 1448 l 2,29,30
 754 1448 754 1448 821 1422 c 0,31,32
 972 1362 972 1362 972 1188 c 0,33,34
 972 1069 972 1069 925 930 c 0,35,36
 874 779 874 779 812 724 c 1,37,38
 745 658 745 658 683 626 c 1,39,-1
 764 84 l 2,40,41
 766 68 766 68 766 54 c 0,42,43
 763 0 763 0 710 0 c 2,44,-1
 552 0 l 2,45,46
 542 0 542 0 532 4 c 0,47,48
 490 23 490 23 480 100 c 2,49,-1
 420 583 l 1,50,-1
 383 583 l 1,51,-1
 246 44 l 1,52,53
 234 1 234 1 186 0 c 1,54,-1
 16 0 l 2,55,56
 3 0 3 0 -7 6 c 0,57,58
 -33 23 -33 23 -24 62 c 2,59,-1
 270 1214 l 1,18,-1
EndSplineSet
Colour: ff00
EndChar

StartChar: S
Encoding: 83 83 46
Width: 928
VWidth: 0
Flags: HMW
HStem: -32 204<348 428.707> -32 520<169.753 317.11> 1235 235<636.199 673.846>
VStem: 38 280<173.405 426.806> 200 314<784.174 1071.04> 526 308<344.747 597.452> 712 264<993.589 1202.85>
LayerCount: 2
Back
SplineSet
700 1470 m 0
 432 1470 200 1114 200 854 c 0
 200 708 314 652 384 634 c 2
 416 626 l 2
 522 600 526 548 526 470 c 0
 526 320 444 208 382 178 c 0
 372 174 356 172 348 172 c 1
 324 200 314 290 318 452 c 0
 318 484 288 498 240 482 c 2
 86 428 l 2
 54 418 38 374 38 334 c 0
 38 184 80 -32 336 -32 c 0
 578 -32 834 272 834 560 c 0
 834 760 756 806 660 832 c 2
 624 842 l 2
 546 864 514 882 514 960 c 0
 514 1072 598 1210 636 1232 c 0
 640 1234 646 1236 650 1234 c 0
 690 1182 708 1090 712 996 c 0
 714 952 762 948 782 954 c 2
 928 992 l 2
 960 1000 976 1024 976 1056 c 0
 976 1302 898 1470 700 1470 c 0
EndSplineSet
Fore
SplineSet
700 1470 m 0,0,1
 742 1470 742 1470 779 1460 c 0,2,3
 982 1402 982 1402 976 1056 c 0,4,5
 975 1004 975 1004 928 992 c 2,6,-1
 782 954 l 2,7,8
 771 951 771 951 757 952 c 0,9,10
 714 957 714 957 712 996 c 0,11,12
 705 1162 705 1162 649 1235 c 1,13,14
 642 1235 642 1235 636 1232 c 0,15,16
 612 1218 612 1218 580 1164 c 0,17,18
 514 1055 514 1055 514 960 c 0,19,20
 514 913 514 913 532 888 c 0,21,22
 552 862 552 862 624 842 c 2,23,-1
 660 832 l 2,24,25
 715 817 715 817 748 794 c 0,26,27
 834 733 834 733 834 560 c 0,28,29
 834 473 834 473 803 382 c 0,30,31
 746 213 746 213 615 93 c 0,32,33
 478 -32 478 -32 336 -32 c 0,34,35
 262 -32 262 -32 204 -7 c 0,36,37
 36 66 36 66 38 334 c 0,38,39
 38 345 38 345 40 357 c 0,40,41
 49 416 49 416 86 428 c 1,42,-1
 240 482 l 2,43,44
 261 489 261 489 282 488 c 0,45,46
 318 485 318 485 318 452 c 0,47,48
 312 215 312 215 348 172 c 1,49,50
 367 172 367 172 382 178 c 1,51,52
 416 195 416 195 449 237 c 0,53,54
 526 335 526 335 526 470 c 0,55,56
 526 526 526 526 518 552 c 0,57,58
 500 605 500 605 416 626 c 2,59,-1
 384 634 l 2,60,61
 358 641 358 641 330 653 c 0,62,63
 200 714 200 714 200 854 c 0,64,65
 200 931 200 931 226 1017 c 0,66,67
 279 1192 279 1192 402 1321 c 0,68,69
 543 1470 543 1470 700 1470 c 0,0,1
EndSplineSet
Colour: ff00
EndChar

StartChar: T
Encoding: 84 84 48
Width: 884
VWidth: 0
Flags: HMW
HStem: 0 21G<175.599 375.893> 1210 238<130 435 709 1059.06>
DStem2: 139.5 51.5 412 44 0.246835 0.969057<-37.5571 0>
LayerCount: 2
Back
SplineSet
130 1210 m 2
 996 1210 l 2
 1026 1210 1058 1236 1064 1266 c 2
 1090 1384 l 2
 1100 1428 1082 1448 1044 1448 c 2
 184 1448 l 2
 148 1448 132 1444 124 1408 c 2
 92 1282 l 2
 78 1230 90 1210 130 1210 c 2
484 1404 m 2
 142 62 l 2
 134 30 148 0 182 0 c 2
 352 0 l 2
 382 0 404 14 412 44 c 2
 754 1386 l 2
 762 1418 748 1448 714 1448 c 2
 544 1448 l 2
 514 1448 492 1434 484 1404 c 2
EndSplineSet
Fore
SplineSet
1044 1448 m 2,0,1
 1103 1448 1103 1448 1090 1384 c 1,2,-1
 1064 1266 l 2,3,4
 1061 1254 1061 1254 1053 1242 c 0,5,6
 1030 1210 1030 1210 996 1210 c 2,7,-1
 709 1210 l 1,8,-1
 412 44 l 1,9,10
 400 1 400 1 352 0 c 1,11,-1
 180 0 l 2,12,13
 162 0 162 0 148 14 c 0,14,15
 134 28 134 28 140 52 c 2,16,-1
 435 1210 l 1,17,-1
 130 1210 l 2,18,19
 123 1210 123 1210 115 1211 c 0,20,21
 76 1218 76 1218 92 1282 c 2,22,-1
 124 1408 l 2,23,24
 128 1423 128 1423 133 1432 c 0,25,26
 144 1448 144 1448 184 1448 c 2,27,-1
 1044 1448 l 2,0,1
EndSplineSet
Colour: ff00
EndChar

StartChar: Thorn
Encoding: 222 222 49
Width: 940
VWidth: 0
Flags: HW
HStem: 0 21G<9.59842 209.893> 1075 235<569 678.489> 1428 20G<354.107 554.401>
VStem: 688 252<799.517 1058.06>
DStem2: -24 62 246 44 0.246999 0.969016<-7.31552 463.017 677.663 1113.26 1355.8 1441.46>
LayerCount: 2
Back
SplineSet
324 1076 m 1
 442 1076 588 1074 628 1072 c 0
 654 1072 688 1052 688 1026 c 0
 688 958 660 824 640 766 c 1
 598 688 544 662 478 658 c 2
 332 648 l 1
 262 446 l 1
 642 432 722 528 780 586 c 1
 856 654 940 878 940 1050 c 0
 940 1234 806 1310 636 1310 c 2
 384 1310 l 1
 324 1076 l 1
318 1404 m 2
 -24 62 l 2
 -32 30 -18 0 16 0 c 2
 186 0 l 2
 216 0 238 14 246 44 c 2
 588 1386 l 2
 596 1418 582 1448 548 1448 c 2
 378 1448 l 2
 348 1448 326 1434 318 1404 c 2
EndSplineSet
Fore
SplineSet
318 1404 m 1,0,1
 330 1447 330 1447 378 1448 c 1,2,-1
 548 1448 l 2,3,4
 561 1448 561 1448 571 1442 c 0,5,6
 597 1425 597 1425 588 1386 c 2,7,-1
 569 1310 l 1,8,-1
 636 1310 l 2,9,10
 722 1310 722 1310 789 1284 c 0,11,12
 940 1224 940 1224 940 1050 c 0,13,14
 940 931 940 931 893 792 c 0,15,16
 842 641 842 641 780 586 c 1,17,18
 749 555 749 555 733 542 c 0,19,20
 617 448 617 448 348 445 c 1,21,-1
 246 44 l 1,22,23
 234 1 234 1 186 0 c 1,24,-1
 16 0 l 2,25,26
 3 0 3 0 -7 6 c 0,27,28
 -33 23 -33 23 -24 62 c 2,29,-1
 318 1404 l 1,0,1
401 653 m 1,30,-1
 478 658 l 2,31,32
 487 659 487 659 497 660 c 0,33,34
 590 674 590 674 640 766 c 1,35,36
 645 782 645 782 652 805 c 0,37,38
 688 941 688 941 688 1026 c 0,39,40
 688 1037 688 1037 679 1048 c 0,41,42
 659 1072 659 1072 628 1072 c 1,43,44
 601 1073 601 1073 509 1075 c 1,45,-1
 401 653 l 1,30,-1
EndSplineSet
EndChar

StartChar: U
Encoding: 85 85 50
Width: 1096
VWidth: 0
Flags: HMW
HStem: -14 218<369.676 542.081> 1428 20G<354.107 562.401 926.107 1118.4>
DStem2: 112 604 394 582 0.243671 0.969858<-262.313 880.092> 682 588 956 610 0.247004 0.969015<-326.627 897.847>
LayerCount: 2
Back
SplineSet
432 -14 m 0
 752 -14 872 274 956 610 c 2
 1152 1386 l 2
 1160 1418 1146 1448 1112 1448 c 2
 950 1448 l 2
 920 1448 898 1434 890 1404 c 2
 682 588 l 2
 604 282 540 204 450 204 c 0
 334 204 330 328 394 582 c 2
 596 1386 l 2
 604 1418 590 1448 556 1448 c 2
 378 1448 l 2
 348 1448 326 1434 318 1404 c 2
 112 604 l 2
 48 356 54 178 160 70 c 0
 218 10 322 -14 432 -14 c 0
EndSplineSet
Fore
SplineSet
432 -14 m 0,0,1
 242 -14 242 -14 160 70 c 0,2,3
 141 89 141 89 126 113 c 0,4,5
 25 267 25 267 112 604 c 2,6,-1
 318 1404 l 2,7,8
 330 1447 330 1447 378 1448 c 1,9,-1
 556 1448 l 2,10,11
 569 1448 569 1448 579 1442 c 0,12,13
 605 1425 605 1425 596 1386 c 2,14,-1
 394 582 l 2,15,16
 346 391 346 391 354 304 c 0,17,18
 363 204 363 204 450 204 c 0,19,20
 498 204 498 204 535 237 c 0,21,22
 611 307 611 307 682 588 c 2,23,-1
 890 1404 l 2,24,25
 902 1447 902 1447 950 1448 c 1,26,-1
 1112 1448 l 2,27,28
 1125 1448 1125 1448 1135 1442 c 0,29,30
 1161 1425 1161 1425 1152 1386 c 2,31,-1
 956 610 l 2,32,33
 891 353 891 353 812 218 c 0,34,35
 675 -14 675 -14 432 -14 c 0,0,1
EndSplineSet
Colour: ff00
EndChar

StartChar: V
Encoding: 86 86 55
Width: 1008
VWidth: 0
Flags: HMW
DStem2: 100 94 369 302 0.0565708 0.998399<222.884 1353.54>
LayerCount: 2
Back
SplineSet
352 40 m 1
 442 1390 l 2
 446 1422 430 1444 396 1444 c 2
 234 1444 l 2
 204 1444 178 1432 174 1400 c 1
 100 94 l 2
 96 28 132 -6 178 -2 c 1
 408 0 l 2
 446 0 492 26 518 80 c 2
 1186 1366 l 1
 1200 1406 1192 1438 1142 1440 c 2
 986 1446 l 1
 946 1450 924 1434 910 1406 c 2
 246 50 l 1
 352 40 l 1
EndSplineSet
Fore
SplineSet
369 302 m 1,0,-1
 910 1406 l 2,1,2
 932 1450 932 1450 986 1446 c 1,3,-1
 1142 1440 l 2,4,5
 1172 1440 1172 1440 1186 1422 c 0,6,7
 1206 1404 1206 1404 1186 1366 c 2,8,-1
 518 80 l 2,9,10
 509 64 509 64 501 52 c 0,11,12
 462 0 462 0 408 0 c 2,13,-1
 178 -2 l 1,14,15
 145 0 145 0 126 17 c 0,16,17
 97 42 97 42 100 94 c 2,18,-1
 174 1400 l 2,19,20
 176 1443 176 1443 234 1444 c 1,21,-1
 396 1444 l 2,22,23
 416 1444 416 1444 429 1433 c 0,24,25
 444 1421 444 1421 442 1390 c 2,26,-1
 369 302 l 1,0,-1
EndSplineSet
Colour: ff00
EndChar

StartChar: W
Encoding: 87 87 56
Width: 1442
VWidth: 0
Flags: HW
HStem: 0 21G<174.748 420.844 788.952 1028.89> 1428 20G<310.037 529.62 822.119 1043.46 1328.07 1535.62>
VStem: 1304 274<1089.99 1447.73>
LayerCount: 2
Back
SplineSet
1524 1448 m 2
 1344 1448 l 2
 1306 1448 1306 1430 1304 1400 c 0
 1290 1104 1126 476 886 240 c 1
 992 210 l 1
 916 216 902 456 932 830 c 0
 950 1064 1008 1264 1050 1388 c 0
 1064 1426 1054 1448 1024 1448 c 2
 844 1448 l 2
 806 1448 788 1436 774 1396 c 1
 676 1050 622 384 742 40 c 0
 752 12 764 0 792 0 c 2
 930 0 l 1
 1304 160 1578 1074 1578 1398 c 0
 1578 1436 1570 1448 1524 1448 c 2
526 1448 m 2
 330 1448 l 2
 298 1448 284 1436 276 1420 c 0
 94 1040 20 394 138 40 c 0
 148 12 168 0 196 0 c 2
 346 0 l 1
 494 144 670 408 764 626 c 0
 894 926 952 1166 1034 1414 c 1
 732 1232 l 1
 672 936 472 500 284 272 c 1
 364 200 l 1
 226 452 452 1210 542 1370 c 0
 574 1428 552 1448 526 1448 c 2
EndSplineSet
Fore
SplineSet
526 1448 m 2,0,1
 533 1448 533 1448 540 1446 c 0,2,3
 576 1433 576 1433 542 1370 c 0,4,5
 538 1363 538 1363 534 1354 c 0,6,7
 469 1223 469 1223 402 964 c 0,8,9
 297 557 297 557 327 327 c 1,10,11
 430 468 430 468 529 669 c 0,12,13
 681 980 681 980 732 1232 c 1,14,-1
 736 1234 l 1,15,16
 757 1338 757 1338 774 1396 c 0,17,18
 778 1407 778 1407 783 1417 c 0,19,20
 800 1448 800 1448 844 1448 c 2,21,-1
 1024 1448 l 1,22,23
 1063 1443 1063 1443 1050 1388 c 1,24,25
 953 1102 953 1102 932 830 c 0,26,27
 902 443 902 443 935 295 c 1,28,29
 937 297 937 297 939 300 c 0,30,31
 1094 497 1094 497 1207 885 c 0,32,33
 1294 1184 1294 1184 1304 1400 c 0,34,35
 1305 1418 1305 1418 1307 1426 c 0,36,37
 1312 1448 1312 1448 1344 1448 c 2,38,-1
 1524 1448 l 2,39,40
 1547 1448 1547 1448 1560 1443 c 0,41,42
 1578 1435 1578 1435 1578 1398 c 0,43,44
 1578 1278 1578 1278 1534 1084 c 0,45,46
 1455 736 1455 736 1307 443 c 0,47,48
 1127 84 1127 84 930 0 c 1,49,-1
 792 0 l 2,50,51
 786 0 786 0 780 1 c 0,52,53
 755 5 755 5 742 40 c 0,54,55
 688 194 688 194 676 450 c 1,56,57
 661 423 661 423 644 395 c 0,58,59
 495 145 495 145 346 0 c 1,60,-1
 196 0 l 2,61,62
 153 1 153 1 138 40 c 1,63,64
 125 80 125 80 114 126 c 0,65,66
 52 400 52 400 102 783 c 0,67,68
 150 1157 150 1157 276 1420 c 0,69,70
 290 1447 290 1447 330 1448 c 2,71,-1
 526 1448 l 2,0,1
979 214 m 1,72,73
 986 210 986 210 992 210 c 1,74,-1
 979 214 l 1,72,73
EndSplineSet
Colour: ff00
EndChar

StartChar: X
Encoding: 88 88 57
Width: 850
VWidth: 0
Flags: HMW
HStem: 0 21G<-32.8457 187.488 492.533 707.879> 1430 20G<182.742 399.467 756.511 973.436>
DStem2: 448 1382 166 1370 0.208811 -0.977956<-76.4348 384.427> 712 1416 1006 1366 0.502417 0.864625<-1500.14 -1172.22 -291.347 31.1809>
LayerCount: 2
Back
SplineSet
558 746 m 1
 448 1382 l 2
 438 1432 410 1450 366 1450 c 2
 218 1450 l 2
 168 1450 152 1420 166 1370 c 1
 342 554 l 1
 356 856 l 1
 -58 84 l 2
 -88 28 -68 0 -26 0 c 2
 166 0 l 2
 210 0 220 14 232 34 c 1
 516 660 l 1
 558 746 l 1
368 704 m 1
 444 68 l 1
 454 18 482 0 526 0 c 2
 676 0 l 2
 724 0 740 30 726 80 c 1
 550 896 l 1
 580 640 l 1
 1006 1366 l 2
 1030 1408 1034 1450 968 1450 c 2
 778 1450 l 2
 734 1450 724 1436 712 1416 c 1
 420 808 l 1
 368 704 l 1
EndSplineSet
Fore
SplineSet
526 0 m 2,0,1
 452 0 452 0 444 68 c 2,2,-1
 403 411 l 1,3,-1
 232 34 l 2,4,5
 226 21 226 21 212 11 c 0,6,7
 197 0 197 0 166 0 c 2,8,-1
 -26 0 l 2,9,10
 -56 0 -56 0 -67 18 c 0,11,12
 -81 41 -81 41 -58 84 c 2,13,-1
 300 751 l 1,14,-1
 166 1370 l 2,15,16
 158 1406 158 1406 169 1428 c 0,17,18
 179 1450 179 1450 218 1450 c 2,19,-1
 366 1450 l 2,20,21
 433 1450 433 1450 448 1382 c 1,22,-1
 514 1003 l 1,23,-1
 712 1416 l 2,24,25
 718 1428 718 1428 733 1440 c 0,26,27
 746 1450 746 1450 779 1450 c 2,28,-1
 968 1450 l 2,29,30
 1000 1450 1000 1450 1012 1436 c 0,31,32
 1033 1410 1033 1410 1006 1366 c 2,33,-1
 598 671 l 1,34,-1
 726 80 l 2,35,36
 735 40 735 40 721 18 c 0,37,38
 710 0 710 0 676 0 c 2,39,-1
 526 0 l 2,0,1
EndSplineSet
Colour: ff00
EndChar

StartChar: Y
Encoding: 89 89 58
Width: 872
VWidth: 0
Flags: HMW
HStem: 0 21G<191.599 391.893> 1433 20G<229.722 408 429.726 446.74 860.826 1054>
DStem2: 158 62 428 44 0.24584 0.969311<-7.31588 713.209>
LayerCount: 2
Back
SplineSet
328 732 m 1
 158 62 l 2
 150 30 164 0 198 0 c 2
 368 0 l 2
 398 0 420 14 428 44 c 2
 608 752 l 1
 328 732 l 1
484 684 m 1
 538 552 l 1
 698 762 914 1080 1078 1368 c 0
 1102 1410 1082 1438 1054 1440 c 2
 884 1448 l 2
 856 1450 834 1444 824 1422 c 0
 710 1168 568 962 418 738 c 1
 526 710 l 1
 530 924 504 1180 466 1406 c 0
 458 1452 442 1456 408 1454 c 2
 248 1446 l 2
 210 1444 186 1406 204 1358 c 1
 246 1192 298 790 298 612 c 1
 484 684 l 1
EndSplineSet
Fore
SplineSet
523 895 m 1,0,1
 720 1194 720 1194 824 1422 c 0,2,3
 838 1450 838 1450 884 1448 c 2,4,-1
 1054 1440 l 2,5,6
 1066 1439 1066 1439 1076 1432 c 0,7,8
 1103 1411 1103 1411 1078 1368 c 0,9,10
 1064 1344 1064 1344 1049 1319 c 0,11,12
 827 939 827 939 567 590 c 1,13,-1
 428 44 l 1,14,15
 416 1 416 1 368 0 c 1,16,-1
 198 0 l 2,17,18
 185 0 185 0 175 6 c 0,19,20
 149 23 149 23 158 62 c 2,21,-1
 298 614 l 1,22,23
 298 704 298 704 282 862 c 0,24,25
 249 1183 249 1183 204 1358 c 1,26,27
 194 1385 194 1385 201 1409 c 0,28,29
 212 1444 212 1444 248 1446 c 2,30,-1
 408 1454 l 2,31,32
 425 1455 425 1455 435 1453 c 0,33,34
 459 1448 459 1448 466 1406 c 0,35,36
 511 1141 511 1141 523 895 c 1,0,1
EndSplineSet
Colour: ff00
EndChar

StartChar: Z
Encoding: 90 90 61
Width: 946
VWidth: 0
Flags: HMW
HStem: 0 238<341 713.062> 1210 238<286 654 937 1010.18>
DStem2: -38 95 341 238 0.527325 0.849664<321.358 1312.28>
LayerCount: 2
Back
SplineSet
312 1448 m 2
 294 1448 288 1444 280 1408 c 2
 248 1282 l 2
 234 1230 246 1210 286 1210 c 2
 946 1210 l 2
 976 1210 1008 1236 1014 1266 c 2
 1040 1384 l 2
 1050 1428 1032 1448 994 1448 c 2
 312 1448 l 2
208 238 m 1
 -40 94 l 1
 -54 42 -50 0 22 0 c 2
 650 0 l 2
 680 0 712 26 718 56 c 2
 744 174 l 2
 754 218 736 238 698 238 c 2
 208 238 l 1
772 1400 m 1
 -40 92 l 1
 220 40 l 1
 1042 1382 l 1
 1050 1414 1036 1444 1002 1444 c 2
 832 1444 l 2
 802 1444 780 1430 772 1400 c 1
EndSplineSet
Fore
SplineSet
312 1448 m 2,0,1
 994 1448 l 2,2,3
 1033 1448 1033 1448 1042 1416 c 0,4,5
 1046 1401 1046 1401 1042 1382 c 1,6,-1
 1038 1376 l 1,7,-1
 1014 1266 l 2,8,9
 1011 1254 1011 1254 1003 1242 c 0,10,11
 980 1210 980 1210 946 1210 c 2,12,-1
 937 1210 l 1,13,-1
 341 238 l 1,14,-1
 698 238 l 2,15,16
 757 238 757 238 744 174 c 1,17,-1
 718 56 l 2,18,19
 715 44 715 44 707 32 c 0,20,21
 684 0 684 0 650 0 c 2,22,-1
 22 0 l 2,23,24
 -30 0 -30 0 -44 34 c 0,25,26
 -57 65 -57 65 -38 95 c 2,27,-1
 654 1210 l 1,28,-1
 286 1210 l 2,29,30
 279 1210 279 1210 271 1211 c 0,31,32
 232 1218 232 1218 248 1282 c 2,33,-1
 280 1408 l 2,34,35
 285 1427 285 1427 287 1433 c 0,36,37
 293 1448 293 1448 312 1448 c 2,0,1
EndSplineSet
Colour: ff00
EndChar

StartChar: a
Encoding: 97 97 63
Width: 846
VWidth: 0
Flags: HW
HStem: -6 21G<169.227 222.901> 867 209<454.308 580.774>
VStem: 9 268<182.242 495.071>
DStem2: 572 824 860 1020 0.28675 0.958005<-418.905 31.6077 203.638 255.934>
LayerCount: 2
Back
SplineSet
356 214 m 1
 440 18 l 1
 572 56 l 1
 860 1020 l 2
 872 1064 852 1086 804 1086 c 2
 676 1084 l 2
 640 1084 632 1056 626 1030 c 2
 588 870 l 1
 572 824 l 1
 526 668 458 518 400 418 c 0
 356 344 314 298 294 298 c 0
 276 298 274 308 284 358 c 0
 312 510 418 814 476 858 c 0
 506 880 600 854 620 836 c 1
 656 994 l 1
 616 1034 540 1076 460 1076 c 0
 410 1076 350 1062 300 1024 c 0
 186 938 38 542 10 254 c 0
 2 176 34 112 86 60 c 0
 112 34 152 -6 186 -6 c 2
 200 -6 l 2
 248 -6 288 30 366 124 c 2
 528 318 l 1
 356 214 l 1
388 138 m 1
 440 12 l 2
 448 -4 458 -12 476 -10 c 0
 622 6 752 128 836 250 c 0
 846 264 842 282 822 296 c 2
 734 354 l 2
 712 368 696 360 684 340 c 0
 642 270 518 166 388 138 c 1
EndSplineSet
Fore
SplineSet
388 138 m 1,0,-1
 389 138 l 1,1,-1
 385 147 l 1,2,-1
 366 124 l 2,3,4
 330 81 330 81 304 53 c 0,5,6
 246 -6 246 -6 200 -6 c 2,7,-1
 186 -6 l 1,8,9
 152 -4 152 -4 86 60 c 1,10,11
 9 136 9 136 9 228 c 0,12,13
 9 406 9 406 133 739 c 0,14,15
 214 959 214 959 300 1024 c 0,16,17
 368 1075 368 1075 460 1076 c 1,18,19
 546 1076 546 1076 624 1021 c 1,20,-1
 628 1038 l 2,21,22
 634 1062 634 1062 641 1070 c 0,23,24
 656 1086 656 1086 676 1086 c 2,25,-1
 804 1086 l 2,26,27
 875 1086 875 1086 860 1020 c 1,28,-1
 640 285 l 1,29,30
 668 313 668 313 684 340 c 0,31,32
 704 372 704 372 734 354 c 1,33,-1
 822 296 l 1,34,35
 851 274 851 274 836 250 c 1,36,37
 809 211 809 211 779 176 c 0,38,39
 629 3 629 3 476 -10 c 0,40,41
 453 -12 453 -12 440 12 c 1,42,-1
 388 138 l 1,0,-1
582 854 m 1,43,44
 578 855 578 855 574 857 c 0,45,46
 537 868 537 868 512 867 c 0,47,48
 489 867 489 867 476 858 c 0,49,50
 441 831 441 831 385 690 c 0,51,52
 313 509 313 509 284 358 c 0,53,54
 278 324 278 324 277 313 c 0,55,56
 277 298 277 298 289 298 c 0,57,58
 296 298 296 298 302 300 c 0,59,60
 339 317 339 317 400 418 c 1,61,62
 506 601 506 601 572 824 c 1,63,-1
 582 854 l 1,43,44
EndSplineSet
Colour: ff00
EndChar

StartChar: acute
Encoding: 180 180 66
Width: 678
VWidth: 0
Flags: HW
HStem: 1150 298<265.531 333.75>
LayerCount: 2
Back
SplineSet
526 1448 m 2
 334 1448 l 2
 306 1448 288 1438 272 1414 c 2
 134 1184 l 2
 124 1168 126 1150 154 1150 c 2
 252 1150 l 2
 280 1150 300 1158 320 1178 c 2
 540 1398 l 2
 570 1428 552 1448 526 1448 c 2
EndSplineSet
Fore
SplineSet
526 1448 m 2,0,1
 538 1448 538 1448 547 1442 c 0,2,3
 569 1427 569 1427 540 1398 c 2,4,-1
 320 1178 l 2,5,6
 292 1151 292 1151 252 1150 c 2,7,-1
 154 1150 l 2,8,9
 146 1150 146 1150 140 1152 c 0,10,11
 119 1160 119 1160 134 1184 c 2,12,-1
 272 1414 l 1,13,14
 294 1447 294 1447 334 1448 c 1,15,-1
 526 1448 l 2,0,1
EndSplineSet
EndChar

StartChar: ae
Encoding: 230 230 68
Width: 990
VWidth: 0
Flags: HW
VStem: -30 216<174.098 361.952> 788 216<676.418 875.902>
DStem2: 357 464 560 322 0.246999 0.969016<-172.424 -72.1832 220.688 341.478>
LayerCount: 2
Back
SplineSet
428 686 m 1
 200 620 -30 412 -30 198 c 0
 -30 110 12 34 110 -8 c 0
 208 -50 314 -4 384 96 c 0
 494 254 682 750 646 924 c 0
 622 1038 482 1074 428 1088 c 1
 360 1100 134 908 90 822 c 0
 84 810 92 788 108 778 c 2
 206 718 l 2
 218 710 236 712 246 722 c 0
 278 756 344 828 380 836 c 1
 416 824 434 808 414 714 c 0
 368 490 334 362 294 260 c 0
 282 228 234 172 212 172 c 0
 192 172 186 184 186 226 c 0
 186 340 272 430 380 474 c 1
 428 686 l 1
552 334 m 1
 780 400 1004 638 1004 852 c 0
 1004 940 962 1016 864 1058 c 0
 766 1100 668 1058 588 956 c 0
 468 804 292 300 328 126 c 0
 352 12 492 -24 546 -38 c 1
 614 -50 840 142 884 228 c 0
 890 240 882 262 866 272 c 2
 768 332 l 2
 756 340 738 338 728 328 c 0
 696 294 630 222 594 214 c 1
 558 226 540 228 560 322 c 0
 606 546 640 674 680 776 c 0
 692 808 740 878 762 878 c 0
 782 878 788 866 788 824 c 0
 788 710 708 590 600 546 c 1
 552 334 l 1
EndSplineSet
Fore
SplineSet
611 551 m 1,0,1
 667 578 667 578 712 629 c 0,2,3
 788 719 788 719 788 824 c 0,4,5
 788 842 788 842 786 854 c 0,6,7
 782 878 782 878 762 878 c 0,8,9
 751 878 751 878 732 857 c 0,10,11
 695 817 695 817 680 776 c 0,12,13
 643 683 643 683 611 551 c 1,0,1
563 337 m 1,14,15
 560 322 l 2,16,17
 546 256 546 256 558 234 c 0,18,19
 564 224 564 224 594 214 c 1,20,21
 596 215 596 215 600 216 c 0,22,23
 634 229 634 229 728 328 c 0,24,25
 729 329 729 329 731 331 c 0,26,27
 749 344 749 344 768 332 c 2,28,-1
 866 272 l 2,29,30
 870 269 870 269 875 265 c 0,31,32
 893 245 893 245 884 228 c 0,33,34
 880 220 880 220 873 210 c 0,35,36
 825 139 825 139 716 52 c 0,37,38
 592 -46 592 -46 546 -38 c 1,39,40
 410 -2 410 -2 358 63 c 1,41,42
 335 37 335 37 307 18 c 0,43,44
 209 -50 209 -50 110 -8 c 0,45,46
 108 -7 108 -7 104 -6 c 0,47,48
 -30 55 -30 55 -30 198 c 1,49,50
 -26 348 -26 348 113 497 c 1,51,52
 239 624 239 624 407 679 c 1,53,-1
 414 714 l 2,54,55
 427 774 427 774 419 801 c 0,56,57
 412 825 412 825 380 836 c 1,58,59
 378 835 378 835 374 834 c 0,60,61
 340 821 340 821 246 722 c 0,62,63
 245 721 245 721 243 719 c 0,64,65
 225 706 225 706 206 718 c 2,66,-1
 108 778 l 2,67,68
 104 781 104 781 99 785 c 0,69,70
 81 805 81 805 90 822 c 0,71,72
 94 830 94 830 101 840 c 0,73,74
 149 911 149 911 258 998 c 0,75,76
 382 1096 382 1096 428 1088 c 1,77,78
 564 1052 564 1052 616 988 c 1,79,80
 622 994 622 994 629 1001 c 0,81,82
 743 1110 743 1110 864 1058 c 0,83,84
 866 1057 866 1057 870 1056 c 0,85,86
 1004 995 1004 995 1004 852 c 0,87,88
 1004 829 1004 829 1000 805 c 0,89,90
 978 658 978 658 847 520 c 0,91,92
 720 386 720 386 563 337 c 1,14,15
357 464 m 1,93,94
 323 448 323 448 294 426 c 0,95,96
 186 344 186 344 186 226 c 0,97,98
 186 208 186 208 188 196 c 0,99,100
 192 172 192 172 212 172 c 0,101,102
 223 173 223 173 242 189 c 0,103,104
 280 224 280 224 294 260 c 0,105,106
 327 344 327 344 357 464 c 1,93,94
EndSplineSet
EndChar

StartChar: ampersand
Encoding: 38 38 70
Width: 1238
VWidth: 0
Flags: HMW
HStem: -24 214<321.524 513.402> 672 192<778 803 1033 1168.57> 1180 170<615.822 764.844>
VStem: 31 275<205.095 423.477> 250 274<759.404 1091.04>
DStem2: 844 278 640 65 0.622139 -0.782907<39.8429 238.017>
LayerCount: 2
Back
SplineSet
816 728 m 1
 794 606 728 474 668 392 c 0
 586 280 482 190 404 190 c 0
 326 190 306 256 306 302 c 0
 306 414 414 512 524 526 c 1
 380 716 l 1
 240 640 66 548 36 328 c 1
 8 138 112 8 302 -20 c 1
 584 -58 770 150 898 360 c 0
 936 422 1002 556 1036 684 c 1
 816 728 l 1
1044 -88 m 0
 1086 -76 1086 -44 1070 -24 c 0
 872 212 634 590 590 700 c 0
 542 820 524 896 524 958 c 0
 524 1096 650 1180 716 1180 c 1
 726 1182 754 1190 764 1220 c 2
 790 1300 l 2
 792 1312 794 1342 762 1346 c 0
 496 1384 280 1168 250 952 c 0
 232 830 270 736 326 596 c 0
 366 496 562 130 766 -88 c 1
 864 -134 1004 -100 1044 -88 c 0
814 864 m 2
 796 864 790 860 784 840 c 2
 752 728 l 2
 742 690 728 672 776 672 c 2
 1130 672 l 2
 1156 672 1164 702 1172 728 c 2
 1200 820 l 1
 1214 856 1196 864 1182 864 c 2
 814 864 l 2
EndSplineSet
Fore
SplineSet
814 864 m 2,0,1
 1182 864 l 1,2,3
 1213 861 1213 861 1200 820 c 2,4,-1
 1172 728 l 2,5,6
 1169 718 1169 718 1168 714 c 0,7,8
 1154 672 1154 672 1130 672 c 2,9,-1
 1033 672 l 1,10,11
 1026 649 1026 649 1018 623 c 0,12,13
 968 473 968 473 898 360 c 0,14,15
 875 322 875 322 844 278 c 1,16,17
 970 95 970 95 1070 -24 c 0,18,19
 1076 -32 1076 -32 1079 -43 c 0,20,21
 1086 -76 1086 -76 1044 -88 c 0,22,23
 1035 -91 1035 -91 1023 -94 c 0,24,25
 863 -134 863 -134 766 -88 c 1,26,27
 707 -25 707 -25 640 65 c 1,28,29
 512 -24 512 -24 367 -24 c 0,30,31
 335 -24 335 -24 302 -20 c 1,32,33
 192 -4 192 -4 122 56 c 0,34,35
 31 135 31 135 31 265 c 0,36,37
 31 295 31 295 36 328 c 0,38,39
 47 411 47 411 88 480 c 0,40,41
 149 582 149 582 297 670 c 1,42,43
 288 694 288 694 281 714 c 0,44,45
 235 846 235 846 250 952 c 0,46,47
 255 987 255 987 267 1024 c 0,48,49
 314 1165 314 1165 434 1257 c 0,50,51
 556 1350 556 1350 699 1350 c 0,52,53
 730 1350 730 1350 762 1346 c 0,54,55
 763 1346 763 1346 764 1346 c 0,56,57
 791 1342 791 1342 791 1313 c 0,58,59
 791 1307 791 1307 790 1300 c 1,60,-1
 764 1220 l 1,61,62
 753 1189 753 1189 716 1180 c 1,63,64
 666 1179 666 1179 610 1133 c 0,65,66
 524 1062 524 1062 524 958 c 0,67,68
 524 865 524 865 590 700 c 0,69,70
 617 632 617 632 718 470 c 1,71,72
 774 568 774 568 803 672 c 1,73,-1
 776 672 l 2,74,75
 745 672 745 672 742 687 c 0,76,77
 742 690 742 690 752 728 c 2,78,-1
 784 840 l 2,79,80
 785 844 785 844 787 849 c 0,81,82
 794 864 794 864 814 864 c 2,0,1
390 465 m 1,83,84
 307 393 307 393 306 302 c 0,85,86
 306 284 306 284 310 266 c 0,87,88
 328 190 328 190 404 190 c 0,89,90
 454 190 454 190 521 239 c 1,91,92
 460 336 460 336 390 465 c 1,83,84
EndSplineSet
EndChar

StartChar: aogonek
Encoding: 261 261 71
Width: 838
VWidth: 0
Flags: HW
HStem: -400 21G<304.652 363.5> -10 322<105.611 300.274> 1066 20G<666 829.779>
VStem: 148 200<-236.489 -87.5267>
DStem2: 362 72 580 56 0.246999 0.969016<4.40263 106.003 981.84 1054.56>
LayerCount: 2
Back
SplineSet
412 250 m 1
 362 72 l 2
 350 28 366 0 408 0 c 2
 490 0 l 2
 554 0 566 10 580 56 c 2
 850 1020 l 2
 862 1064 842 1086 794 1086 c 2
 666 1084 l 2
 630 1084 622 1056 616 1030 c 2
 578 870 l 1
 562 824 l 1
 488 630 342 312 286 312 c 0
 264 312 262 322 268 360 c 0
 294 502 402 794 460 838 c 0
 502 870 574 828 604 786 c 1
 646 994 l 1
 606 1034 530 1076 450 1076 c 0
 400 1076 356 1062 306 1024 c 0
 192 938 44 542 16 254 c 0
 4 136 -4 -10 150 -10 c 0
 204 -10 260 16 314 82 c 2
 514 322 l 1
 412 250 l 1
496 104 m 1
 382 76 148 -30 148 -232 c 0
 148 -284 172 -330 204 -356 c 0
 242 -388 286 -400 352 -400 c 0
 450 -400 506 -372 522 -366 c 0
 546 -356 556 -344 548 -322 c 2
 528 -252 l 2
 520 -230 504 -224 488 -228 c 0
 462 -236 450 -242 420 -244 c 0
 382 -246 348 -228 348 -186 c 0
 348 -122 404 -44 550 4 c 0
 574 12 570 38 550 56 c 2
 496 104 l 1
EndSplineSet
Fore
SplineSet
562 825 m 1,0,1
 500 865 500 865 460 838 c 1,2,3
 424 810 424 810 367 672 c 0,4,5
 293 493 293 493 268 360 c 0,6,7
 265 339 265 339 265 328 c 0,8,9
 266 312 266 312 286 312 c 0,10,11
 315 312 315 312 376 419 c 0,12,13
 469 580 469 580 562 824 c 1,14,-1
 562 825 l 1,0,1
614 1021 m 1,15,16
 616 1030 l 2,17,18
 618 1037 618 1037 619 1043 c 0,19,20
 631 1084 631 1084 666 1084 c 2,21,-1
 794 1086 l 1,22,23
 866 1085 866 1085 850 1020 c 1,24,-1
 580 56 l 2,25,26
 575 39 575 39 566 24 c 1,27,28
 565 11 565 11 550 4 c 1,29,30
 489 -16 489 -16 444 -45 c 0,31,32
 348 -107 348 -107 348 -186 c 0,33,34
 348 -198 348 -198 352 -209 c 0,35,36
 367 -247 367 -247 420 -244 c 0,37,38
 440 -243 440 -243 488 -228 c 1,39,40
 516 -222 516 -222 528 -252 c 1,41,-1
 548 -322 l 1,42,43
 557 -350 557 -350 522 -366 c 1,44,-1
 511 -370 l 2,45,46
 500 -374 500 -374 492.5 -377 c 128,-1,47
 485 -380 485 -380 468 -385 c 128,-1,48
 451 -390 451 -390 435.5 -393 c 128,-1,49
 420 -396 420 -396 397.5 -398 c 128,-1,50
 375 -400 375 -400 352 -400 c 0,51,52
 257 -400 257 -400 204 -356 c 0,53,54
 201 -354 201 -354 198 -351 c 0,55,56
 148 -305 148 -305 148 -232 c 0,57,58
 148 -195 148 -195 159 -159 c 0,59,60
 198 -33 198 -33 358 51 c 1,61,62
 358 58 358 58 362 72 c 2,63,-1
 391 174 l 1,64,-1
 314 82 l 2,65,66
 238 -9 238 -9 150 -10 c 1,67,68
 61 -9 61 -9 28 58 c 1,69,70
 1 115 1 115 16 254 c 0,71,72
 16 257 16 257 17 262 c 0,73,74
 42 491 42 491 139 739 c 0,75,76
 227 963 227 963 306 1024 c 0,77,78
 374 1075 374 1075 450 1076 c 1,79,80
 536 1076 536 1076 614 1021 c 1,15,16
EndSplineSet
EndChar

StartChar: asciicircum
Encoding: 94 94 73
Width: 924
VWidth: 0
Flags: HW
LayerCount: 2
Back
SplineSet
618 1238 m 2
 578 462 l 2
 578 436 596 426 630 426 c 2
 782 426 l 2
 812 426 840 436 840 460 c 2
 858 1194 l 2
 860 1246 822 1272 786 1272 c 2
 672 1272 l 2
 642 1272 618 1262 618 1238 c 2
676 1236 m 1
 690 1272 l 1
 554 1272 l 2
 510 1272 452 1244 418 1184 c 2
 -16 462 l 1
 -16 436 2 426 36 426 c 2
 196 426 l 2
 226 426 254 436 254 460 c 1
 676 1236 l 1
EndSplineSet
Fore
SplineSet
672 1272 m 1,0,-1
 690 1272 l 1,1,-1
 786 1272 l 2,2,3
 800 1272 800 1272 815 1266 c 0,4,5
 860 1247 860 1247 858 1194 c 2,6,-1
 840 460 l 1,7,8
 835 431 835 431 782 426 c 1,9,-1
 630 426 l 2,10,11
 580 427 580 427 578 462 c 1,12,-1
 612 1118 l 1,13,-1
 254 460 l 1,14,15
 249 431 249 431 196 426 c 1,16,-1
 36 426 l 2,17,18
 -14 427 -14 427 -16 462 c 1,19,-1
 418 1184 l 2,20,21
 429 1203 429 1203 445 1220 c 0,22,23
 494 1272 494 1272 554 1272 c 2,24,-1
 672 1272 l 1,0,-1
EndSplineSet
EndChar

StartChar: asciitilde
Encoding: 126 126 74
Width: 0
VWidth: 0
Flags: HW
LayerCount: 2
Back
SplineSet
108 738 m 2
 94 686 108 654 146 666 c 0
 254 700 366 706 464 666 c 0
 568 624 684 648 760 670 c 0
 794 680 806 692 812 716 c 2
 840 840 l 2
 850 884 830 914 794 904 c 0
 686 876 590 870 480 904 c 0
 382 934 240 926 170 896 c 0
 154 888 144 880 138 856 c 2
 108 738 l 2
EndSplineSet
Fore
SplineSet
108 738 m 2,0,1
 138 856 l 2,2,3
 138 857 138 857 139 859 c 0,4,5
 146 883 146 883 170 896 c 1,6,7
 202 909 202 909 250 917 c 0,8,9
 377 936 377 936 480 904 c 0,10,11
 487 902 487 902 495 900 c 0,12,13
 631 862 631 862 794 904 c 0,14,15
 811 908 811 908 824 902 c 0,16,17
 851 887 851 887 840 840 c 2,18,-1
 812 716 l 2,19,20
 811 712 811 712 809 707 c 0,21,22
 799 682 799 682 760 670 c 0,23,24
 582 619 582 619 464 666 c 0,25,26
 326 722 326 722 146 666 c 0,27,28
 131 661 131 661 121 665 c 0,29,30
 91 677 91 677 108 738 c 2,0,1
EndSplineSet
EndChar

StartChar: asterisk
Encoding: 42 42 75
Width: 870
VWidth: 0
Flags: HW
LayerCount: 2
Back
SplineSet
342 1064 m 1
 128 898 l 2
 94 872 102 844 122 820 c 2
 192 742 l 2
 210 720 246 714 272 752 c 2
 438 976 l 1
 506 742 l 2
 518 702 550 702 578 718 c 2
 680 780 l 2
 710 798 714 830 698 852 c 2
 552 1060 l 1
 818 1092 l 2
 858 1098 868 1126 868 1156 c 2
 868 1240 l 2
 868 1280 840 1312 800 1296 c 2
 550 1202 l 1
 646 1418 l 2
 666 1462 626 1484 596 1484 c 2
 490 1484 l 2
 454 1484 422 1468 416 1434 c 1
 406 1204 l 1
 186 1302 l 2
 160 1314 132 1290 126 1264 c 2
 94 1150 l 2
 84 1116 98 1082 128 1080 c 2
 342 1064 l 1
EndSplineSet
Fore
SplineSet
342 1064 m 1,0,-1
 128 1080 l 2,1,2
 116 1081 116 1081 106 1089 c 0,3,4
 82 1110 82 1110 94 1150 c 2,5,-1
 126 1264 l 2,6,7
 129 1275 129 1275 137 1286 c 0,8,9
 159 1315 159 1315 186 1302 c 2,10,-1
 406 1204 l 1,11,-1
 416 1434 l 2,12,13
 417 1439 417 1439 419 1444 c 0,14,15
 434 1484 434 1484 490 1484 c 2,16,-1
 596 1484 l 2,17,18
 611 1484 611 1484 625 1477 c 0,19,20
 664 1458 664 1458 646 1418 c 2,21,-1
 550 1202 l 1,22,-1
 800 1296 l 2,23,24
 820 1304 820 1304 838 1296 c 0,25,26
 868 1282 868 1282 868 1240 c 2,27,-1
 868 1156 l 2,28,29
 867 1101 867 1101 818 1092 c 1,30,-1
 552 1060 l 1,31,-1
 698 852 l 2,32,33
 703 845 703 845 706 835 c 0,34,35
 714 801 714 801 680 780 c 2,36,-1
 578 718 l 2,37,38
 573 715 573 715 566 712 c 0,39,40
 520 694 520 694 506 742 c 2,41,-1
 438 976 l 1,42,-1
 272 752 l 2,43,44
 260 736 260 736 244 728 c 0,45,46
 214 715 214 715 192 742 c 1,47,-1
 122 820 l 1,48,49
 86 864 86 864 128 898 c 2,50,-1
 342 1064 l 1,0,-1
EndSplineSet
EndChar

StartChar: at
Encoding: 64 64 76
Width: 1888
VWidth: 0
Flags: HMW
HStem: -354 186<682.511 925.86> 14 226<1168.84 1328.25> 20 234<767.878 888.472> 747 253<933.547 1066.19> 1220 180<808.52 1271.71>
VStem: 109 257<152.838 697.9> 559 225<256.617 536.997> 1511 233<516.378 989.406>
LayerCount: 2
Back
SplineSet
1000 164 m 1
 958 182 l 1
 1004 64 1068 14 1206 14 c 0
 1386 14 1626 192 1712 542 c 1
 1840 1046 1578 1400 1026 1400 c 0
 654 1400 288 1164 150 702 c 1
 12 220 234 -354 804 -354 c 0
 860 -354 886 -352 918 -318 c 2
 964 -268 l 2
 1030 -194 970 -170 904 -168 c 0
 346 -144 324 372 398 656 c 1
 488 992 728 1220 1028 1220 c 0
 1428 1220 1572 944 1486 588 c 0
 1416 298 1286 240 1214 240 c 0
 1178 240 1156 272 1174 338 c 2
 1338 946 l 2
 1348 990 1330 1010 1284 1010 c 2
 1170 1008 l 2
 1134 1008 1126 982 1120 956 c 0
 1078 778 1048 566 966 418 c 0
 920 334 868 254 830 254 c 0
 792 254 784 306 784 342 c 0
 784 480 892 694 948 736 c 0
 988 766 1064 726 1094 686 c 1
 1150 922 l 1
 1124 934 1038 1000 960 1000 c 0
 912 1000 870 988 822 950 c 0
 682 844 468 414 600 140 c 0
 638 58 720 20 782 20 c 0
 886 20 972 102 1000 164 c 1
EndSplineSet
Fore
SplineSet
1117 941 m 1,0,1
 1120 956 l 2,2,3
 1121 960 1121 960 1123 968 c 0,4,5
 1134 1008 1134 1008 1170 1008 c 2,6,-1
 1284 1008 l 2,7,8
 1355 1008 1355 1008 1338 946 c 2,9,-1
 1174 338 l 2,10,11
 1166 308 1166 308 1168 284 c 0,12,13
 1173 240 1173 240 1214 240 c 0,14,15
 1250 240 1250 240 1288 258 c 0,16,17
 1432 330 1432 330 1492 615 c 0,18,19
 1510 703 1510 703 1511 780 c 0,20,21
 1511 934 1511 934 1436 1043 c 0,22,23
 1314 1220 1314 1220 1028 1220 c 0,24,25
 816 1220 816 1220 649 1077 c 0,26,27
 467 921 467 921 398 656 c 0,28,29
 367 535 367 535 366 409 c 0,30,31
 366 242 366 242 430 110 c 0,32,33
 558 -157 558 -157 904 -168 c 0,34,35
 931 -169 931 -169 952 -175 c 0,36,37
 1028 -196 1028 -196 964 -268 c 1,38,-1
 918 -318 l 2,39,40
 907 -330 907 -330 893 -339 c 0,41,42
 868 -354 868 -354 804 -354 c 0,43,44
 558 -354 558 -354 383 -216 c 0,45,46
 202 -72 202 -72 138 185 c 0,47,48
 109 302 109 302 109 420 c 0,49,50
 109 578 109 578 160 733 c 0,51,52
 267 1058 267 1058 518 1238 c 0,53,54
 746 1400 746 1400 1026 1400 c 0,55,56
 1153 1400 1153 1400 1262 1375 c 0,57,58
 1542 1311 1542 1311 1665 1099 c 0,59,60
 1745 961 1745 961 1744 783 c 0,61,62
 1744 670 1744 670 1712 542 c 0,63,64
 1644 271 1644 271 1466 122 c 0,65,66
 1337 14 1337 14 1206 14 c 0,67,68
 1160 14 1160 14 1125 22 c 0,69,70
 1031 42 1031 42 981 132 c 1,71,72
 970 117 970 117 957 102 c 0,73,74
 880 20 880 20 782 20 c 0,75,76
 754 20 754 20 723 30 c 0,77,78
 637 59 637 59 600 140 c 1,79,80
 559 237 559 237 559 342 c 0,81,82
 559 531 559 531 667 742 c 0,83,84
 743 890 743 890 822 950 c 1,85,86
 894 1000 894 1000 960 1000 c 3,87,88
 1032 1000 1032 1000 1117 941 c 1,0,1
1067 713 m 1,89,90
 1057 720 1057 720 1046 727 c 0,91,92
 1011 747 1011 747 984 747 c 0,93,94
 964 747 964 747 948 736 c 0,95,96
 910 707 910 707 860 607 c 0,97,98
 784 454 784 454 784 342 c 1,99,100
 786 259 786 259 830 254 c 1,101,102
 884 255 884 255 944 352 c 0,103,104
 1014 465 1014 465 1067 713 c 1,89,90
EndSplineSet
Colour: ff00
EndChar

StartChar: b
Encoding: 98 98 78
Width: 862
VWidth: 0
Flags: HW
HStem: -8 208<285.638 411.692> 1498 20G<370.107 586.626>
VStem: 588 268<567.829 881>
DStem2: -26 64 240 44 0.246999 0.969016<-10.2772 50.4445 221.922 592.297 920.43 1511.83>
LayerCount: 2
Back
SplineSet
244 58 m 1
 278 198 l 1
 294 244 l 1
 340 400 408 550 466 650 c 0
 510 724 552 770 572 770 c 0
 590 770 592 760 582 710 c 0
 554 558 448 254 390 210 c 0
 360 188 266 214 246 232 c 1
 210 74 l 1
 250 34 326 -8 406 -8 c 0
 456 -8 516 6 566 44 c 0
 680 130 828 526 856 814 c 0
 864 892 832 956 780 1008 c 0
 754 1034 714 1074 680 1074 c 2
 666 1074 l 2
 618 1074 578 1038 500 944 c 2
 338 750 l 1
 244 58 l 1
604 1472 m 2
 612 1504 594 1518 560 1518 c 2
 394 1518 l 2
 364 1518 342 1504 334 1474 c 2
 -26 64 l 2
 -34 30 -20 0 26 0 c 2
 180 0 l 2
 210 0 232 14 240 44 c 2
 604 1472 l 2
EndSplineSet
Fore
SplineSet
604 1472 m 1,0,1
 456 891 l 1,2,-1
 500 944 l 2,3,4
 537 989 537 989 562 1015 c 0,5,6
 620 1074 620 1074 666 1074 c 2,7,-1
 680 1074 l 1,8,9
 714 1072 714 1072 780 1008 c 1,10,11
 856 929 856 929 856 833 c 0,12,13
 856 657 856 657 733 329 c 0,14,15
 651 109 651 109 566 44 c 0,16,17
 498 -7 498 -7 406 -8 c 1,18,19
 320 -8 320 -8 241 48 c 1,20,-1
 240 44 l 1,21,22
 228 1 228 1 180 0 c 1,23,-1
 26 0 l 2,24,25
 4 0 4 0 -10 10 c 0,26,27
 -35 26 -35 26 -26 64 c 2,28,-1
 334 1474 l 1,29,30
 346 1517 346 1517 394 1518 c 1,31,-1
 560 1518 l 2,32,33
 613 1518 613 1518 604 1472 c 1,0,1
284 214 m 1,34,35
 326 200 326 200 354 200 c 0,36,37
 377 200 377 200 390 210 c 0,38,39
 425 237 425 237 481 378 c 0,40,41
 543 535 543 535 582 710 c 0,42,43
 587 734 587 734 588 755 c 0,44,45
 588 769 588 769 575 770 c 0,46,47
 567 770 567 770 564 768 c 0,48,49
 527 751 527 751 466 650 c 0,50,51
 360 467 360 467 294 244 c 1,52,-1
 284 214 l 1,34,35
EndSplineSet
Colour: ff00
EndChar

StartChar: backslash
Encoding: 92 92 79
Width: 690
VWidth: 0
Flags: HW
HStem: 0 21G<302.865 513.584> 1500 20G<176.863 387>
VStem: 152 386
DStem2: 538 60 151.788 1444.44 0.0841072 -0.996457<-1467.56 40.2578>
LayerCount: 2
Back
SplineSet
152 1442 m 2
 272 62 l 2
 276 22 292 0 326 0 c 2
 484 0 l 2
 526 0 542 22 538 60 c 2
 420 1458 l 2
 418 1490 406 1520 360 1520 c 2
 208 1520 l 2
 178 1520 146 1506 152 1442 c 2
EndSplineSet
Fore
SplineSet
152 1442 m 2,0,1
 152 1443 152 1443 152 1444 c 0,2,3
 146 1520 146 1520 208 1520 c 2,4,-1
 360 1520 l 1,5,6
 414 1519 414 1519 420 1458 c 2,7,8
 538 60 l 2,9,10
 543 2 543 2 484 0 c 1,11,-1
 326 0 l 2,12,13
 280 1 280 1 272 62 c 1,14,-1
 152 1442 l 2,0,1
EndSplineSet
EndChar

StartChar: bar
Encoding: 124 124 80
Width: 478
VWidth: 0
Flags: HW
HStem: -400 21G<-102.471 65.8936> 1498 20G<352.107 552.529>
DStem2: -148 -336 102 -356 0.246999 0.969016<-14.1337 1924.21>
LayerCount: 2
Back
SplineSet
570 1472 m 2
 578 1504 560 1518 526 1518 c 2
 376 1518 l 2
 346 1518 324 1504 316 1474 c 2
 -148 -336 l 2
 -156 -370 -142 -400 -96 -400 c 2
 42 -400 l 2
 72 -400 94 -386 102 -356 c 2
 570 1472 l 2
EndSplineSet
Fore
SplineSet
570 1472 m 1,0,1
 102 -356 l 1,2,3
 90 -399 90 -399 42 -400 c 1,4,-1
 -96 -400 l 2,5,6
 -109 -400 -109 -400 -120 -397 c 0,7,8
 -159 -384 -159 -384 -148 -336 c 2,9,-1
 316 1474 l 1,10,11
 328 1517 328 1517 376 1518 c 1,12,-1
 526 1518 l 2,13,14
 579 1517 579 1517 570 1472 c 1,0,1
EndSplineSet
EndChar

StartChar: braceleft
Encoding: 123 123 81
Width: 644
VWidth: 0
Flags: HW
HStem: -324 238<207.533 489.062> 1494 238<579.413 935.062>
LayerCount: 2
Back
SplineSet
414 -324 m 1
 426 -324 l 2
 456 -324 488 -298 494 -268 c 2
 520 -150 l 2
 530 -106 512 -86 474 -86 c 2
 294 -86 l 2
 206 -86 180 -54 236 76 c 0
 290 198 390 338 416 456 c 0
 438 550 352 662 290 712 c 1
 374 744 444 762 508 854 c 0
 564 934 548 1098 532 1234 c 0
 508 1430 584 1494 716 1494 c 2
 874 1494 l 2
 902 1494 934 1520 940 1550 c 2
 966 1668 l 2
 976 1712 958 1732 920 1732 c 2
 680 1732 l 1
 356 1728 276 1518 302 1224 c 0
 314 1098 342 948 202 912 c 2
 122 892 l 2
 90 884 58 864 50 832 c 2
 14 682 l 2
 4 640 18 616 48 604 c 2
 94 586 l 2
 314 500 -104 124 -54 -112 c 1
 -38 -236 66 -328 186 -328 c 1
 414 -324 l 1
EndSplineSet
Fore
SplineSet
414 -324 m 1,0,-1
 186 -328 l 1,1,2
 109 -328 109 -328 45 -281 c 0,3,4
 -40 -218 -40 -218 -54 -112 c 1,5,6
 -63 -66 -63 -66 -51 -7 c 0,7,8
 -33 75 -33 75 54 238 c 0,9,10
 132 383 132 383 148 438 c 0,11,12
 182 552 182 552 94 586 c 2,13,-1
 48 604 l 1,14,15
 1 623 1 623 14 682 c 1,16,-1
 50 832 l 2,17,18
 50 833 50 833 51 836 c 0,19,20
 64 878 64 878 122 892 c 2,21,-1
 202 912 l 2,22,23
 212 915 212 915 221 918 c 0,24,25
 308 951 308 951 312 1073 c 0,26,27
 313 1100 313 1100 302 1224 c 0,28,29
 291 1354 291 1354 308 1450 c 0,30,31
 360 1728 360 1728 680 1732 c 1,32,-1
 920 1732 l 2,33,34
 979 1731 979 1731 966 1668 c 1,35,-1
 940 1550 l 2,36,37
 937 1538 937 1538 929 1526 c 0,38,39
 906 1494 906 1494 874 1494 c 2,40,-1
 716 1494 l 2,41,42
 672 1494 672 1494 638 1484 c 0,43,44
 507 1445 507 1445 532 1234 c 0,45,46
 536 1196 536 1196 539 1168 c 0,47,48
 563 932 563 932 508 854 c 0,49,50
 467 795 467 795 407 761 c 0,51,52
 383 748 383 748 290 712 c 1,53,54
 322 686 322 686 351 649 c 0,55,56
 436 542 436 542 416 456 c 0,57,58
 400 385 400 385 331 257 c 0,59,60
 251 111 251 111 236 76 c 0,61,62
 200 -7 200 -7 208 -45 c 0,63,64
 217 -86 217 -86 294 -86 c 2,65,-1
 474 -86 l 2,66,67
 533 -87 533 -87 520 -150 c 1,68,-1
 494 -268 l 2,69,70
 491 -280 491 -280 483 -292 c 0,71,72
 460 -324 460 -324 426 -324 c 2,73,-1
 414 -324 l 1,0,-1
EndSplineSet
EndChar

StartChar: braceright
Encoding: 125 125 82
Width: 684
VWidth: 0
Flags: HW
HStem: -328 238<-251.062 104.587> 1490 238<194.938 476.467>
LayerCount: 2
Back
SplineSet
270 1728 m 1
 258 1728 l 2
 228 1728 196 1702 190 1672 c 2
 164 1554 l 2
 154 1510 172 1490 210 1490 c 2
 390 1490 l 2
 478 1490 504 1458 448 1328 c 0
 394 1206 294 1066 268 948 c 0
 246 854 332 742 394 692 c 1
 310 660 240 642 176 550 c 0
 120 470 136 306 152 170 c 0
 176 -26 100 -90 -32 -90 c 2
 -190 -90 l 2
 -218 -90 -250 -116 -256 -146 c 2
 -282 -264 l 2
 -292 -308 -274 -328 -236 -328 c 2
 4 -328 l 1
 328 -324 408 -114 382 180 c 0
 370 306 342 456 482 492 c 2
 562 512 l 2
 594 520 626 540 634 572 c 2
 670 722 l 2
 680 764 666 788 636 800 c 2
 590 818 l 2
 370 904 788 1280 738 1516 c 1
 722 1640 618 1732 498 1732 c 1
 270 1728 l 1
EndSplineSet
Fore
SplineSet
270 1728 m 1,0,-1
 498 1732 l 1,1,2
 575 1732 575 1732 639 1685 c 0,3,4
 724 1622 724 1622 738 1516 c 1,5,6
 747 1470 747 1470 735 1411 c 0,7,8
 717 1329 717 1329 630 1166 c 0,9,10
 552 1021 552 1021 536 966 c 0,11,12
 502 852 502 852 590 818 c 2,13,-1
 636 800 l 1,14,15
 683 781 683 781 670 722 c 1,16,-1
 634 572 l 2,17,18
 634 571 634 571 633 568 c 0,19,20
 620 526 620 526 562 512 c 2,21,-1
 482 492 l 2,22,23
 472 489 472 489 463 486 c 0,24,25
 376 453 376 453 372 331 c 0,26,27
 371 304 371 304 382 180 c 0,28,29
 393 50 393 50 376 -46 c 0,30,31
 324 -324 324 -324 4 -328 c 1,32,-1
 -236 -328 l 2,33,34
 -295 -327 -295 -327 -282 -264 c 1,35,-1
 -256 -146 l 2,36,37
 -253 -134 -253 -134 -245 -122 c 0,38,39
 -222 -90 -222 -90 -190 -90 c 2,40,-1
 -32 -90 l 2,41,42
 12 -90 12 -90 46 -80 c 0,43,44
 177 -41 177 -41 152 170 c 0,45,46
 148 208 148 208 145 236 c 0,47,48
 121 472 121 472 176 550 c 0,49,50
 217 609 217 609 277 643 c 0,51,52
 301 656 301 656 394 692 c 1,53,54
 362 718 362 718 333 755 c 0,55,56
 248 862 248 862 268 948 c 0,57,58
 284 1019 284 1019 353 1147 c 0,59,60
 433 1293 433 1293 448 1328 c 0,61,62
 484 1411 484 1411 476 1449 c 0,63,64
 467 1490 467 1490 390 1490 c 2,65,-1
 210 1490 l 2,66,67
 151 1491 151 1491 164 1554 c 1,68,-1
 190 1672 l 2,69,70
 193 1684 193 1684 201 1696 c 0,71,72
 224 1728 224 1728 258 1728 c 2,73,-1
 270 1728 l 1,0,-1
EndSplineSet
EndChar

StartChar: bracketleft
Encoding: 91 91 83
Width: 580
VWidth: 0
Flags: HMW
HStem: -328 238<152 343.062> 1486 238<560 845.062>
DStem2: -140 -238 152 -90 0.250679 0.96807<216.473 1844.43>
LayerCount: 2
Back
SplineSet
102 -284 m 1
 610 1678 l 1
 456 1486 l 1
 782 1486 l 2
 812 1486 844 1512 850 1542 c 2
 876 1660 l 2
 886 1704 868 1724 830 1724 c 2
 434 1724 l 2
 386 1724 362 1698 352 1662 c 2
 -140 -238 l 2
 -156 -298 -142 -328 -82 -328 c 2
 280 -328 l 2
 310 -328 342 -302 348 -272 c 2
 374 -154 l 2
 384 -110 366 -90 328 -90 c 2
 -20 -90 l 1
 102 -284 l 1
EndSplineSet
Fore
SplineSet
152 -90 m 1,0,-1
 328 -90 l 2,1,2
 387 -91 387 -91 374 -154 c 1,3,-1
 348 -272 l 2,4,5
 345 -284 345 -284 337 -296 c 0,6,7
 314 -328 314 -328 280 -328 c 2,8,-1
 -82 -328 l 2,9,10
 -95 -328 -95 -328 -107 -326 c 0,11,12
 -161 -315 -161 -315 -140 -238 c 2,13,14
 352 1662 l 1,15,16
 370 1723 370 1723 434 1724 c 1,17,-1
 830 1724 l 2,18,19
 889 1723 889 1723 876 1660 c 1,20,-1
 850 1542 l 2,21,22
 847 1530 847 1530 839 1518 c 0,23,24
 816 1486 816 1486 782 1486 c 2,25,-1
 560 1486 l 1,26,-1
 152 -90 l 1,0,-1
EndSplineSet
Colour: ff00
EndChar

StartChar: bracketright
Encoding: 93 93 84
Width: 580
VWidth: 0
Flags: HMW
HStem: -328 238<-223.062 61> 1486 238<272.938 464>
DStem2: 61 -90 270 -266 0.247811 0.968808<0 1626.71>
LayerCount: 2
Back
SplineSet
514 1680 m 1
 12 -282 l 1
 166 -90 l 1
 -160 -90 l 2
 -190 -90 -222 -116 -228 -146 c 2
 -254 -264 l 2
 -264 -308 -246 -328 -208 -328 c 2
 188 -328 l 2
 236 -328 260 -302 270 -266 c 2
 756 1634 l 2
 772 1694 758 1724 698 1724 c 2
 336 1724 l 2
 306 1724 274 1698 268 1668 c 2
 242 1550 l 2
 232 1506 250 1486 288 1486 c 2
 636 1486 l 1
 514 1680 l 1
EndSplineSet
Fore
SplineSet
464 1486 m 1,0,-1
 288 1486 l 2,1,2
 229 1487 229 1487 242 1550 c 1,3,-1
 268 1668 l 2,4,5
 271 1680 271 1680 279 1692 c 0,6,7
 302 1724 302 1724 336 1724 c 2,8,-1
 698 1724 l 2,9,10
 711 1724 711 1724 723 1722 c 0,11,12
 777 1711 777 1711 756 1634 c 2,13,14
 270 -266 l 2,15,16
 254 -327 254 -327 188 -328 c 2,17,-1
 -208 -328 l 2,18,19
 -267 -327 -267 -327 -254 -264 c 1,20,-1
 -228 -146 l 2,21,22
 -225 -134 -225 -134 -217 -122 c 0,23,24
 -194 -90 -194 -90 -160 -90 c 2,25,-1
 61 -90 l 1,26,-1
 464 1486 l 1,0,-1
EndSplineSet
Colour: ff00
EndChar

StartChar: breve
Encoding: 728 728 85
Width: 912
VWidth: 0
Flags: HW
HStem: 1126 142<311.709 602.212>
VStem: 72 164<1342.13 1444> 678 162<1342.26 1444>
LayerCount: 2
Back
SplineSet
458 1126 m 0
 670 1126 818 1256 840 1444 c 1
 678 1444 l 1
 666 1342 578 1268 458 1268 c 0
 334 1268 246 1344 236 1444 c 1
 72 1444 l 1
 100 1254 242 1126 458 1126 c 0
EndSplineSet
Fore
SplineSet
458 1126 m 0,0,1
 324 1126 324 1126 227 1190 c 0,2,3
 97 1276 97 1276 72 1444 c 1,4,-1
 236 1444 l 1,5,6
 242 1388 242 1388 279 1344 c 0,7,8
 343 1268 343 1268 458 1268 c 0,9,10
 529 1268 529 1268 585 1301 c 0,11,12
 667 1350 667 1350 678 1444 c 1,13,-1
 840 1444 l 1,14,15
 826 1323 826 1323 747 1240 c 0,16,17
 639 1126 639 1126 458 1126 c 0,0,1
EndSplineSet
EndChar

StartChar: brokenbar
Encoding: 166 166 86
Width: 528
VWidth: 0
Flags: HW
LayerCount: 2
Back
SplineSet
300 402 m 2
 308 434 290 448 256 448 c 2
 106 448 l 2
 76 448 54 434 46 404 c 2
 -152 -356 l 2
 -160 -388 -142 -402 -108 -402 c 2
 42 -402 l 2
 72 -402 94 -388 102 -358 c 2
 300 402 l 2
572 1478 m 2
 580 1510 562 1524 528 1524 c 2
 378 1524 l 2
 348 1524 326 1510 318 1480 c 2
 120 720 l 2
 112 688 130 674 164 674 c 2
 314 674 l 2
 344 674 366 688 374 718 c 2
 572 1478 l 2
EndSplineSet
Fore
SplineSet
572 1478 m 1,0,1
 374 718 l 1,2,3
 362 675 362 675 314 674 c 1,4,-1
 164 674 l 2,5,6
 111 675 111 675 120 720 c 1,7,-1
 318 1480 l 1,8,9
 330 1523 330 1523 378 1524 c 1,10,-1
 528 1524 l 2,11,12
 581 1523 581 1523 572 1478 c 1,0,1
300 402 m 1,13,-1
 102 -358 l 1,14,15
 90 -401 90 -401 42 -402 c 1,16,-1
 -108 -402 l 2,17,18
 -161 -401 -161 -401 -152 -356 c 1,19,-1
 46 404 l 1,20,21
 58 447 58 447 106 448 c 1,22,-1
 256 448 l 2,23,24
 309 447 309 447 300 402 c 1,13,-1
EndSplineSet
EndChar

StartChar: bullet
Encoding: 8226 8226 87
Width: 1076
VWidth: 0
Flags: HW
HStem: 232 606<482.363 797.705>
VStem: 336 608<377.599 692.985>
LayerCount: 2
Back
SplineSet
336 536 m 0
 336 366 472 232 640 232 c 0
 808 232 944 366 944 536 c 0
 944 704 808 838 640 838 c 0
 472 838 336 704 336 536 c 0
EndSplineSet
Fore
SplineSet
336 536 m 0,0,1
 336 659 336 659 423 748 c 0,2,3
 512 838 512 838 640 838 c 0,4,5
 764 838 764 838 853 752 c 0,6,7
 944 663 944 663 944 536 c 0,8,9
 944 411 944 411 857 322 c 0,10,11
 768 232 768 232 640 232 c 0,12,13
 516 232 516 232 427 318 c 0,14,15
 336 407 336 407 336 536 c 0,0,1
EndSplineSet
EndChar

StartChar: c
Encoding: 99 99 88
Width: 602
VWidth: 0
Flags: HMW
HStem: -22 224<230.688 297.819> 855 234<456 567.049>
VStem: -17 247<202.641 509.752>
LayerCount: 2
Back
SplineSet
490 1088 m 0
 354 1104 238 964 164 854 c 0
 84 734 -84 340 14 114 c 0
 42 50 204 -34 280 -20 c 0
 324 -12 478 106 528 182 c 0
 538 196 542 230 516 246 c 2
 432 302 l 2
 406 320 384 324 362 302 c 0
 348 288 294 242 246 202 c 1
 236 204 230 218 230 262 c 0
 230 304 256 458 276 516 c 1
 296 582 398 838 456 854 c 0
 480 860 544 824 572 808 c 0
 596 794 610 802 630 822 c 2
 722 920 l 2
 736 936 736 966 714 990 c 0
 690 1016 598 1076 490 1088 c 0
EndSplineSet
Fore
SplineSet
604 1058 m 0,0,1
 681 1026 681 1026 714 990 c 0,2,3
 720 983 720 983 725 975 c 0,4,5
 742 943 742 943 722 920 c 1,6,-1
 630 822 l 2,7,8
 628 820 628 820 622 814 c 0,9,10
 598 793 598 793 572 808 c 0,11,12
 492 855 492 855 462 855 c 0,13,14
 456 854 l 1,15,16
 422 844 422 844 364 728 c 0,17,18
 286 574 286 574 260 454 c 0,19,20
 230 321 230 321 230 262 c 0,21,22
 230 207 230 207 246 202 c 1,23,-1
 362 302 l 2,24,25
 392 328 392 328 432 302 c 2,26,-1
 516 246 l 2,27,28
 526 239 526 239 532 227 c 0,29,30
 542 202 542 202 528 182 c 0,31,32
 492 127 492 127 414 65 c 0,33,34
 373 32 373 32 318 -3 c 0,35,36
 291 -21 291 -21 258 -22 c 0,37,38
 208 -22 208 -22 121 22 c 0,39,40
 32 68 32 68 9 126 c 0,41,42
 -17 193 -17 193 -17 281 c 0,43,44
 -17 412 -17 412 42 587 c 0,45,46
 97 754 97 754 164 854 c 0,47,48
 322 1089 322 1089 470 1089 c 0,49,50
 528 1089 528 1089 604 1058 c 0,0,1
EndSplineSet
Colour: ff00
EndChar

StartChar: caron
Encoding: 711 711 89
Width: 844
VWidth: 0
Flags: HW
HStem: 1130 318
VStem: 166 557
DStem2: 405 1305 442 1158 0.707107 0.707107<0 246.427>
LayerCount: 2
Back
SplineSet
422 1268 m 1
 378 1278 l 1
 526 1426 l 2
 546 1446 554 1448 582 1448 c 2
 696 1448 l 2
 726 1448 732 1424 708 1402 c 2
 442 1158 l 2
 416 1136 404 1128 386 1130 c 2
 350 1132 l 2
 328 1134 316 1144 302 1168 c 2
 166 1414 l 2
 154 1432 162 1448 186 1448 c 2
 310 1448 l 2
 338 1448 344 1444 352 1426 c 2
 422 1268 l 1
EndSplineSet
Fore
SplineSet
405 1305 m 1,0,-1
 526 1426 l 2,1,2
 546 1446 546 1446 568 1448 c 0,3,4
 574 1448 574 1448 582 1448 c 2,5,-1
 696 1448 l 2,6,7
 723 1448 723 1448 723 1428 c 1,8,9
 722 1415 722 1415 708 1402 c 2,10,-1
 442 1158 l 1,11,12
 408 1130 408 1130 391 1130 c 0,13,14
 388 1130 388 1130 386 1130 c 2,15,-1
 350 1132 l 2,16,17
 322 1135 322 1135 304 1165 c 0,18,19
 303 1167 303 1167 302 1168 c 2,20,-1
 166 1414 l 1,21,22
 152 1436 152 1436 170 1445 c 0,23,24
 177 1448 177 1448 186 1448 c 2,25,-1
 310 1448 l 2,26,27
 339 1448 339 1448 347 1435 c 0,28,29
 349 1431 349 1431 352 1426 c 2,30,-1
 405 1305 l 1,0,-1
EndSplineSet
EndChar

StartChar: cedilla
Encoding: 184 184 92
Width: 684
VWidth: 0
Flags: HW
HStem: -404 146<144.283 280.343>
VStem: 120 422
LayerCount: 2
Back
SplineSet
394 -66 m 2
 378 -60 344 -60 344 -98 c 0
 344 -176 276 -258 146 -258 c 0
 116 -258 112 -280 120 -306 c 2
 144 -380 l 2
 148 -396 166 -404 180 -404 c 0
 360 -412 510 -310 542 -166 c 0
 552 -126 542 -112 520 -106 c 2
 394 -66 l 2
EndSplineSet
Fore
SplineSet
394 -66 m 1,0,1
 520 -106 l 2,2,3
 521 -106 521 -106 523 -107 c 0,4,5
 554 -117 554 -117 542 -166 c 1,6,7
 521 -259 521 -259 441 -324 c 0,8,9
 333 -411 333 -411 180 -404 c 1,10,11
 153 -402 153 -402 144 -380 c 1,12,-1
 120 -306 l 1,13,14
 107 -260 107 -260 146 -258 c 1,15,16
 227 -258 227 -258 282 -217 c 0,17,18
 344 -170 344 -170 344 -98 c 0,19,20
 344 -83 344 -83 352 -73 c 0,21,22
 367 -56 367 -56 394 -66 c 1,0,1
EndSplineSet
EndChar

StartChar: cent
Encoding: 162 162 93
Width: 796
VWidth: 0
Flags: HW
LayerCount: 2
Back
SplineSet
300 192 m 1
 254 206 268 366 310 522 c 0
 364 726 488 898 518 892 c 0
 556 884 534 800 486 660 c 0
 472 622 486 608 522 602 c 2
 644 576 l 2
 678 570 688 580 700 596 c 0
 862 804 812 1094 546 1066 c 1
 318 1090 108 858 38 460 c 0
 6 276 -4 -20 268 -20 c 0
 454 -20 570 126 652 290 c 0
 672 330 654 346 628 358 c 2
 482 422 l 1
 466 426 450 422 440 404 c 0
 394 312 354 206 300 192 c 1
722 1236 m 2
 730 1266 714 1280 680 1280 c 2
 536 1280 l 2
 506 1280 486 1266 478 1238 c 2
 406 968 l 1
 652 968 l 1
 722 1236 l 2
174 -190 m 2
 308 -190 l 2
 336 -190 358 -176 366 -148 c 2
 438 124 l 1
 194 124 l 1
 124 -128 l 2
 116 -162 130 -190 174 -190 c 2
EndSplineSet
Fore
SplineSet
174 -190 m 2,0,1
 162 -190 162 -190 152 -187 c 0,2,3
 113 -175 113 -175 124 -128 c 1,4,-1
 160 0 l 1,5,6
 123 16 123 16 95 46 c 0,7,8
 -13 163 -13 163 38 460 c 0,9,10
 76 673 76 673 164 825 c 0,11,12
 274 1012 274 1012 429 1056 c 1,13,-1
 478 1238 l 1,14,15
 490 1279 490 1279 536 1280 c 1,16,-1
 680 1280 l 2,17,18
 731 1279 731 1279 722 1236 c 1,19,-1
 674 1051 l 1,20,21
 694 1042 694 1042 712 1029 c 0,22,23
 793 969 793 969 793 847 c 0,24,25
 792 715 792 715 700 596 c 0,26,27
 698 593 698 593 696 590 c 0,28,29
 679 570 679 570 644 576 c 1,30,-1
 522 602 l 2,31,32
 514 603 514 603 507 605 c 0,33,34
 470 616 470 616 486 660 c 1,35,36
 508 725 508 725 520 765 c 0,37,38
 554 884 554 884 518 892 c 1,39,40
 497 895 497 895 445 820 c 0,41,42
 353 687 353 687 310 522 c 0,43,44
 287 437 287 437 277 360 c 0,45,46
 257 205 257 205 300 192 c 1,47,48
 316 196 316 196 333 212 c 0,49,50
 363 241 363 241 416 354 c 0,51,52
 432 388 432 388 440 404 c 1,53,54
 454 428 454 428 482 422 c 1,55,-1
 628 358 l 2,56,57
 631 357 631 357 635 355 c 0,58,59
 674 334 674 334 652 290 c 0,60,61
 546 78 546 78 408 11 c 1,62,-1
 366 -148 l 1,63,64
 353 -189 353 -189 308 -190 c 1,65,-1
 174 -190 l 2,0,1
EndSplineSet
EndChar

StartChar: circumflex
Encoding: 710 710 94
Width: 856
VWidth: 0
Flags: HW
HStem: 1150 318
VStem: 157 557
DStem2: 172 1196 354 1172 0.707107 0.707107<36.416 282.843>
LayerCount: 2
Back
SplineSet
458 1330 m 1
 502 1320 l 1
 354 1172 l 2
 334 1152 326 1150 298 1150 c 2
 184 1150 l 2
 154 1150 148 1174 172 1196 c 2
 438 1440 l 2
 464 1462 476 1470 494 1468 c 2
 530 1466 l 2
 552 1464 564 1454 578 1430 c 2
 714 1184 l 2
 726 1166 718 1150 694 1150 c 2
 570 1150 l 2
 542 1150 536 1154 528 1172 c 2
 458 1330 l 1
EndSplineSet
Fore
SplineSet
475 1293 m 1,0,-1
 354 1172 l 2,1,2
 334 1152 334 1152 312 1150 c 0,3,4
 306 1150 306 1150 298 1150 c 2,5,-1
 184 1150 l 2,6,7
 157 1150 157 1150 157 1170 c 1,8,9
 158 1183 158 1183 172 1196 c 2,10,-1
 438 1440 l 1,11,12
 472 1468 472 1468 489 1468 c 0,13,14
 491 1468 491 1468 494 1468 c 2,15,-1
 530 1466 l 2,16,17
 558 1463 558 1463 576 1433 c 0,18,19
 577 1431 577 1431 578 1430 c 2,20,-1
 714 1184 l 1,21,22
 728 1162 728 1162 710 1153 c 0,23,24
 703 1150 703 1150 694 1150 c 2,25,-1
 570 1150 l 2,26,27
 541 1150 541 1150 533 1163 c 0,28,29
 531 1167 531 1167 528 1172 c 2,30,-1
 475 1293 l 1,0,-1
EndSplineSet
EndChar

StartChar: colon
Encoding: 58 58 95
Width: 732
VWidth: 0
Flags: HW
HStem: -36 264<93.7576 316.721> 824 264<293.757 516.721>
VStem: 60 294<-0.693413 191.175> 260 294<859.307 1051.18>
LayerCount: 2
Back
SplineSet
60 96 m 0
 60 26 118 -36 186 -36 c 2
 210 -36 l 2
 292 -36 354 22 354 96 c 0
 354 164 288 228 226 228 c 2
 200 228 l 2
 118 228 60 168 60 96 c 0
260 956 m 0
 260 886 318 824 386 824 c 2
 410 824 l 2
 492 824 554 882 554 956 c 0
 554 1024 488 1088 426 1088 c 2
 400 1088 l 2
 318 1088 260 1028 260 956 c 0
EndSplineSet
Fore
SplineSet
260 956 m 0,0,1
 260 996 260 996 283 1030 c 0,2,3
 323 1088 323 1088 400 1088 c 2,4,-1
 426 1088 l 2,5,6
 465 1088 465 1088 502 1058 c 0,7,8
 554 1015 554 1015 554 956 c 0,9,10
 554 915 554 915 529 881 c 0,11,12
 487 824 487 824 410 824 c 2,13,-1
 386 824 l 2,14,15
 346 824 346 824 311 851 c 0,16,17
 260 892 260 892 260 956 c 0,0,1
60 96 m 0,18,19
 60 136 60 136 83 170 c 0,20,21
 123 228 123 228 200 228 c 2,22,-1
 226 228 l 2,23,24
 265 228 265 228 302 198 c 0,25,26
 354 155 354 155 354 96 c 0,27,28
 354 54 354 54 329 21 c 0,29,30
 287 -36 287 -36 210 -36 c 2,31,-1
 186 -36 l 2,32,33
 146 -36 146 -36 111 -9 c 0,34,35
 60 32 60 32 60 96 c 0,18,19
EndSplineSet
EndChar

StartChar: comma
Encoding: 44 44 96
Width: 454
VWidth: 0
Flags: HW
HStem: -354 610
VStem: 4 278<0.681533 216.539>
LayerCount: 2
Back
SplineSet
282 214 m 0
 282 244 266 256 234 256 c 1
 54 218 l 1
 28 218 4 208 4 180 c 1
 -8 108 -6 38 -16 -32 c 0
 -30 -126 -70 -218 -70 -312 c 0
 -70 -342 -56 -354 -26 -354 c 0
 16 -354 84 -268 84 -268 c 1
 140 -198 282 12 282 214 c 0
EndSplineSet
Fore
SplineSet
282 214 m 1,0,1
 282 113 282 113 235 -7 c 0,2,3
 178 -150 178 -150 84 -268 c 1,4,-1
 66 -290 l 2,5,6
 48 -312 48 -312 20.5 -333 c 128,-1,7
 -7 -354 -7 -354 -26 -354 c 0,8,9
 -66 -352 -66 -352 -70 -312 c 1,10,11
 -70 -260 -70 -260 -50 -179 c 0,12,13
 -20 -57 -20 -57 -16 -32 c 0,14,15
 -12 -7 -12 -7 -10 27 c 0,16,17
 0 154 0 154 4 180 c 1,18,19
 5 216 5 216 54 218 c 1,20,-1
 234 256 l 1,21,22
 280 255 280 255 282 214 c 1,0,1
EndSplineSet
EndChar

StartChar: copyright
Encoding: 169 169 97
Width: 1638
VWidth: 0
Flags: HW
HStem: -30 150<528.961 936.279> 1328 148<706.712 1097.33>
LayerCount: 2
Back
SplineSet
150 886 m 0
 50 544 110 290 258 140 c 0
 378 20 558 -30 732 -30 c 0
 1108 -30 1370 170 1488 578 c 0
 1576 880 1544 1144 1386 1304 c 0
 1278 1416 1132 1476 896 1476 c 0
 542 1476 262 1272 150 886 c 0
362 800 m 0
 442 1102 628 1328 900 1328 c 0
 1262 1328 1358 990 1268 640 c 0
 1192 340 1012 120 742 120 c 0
 370 120 264 426 362 800 c 0
730 440 m 1
 686 452 696 586 736 732 c 0
 786 924 888 1034 916 1030 c 1
 952 1022 946 984 902 854 c 0
 888 818 902 804 936 798 c 2
 1050 774 l 2
 1082 768 1092 778 1102 794 c 1
 1266 1002 1126 1202 942 1192 c 1
 752 1202 546 1048 480 674 c 0
 450 502 466 240 700 240 c 0
 874 240 970 346 1046 500 c 0
 1066 538 1048 552 1024 564 c 2
 886 624 l 2
 872 628 856 624 848 606 c 0
 804 520 774 464 730 440 c 1
EndSplineSet
Fore
SplineSet
730 440 m 1,0,1
 745 448 745 448 760 463 c 0,2,3
 791 494 791 494 848 606 c 0,4,5
 860 630 860 630 886 624 c 1,6,-1
 1024 564 l 2,7,8
 1029 561 1029 561 1034 559 c 0,9,10
 1067 539 1067 539 1046 500 c 1,11,12
 1014 435 1014 435 980 388 c 0,13,14
 872 240 872 240 700 240 c 0,15,16
 554 241 554 241 498 374 c 1,17,18
 448 494 448 494 480 674 c 0,19,20
 527 939 527 939 666 1079 c 0,21,22
 788 1200 788 1200 942 1192 c 1,23,24
 1005 1195 1005 1195 1060 1168 c 0,25,26
 1143 1125 1143 1125 1167 1037 c 0,27,28
 1200 918 1200 918 1102 794 c 0,29,30
 1101 792 1101 792 1099 790 c 0,31,32
 1084 768 1084 768 1050 774 c 2,33,-1
 936 798 l 2,34,35
 931 799 931 799 926 800 c 0,36,37
 886 811 886 811 902 854 c 1,38,39
 933 947 933 947 938 982 c 0,40,41
 944 1024 944 1024 916 1030 c 1,42,43
 898 1032 898 1032 860 989 c 0,44,45
 777 893 777 893 736 732 c 0,46,47
 717 661 717 661 707 598 c 0,48,49
 686 452 686 452 730 440 c 1,0,1
362 800 m 0,50,51
 358 784 358 784 354 767 c 0,52,53
 288 482 288 482 382 307 c 0,54,55
 483 120 483 120 742 120 c 0,56,57
 897 120 897 120 1020 215 c 0,58,59
 1194 350 1194 350 1268 640 c 0,60,61
 1279 685 1279 685 1287 729 c 0,62,63
 1329 982 1329 982 1238 1146 c 0,64,65
 1137 1328 1137 1328 900 1328 c 0,66,67
 736 1328 736 1328 605 1220 c 0,68,69
 436 1080 436 1080 362 800 c 0,50,51
150 886 m 0,70,71
 220 1125 220 1125 374 1275 c 0,72,73
 582 1476 582 1476 896 1476 c 0,74,75
 962 1476 962 1476 1021 1470 c 0,76,77
 1251 1445 1251 1445 1386 1304 c 0,78,79
 1451 1237 1451 1237 1489 1146 c 0,80,81
 1585 913 1585 913 1488 578 c 0,82,83
 1455 464 1455 464 1406 370 c 0,84,85
 1199 -30 1199 -30 732 -30 c 0,86,87
 689 -30 689 -30 646 -26 c 0,88,89
 400 -2 400 -2 258 140 c 0,90,91
 202 197 202 197 164 273 c 0,92,93
 43 519 43 519 150 886 c 0,70,71
EndSplineSet
EndChar

StartChar: currency
Encoding: 164 164 98
Width: 1024
VWidth: 0
Flags: HW
HStem: 866 194<563.723 694.924>
VStem: 158 256<335.02 629.673>
DStem2: 484 1146 246 1032 0.296048 -0.955173<-29.6923 115.498>
LayerCount: 2
Back
SplineSet
564 872 m 1
 484 1146 l 2
 470 1196 436 1222 402 1198 c 1
 282 1138 l 1
 244 1110 222 1106 246 1032 c 2
 352 692 l 1
 564 872 l 1
302 476 m 1
 66 138 l 2
 36 92 46 78 84 56 c 1
 224 -34 l 2
 260 -56 278 -26 292 -10 c 1
 468 280 l 1
 302 476 l 1
812 702 m 1
 1064 1026 l 2
 1092 1064 1094 1082 1048 1110 c 2
 918 1186 l 2
 882 1208 862 1178 850 1160 c 2
 686 912 l 1
 812 702 l 1
528 230 m 1
 584 2 l 2
 596 -50 630 -72 684 -42 c 2
 798 22 l 2
 838 44 854 58 840 98 c 2
 752 372 l 1
 528 230 l 1
282 832 m 1
 210 708 158 566 158 438 c 0
 158 356 182 256 250 200 c 0
 318 142 378 134 456 134 c 0
 582 134 698 218 788 338 c 0
 878 458 938 612 938 752 c 0
 938 822 940 894 902 950 c 1
 844 1042 756 1060 668 1060 c 0
 474 1060 348 950 282 832 c 1
676 618 m 1
 668 586 634 492 584 418 c 0
 542 356 516 340 470 334 c 1
 418 342 414 372 414 438 c 0
 414 550 494 702 508 728 c 0
 546 808 586 866 648 866 c 0
 734 866 692 662 676 618 c 1
EndSplineSet
Fore
SplineSet
676 618 m 1,0,1
 691 660 691 660 698 727 c 0,2,3
 712 866 712 866 648 866 c 0,4,5
 630 866 630 866 612 859 c 4,6,7
 559 839 559 839 499 721 c 0,8,9
 414 550 414 550 414 438 c 0,10,11
 414 394 414 394 419 375 c 0,12,13
 434 318 434 318 503 341 c 0,14,15
 552 359 552 359 607 456 c 0,16,17
 658 544 658 544 676 618 c 1,0,1
282 832 m 0,18,19
 289 846 289 846 299 861 c 1,20,-1
 246 1032 l 2,21,22
 231 1082 231 1082 244 1103 c 0,23,24
 259 1126 259 1126 282 1138 c 2,25,-1
 402 1198 l 2,26,27
 422 1208 422 1208 435 1206 c 0,28,29
 468 1202 468 1202 484 1146 c 2,30,-1
 516 1035 l 1,31,32
 586 1060 586 1060 668 1060 c 0,33,34
 730 1060 730 1060 775 1047 c 1,35,-1
 850 1160 l 2,36,37
 864 1182 864 1182 881 1190 c 0,38,39
 898 1197 898 1197 918 1186 c 2,40,-1
 1048 1110 l 2,41,42
 1070 1097 1070 1097 1080 1082 c 0,43,44
 1091 1063 1091 1063 1064 1026 c 1,45,-1
 934 859 l 1,46,47
 938 832 938 832 938 752 c 0,48,49
 938 713 938 713 932 672 c 0,50,51
 905 495 905 495 788 338 c 1,52,-1
 770 315 l 1,53,-1
 840 98 l 2,54,55
 847 77 847 77 844 63 c 0,56,57
 839 45 839 45 798 22 c 2,58,-1
 684 -42 l 2,59,60
 670 -50 670 -50 655 -54 c 0,61,62
 600 -67 600 -67 584 2 c 2,63,-1
 548 149 l 1,64,65
 503 134 503 134 456 134 c 0,66,67
 413 134 413 134 382 138 c 1,68,69
 283 -23 l 2,70,71
 275 -36 275 -36 256 -39 c 0,72,73
 239 -41 239 -41 224 -34 c 1,74,-1
 62 71 l 2,75,76
 53 78 53 78 51 90 c 0,77,78
 48 113 48 113 60 129 c 2,79,-1
 181 303 l 1,80,81
 158 366 158 366 158 438 c 0,82,83
 158 588 158 588 282 832 c 0,18,19
EndSplineSet
EndChar

StartChar: d
Encoding: 100 100 99
Width: 924
VWidth: 0
Flags: HMW
HStem: -6 304<194.998 298.25> 867 209<460.308 587.295> 1498 20G<791.73 988.628>
VStem: 14 270<183.173 485.928>
DStem2: 588 854 673 298 0.272881 0.962048<-417.388 0 170.055 702.884>
LayerCount: 2
Back
SplineSet
628 1010 m 1
 594 870 l 1
 578 824 l 1
 532 668 464 518 406 418 c 0
 362 344 320 298 300 298 c 0
 282 298 280 308 290 358 c 0
 318 510 424 814 482 858 c 0
 512 880 606 854 626 836 c 1
 662 994 l 1
 622 1034 546 1076 466 1076 c 0
 416 1076 356 1062 306 1024 c 0
 192 938 44 542 16 254 c 0
 8 176 40 112 92 60 c 0
 118 34 158 -6 192 -6 c 2
 206 -6 l 2
 254 -6 294 30 372 124 c 2
 534 318 l 1
 628 1010 l 1
1006 1472 m 2
 1014 1504 996 1518 962 1518 c 2
 816 1518 l 2
 786 1518 764 1504 756 1474 c 2
 414 202 l 1
 372 194 l 1
 440 26 l 1
 634 162 l 1
 1006 1472 l 2
394 138 m 1
 446 12 l 2
 454 -4 464 -12 482 -10 c 0
 628 6 764 126 856 242 c 0
 866 256 864 274 844 290 c 2
 760 352 l 2
 740 368 722 360 710 342 c 0
 664 274 524 166 394 138 c 1
EndSplineSet
Fore
SplineSet
1006 1472 m 1,0,1
 673 298 l 1,2,3
 694 319 694 319 710 342 c 0,4,5
 732 373 732 373 760 352 c 2,6,-1
 844 290 l 1,7,8
 872 267 872 267 856 242 c 1,9,10
 835 216 835 216 812 190 c 0,11,12
 642 3 642 3 482 -10 c 0,13,14
 459 -12 459 -12 446 12 c 1,15,-1
 440 26 l 1,16,-1
 429 54 l 1,17,-1
 394 138 l 1,18,-1
 395 138 l 1,19,-1
 391 147 l 1,20,-1
 372 124 l 2,21,22
 336 81 336 81 310 53 c 0,23,24
 252 -6 252 -6 206 -6 c 2,25,-1
 195 -6 l 2,26,27
 155 -6 155 -6 92 60 c 24,28,29
 14 141 14 141 14 225 c 3,30,31
 14 388 14 388 139 739 c 0,32,33
 216 955 216 955 306 1024 c 0,34,35
 374 1076 374 1076 466 1076 c 27,36,37
 554 1076 554 1076 633 1018 c 1,38,-1
 756 1474 l 2,39,40
 767 1516 767 1516 816 1518 c 1,41,-1
 962 1518 l 2,42,43
 1015 1518 1015 1518 1006 1472 c 1,0,1
588 854 m 1,44,45
 549 867 549 867 520 867 c 0,46,47
 497 867 497 867 482 858 c 0,48,49
 448 833 448 833 391 690 c 0,50,51
 316 501 316 501 290 358 c 0,52,53
 284 325 284 325 284 315 c 3,54,55
 284 298 284 298 298 298 c 3,56,57
 304 298 304 298 308 300 c 0,58,59
 345 317 345 317 406 418 c 1,60,61
 512 601 512 601 578 824 c 1,62,-1
 588 854 l 1,44,45
EndSplineSet
Colour: ff00
EndChar

StartChar: degree
Encoding: 176 176 100
Width: 960
VWidth: 0
Flags: HW
HStem: 1048 144<423.312 633.107> 1486 144<468.53 674.378>
VStem: 252 150<1214.69 1419.37> 698 150<1256.1 1463.63>
LayerCount: 2
Back
SplineSet
600 1630 m 0
 750 1630 848 1524 848 1380 c 0
 848 1168 664 1048 504 1048 c 0
 352 1048 252 1158 252 1300 c 0
 252 1502 434 1630 600 1630 c 0
402 1308 m 0
 402 1242 448 1192 516 1192 c 0
 602 1192 698 1264 698 1370 c 0
 698 1438 652 1486 582 1486 c 0
 490 1486 402 1402 402 1308 c 0
EndSplineSet
Fore
SplineSet
402 1308 m 0,0,1
 402 1240 402 1240 454 1208 c 0,2,3
 482 1192 482 1192 516 1192 c 0,4,5
 590 1192 590 1192 646 1248 c 0,6,7
 698 1300 698 1300 698 1370 c 0,8,9
 698 1442 698 1442 641 1472 c 0,10,11
 614 1486 614 1486 582 1486 c 0,12,13
 506 1486 506 1486 450 1424 c 0,14,15
 402 1372 402 1372 402 1308 c 0,0,1
600 1630 m 0,16,17
 728 1630 728 1630 798 1539 c 0,18,19
 848 1472 848 1472 848 1380 c 0,20,21
 848 1226 848 1226 730 1130 c 1,22,23
 627 1051 627 1051 504 1048 c 1,24,25
 377 1048 377 1048 305 1139 c 0,26,27
 252 1207 252 1207 252 1300 c 0,28,29
 252 1445 252 1445 365 1542 c 0,30,31
 462 1625 462 1625 586 1630 c 0,32,33
 594 1630 594 1630 600 1630 c 0,16,17
EndSplineSet
EndChar

StartChar: dieresis
Encoding: 168 168 101
Width: 1046
VWidth: 0
Flags: HW
HStem: 1192 264<279.757 502.721 679.757 902.721>
VStem: 246 294<1227.31 1419.18> 646 294<1227.31 1419.18>
LayerCount: 2
Back
SplineSet
646 1324 m 0
 646 1254 704 1192 772 1192 c 2
 796 1192 l 2
 878 1192 940 1250 940 1324 c 0
 940 1392 874 1456 812 1456 c 2
 786 1456 l 2
 704 1456 646 1396 646 1324 c 0
246 1324 m 0
 246 1254 304 1192 372 1192 c 2
 396 1192 l 2
 478 1192 540 1250 540 1324 c 0
 540 1392 474 1456 412 1456 c 2
 386 1456 l 2
 304 1456 246 1396 246 1324 c 0
EndSplineSet
Fore
SplineSet
246 1324 m 0,0,1
 246 1364 246 1364 269 1398 c 0,2,3
 309 1456 309 1456 386 1456 c 2,4,-1
 412 1456 l 2,5,6
 451 1456 451 1456 488 1426 c 0,7,8
 540 1383 540 1383 540 1324 c 0,9,10
 540 1283 540 1283 515 1249 c 0,11,12
 473 1192 473 1192 396 1192 c 2,13,-1
 372 1192 l 2,14,15
 332 1192 332 1192 297 1219 c 0,16,17
 246 1260 246 1260 246 1324 c 0,0,1
646 1324 m 0,18,19
 646 1364 646 1364 669 1398 c 0,20,21
 709 1456 709 1456 786 1456 c 2,22,-1
 812 1456 l 2,23,24
 851 1456 851 1456 888 1426 c 0,25,26
 940 1383 940 1383 940 1324 c 0,27,28
 940 1283 940 1283 915 1249 c 0,29,30
 873 1192 873 1192 796 1192 c 2,31,-1
 772 1192 l 2,32,33
 732 1192 732 1192 697 1219 c 0,34,35
 646 1260 646 1260 646 1324 c 0,18,19
EndSplineSet
EndChar

StartChar: dieresiscomb
Encoding: 776 776 102
Width: 1046
VWidth: 0
Flags: HW
HStem: 1192 264<293.99 471.813 614.155 791.813>
VStem: 246 258<1221.49 1424.74> 566 258<1221.83 1424.06>
LayerCount: 2
Back
SplineSet
566 1324 m 0
 566 1254 616 1192 676 1192 c 2
 698 1192 l 2
 770 1192 824 1250 824 1324 c 0
 824 1392 766 1456 712 1456 c 2
 688 1456 l 2
 616 1456 566 1396 566 1324 c 0
246 1324 m 0
 246 1254 298 1192 356 1192 c 2
 378 1192 l 2
 450 1192 504 1250 504 1324 c 0
 504 1392 446 1456 392 1456 c 2
 370 1456 l 2
 298 1456 246 1396 246 1324 c 0
EndSplineSet
Fore
SplineSet
246 1324 m 0,0,1
 246 1364 246 1364 267 1398 c 0,2,3
 303 1456 303 1456 370 1456 c 2,4,-1
 392 1456 l 2,5,6
 424 1456 424 1456 456 1428 c 0,7,8
 504 1385 504 1385 504 1324 c 0,9,10
 504 1283 504 1283 483 1249 c 0,11,12
 446 1192 446 1192 378 1192 c 2,13,-1
 356 1192 l 2,14,15
 323 1192 323 1192 293 1218 c 0,16,17
 246 1259 246 1259 246 1324 c 0,0,1
566 1324 m 0,18,19
 566 1363 566 1363 585 1397 c 0,20,21
 620 1456 620 1456 688 1456 c 2,22,-1
 712 1456 l 2,23,24
 744 1456 744 1456 776 1428 c 0,25,26
 824 1385 824 1385 824 1324 c 0,27,28
 824 1283 824 1283 803 1249 c 0,29,30
 766 1192 766 1192 698 1192 c 2,31,-1
 676 1192 l 2,32,33
 642 1192 642 1192 613 1217 c 0,34,35
 566 1257 566 1257 566 1324 c 0,18,19
EndSplineSet
EndChar

StartChar: divide
Encoding: 247 247 103
Width: 1040
VWidth: 0
Flags: HW
HStem: 102 264<275.757 498.721> 568 238<16 1039.06> 970 264<477.757 700.721>
VStem: 242 294<137.306 329.174> 444 294<1005.31 1197.18>
LayerCount: 2
Back
SplineSet
242 234 m 0
 242 164 300 102 368 102 c 2
 392 102 l 2
 474 102 536 160 536 234 c 0
 536 302 470 366 408 366 c 2
 382 366 l 2
 300 366 242 306 242 234 c 0
444 1102 m 0
 444 1032 502 970 570 970 c 2
 594 970 l 2
 676 970 738 1028 738 1102 c 0
 738 1170 672 1234 610 1234 c 2
 584 1234 l 2
 502 1234 444 1174 444 1102 c 0
42 806 m 2
 24 806 18 802 10 766 c 2
 -22 640 l 2
 -36 588 -24 568 16 568 c 2
 976 568 l 2
 1006 568 1038 594 1044 624 c 2
 1070 742 l 2
 1080 786 1062 806 1024 806 c 2
 42 806 l 2
EndSplineSet
Fore
SplineSet
42 806 m 2,0,1
 1024 806 l 2,2,3
 1083 805 1083 805 1070 742 c 1,4,-1
 1044 624 l 2,5,6
 1041 612 1041 612 1033 600 c 0,7,8
 1010 568 1010 568 976 568 c 2,9,-1
 16 568 l 2,10,11
 8 568 8 568 1 569 c 0,12,13
 -39 576 -39 576 -22 640 c 2,14,-1
 10 766 l 2,15,16
 13 781 13 781 17 791 c 0,17,18
 23 806 23 806 42 806 c 2,0,1
444 1102 m 0,19,20
 444 1142 444 1142 467 1176 c 0,21,22
 507 1234 507 1234 584 1234 c 2,23,-1
 610 1234 l 2,24,25
 649 1234 649 1234 686 1204 c 0,26,27
 738 1161 738 1161 738 1102 c 0,28,29
 738 1061 738 1061 713 1027 c 0,30,31
 671 970 671 970 594 970 c 2,32,-1
 570 970 l 2,33,34
 530 970 530 970 495 997 c 0,35,36
 444 1038 444 1038 444 1102 c 0,19,20
242 234 m 0,37,38
 242 274 242 274 265 308 c 0,39,40
 305 366 305 366 382 366 c 2,41,-1
 408 366 l 2,42,43
 447 366 447 366 484 336 c 0,44,45
 536 293 536 293 536 234 c 0,46,47
 536 193 536 193 511 159 c 0,48,49
 469 102 469 102 392 102 c 2,50,-1
 368 102 l 2,51,52
 328 102 328 102 293 129 c 0,53,54
 242 170 242 170 242 234 c 0,37,38
EndSplineSet
EndChar

StartChar: dollar
Encoding: 36 36 104
Width: 946
VWidth: 0
Flags: HW
VStem: -24 256<261.78 472.902> 120 292<753.251 1030.81> 392 292<377.096 458 472.623 620.939>
DStem2: 74 -18 316 -38 0.246999 0.969016<-13.9873 100.663 1489.79 1604.51>
LayerCount: 2
Back
SplineSet
564 1384 m 0
 326 1384 120 1068 120 808 c 0
 120 706 200 656 292 642 c 0
 410 626 392 550 392 458 c 0
 392 368 314 262 264 256 c 1
 222 256 230 460 232 528 c 0
 232 556 204 578 164 556 c 2
 18 474 l 1
 -4 456 -24 426 -24 392 c 0
 -24 228 14 52 220 52 c 0
 456 52 684 324 684 576 c 0
 684 770 604 808 506 826 c 0
 430 838 412 884 412 932 c 0
 412 1022 476 1140 508 1156 c 1
 572 1148 554 1020 552 946 c 1
 548 904 568 900 596 904 c 1
 762 958 l 1
 786 978 802 992 806 1018 c 0
 836 1240 770 1384 564 1384 c 0
702 1482 m 2
 710 1512 694 1526 660 1526 c 2
 516 1526 l 2
 486 1526 466 1512 458 1484 c 2
 386 1214 l 1
 632 1214 l 1
 702 1482 l 2
124 -80 m 2
 258 -80 l 2
 286 -80 308 -66 316 -38 c 2
 388 234 l 1
 144 234 l 1
 74 -18 l 2
 66 -52 80 -80 124 -80 c 2
EndSplineSet
Fore
SplineSet
124 -80 m 2,0,1
 112 -80 112 -80 102 -77 c 0,2,3
 63 -65 63 -65 74 -18 c 1,4,-1
 101 79 l 1,5,6
 -23 146 -23 146 -24 392 c 0,7,8
 -23 439 -23 439 18 474 c 1,9,-1
 164 556 l 2,10,11
 187 568 187 568 206 563 c 0,12,13
 232 556 232 556 232 528 c 0,14,15
 224 258 224 258 264 256 c 1,16,17
 297 261 297 261 337 311 c 0,18,19
 392 384 392 384 392 458 c 0,20,21
 392 464 392 464 392 473 c 0,22,23
 393 553 393 553 388 574 c 0,24,25
 373 631 373 631 292 642 c 0,26,27
 261 647 261 647 234 657 c 0,28,29
 120 699 120 699 120 808 c 0,30,31
 120 966 120 966 208 1124 c 0,32,33
 295 1279 295 1279 421 1346 c 1,34,-1
 458 1484 l 1,35,36
 470 1525 470 1525 516 1526 c 1,37,-1
 660 1526 l 2,38,39
 711 1525 711 1525 702 1482 c 1,40,-1
 672 1367 l 1,41,42
 844 1304 844 1304 806 1018 c 0,43,44
 805 1013 805 1013 804 1008 c 0,45,46
 798 987 798 987 762 958 c 1,47,-1
 596 904 l 1,48,49
 587 903 587 903 580 903 c 0,50,51
 548 904 548 904 552 946 c 0,52,53
 552 957 552 957 554 982 c 0,54,55
 556 1014 556 1014 556 1030 c 0,56,57
 559 1149 559 1149 508 1156 c 1,58,59
 490 1146 490 1146 464 1103 c 0,60,61
 412 1013 412 1013 412 932 c 0,62,63
 413 842 413 842 506 826 c 0,64,65
 563 816 563 816 596 796 c 0,66,67
 684 744 684 744 684 576 c 0,68,69
 684 418 684 418 579 269 c 0,70,71
 481 131 481 131 346 77 c 1,72,-1
 316 -38 l 1,73,74
 303 -79 303 -79 258 -80 c 1,75,-1
 124 -80 l 2,0,1
EndSplineSet
EndChar

StartChar: dotaccent
Encoding: 729 729 105
Width: 466
VWidth: 0
Flags: HW
HStem: 1192 264<279.757 502.721>
VStem: 246 294<1227.31 1419.18>
LayerCount: 2
Back
SplineSet
246 1324 m 0
 246 1254 304 1192 372 1192 c 2
 396 1192 l 2
 478 1192 540 1250 540 1324 c 0
 540 1392 474 1456 412 1456 c 2
 386 1456 l 2
 304 1456 246 1396 246 1324 c 0
EndSplineSet
Fore
SplineSet
246 1324 m 0,0,1
 246 1364 246 1364 269 1398 c 0,2,3
 309 1456 309 1456 386 1456 c 2,4,-1
 412 1456 l 2,5,6
 451 1456 451 1456 488 1426 c 0,7,8
 540 1383 540 1383 540 1324 c 0,9,10
 540 1283 540 1283 515 1249 c 0,11,12
 473 1192 473 1192 396 1192 c 2,13,-1
 372 1192 l 2,14,15
 332 1192 332 1192 297 1219 c 0,16,17
 246 1260 246 1260 246 1324 c 0,0,1
EndSplineSet
EndChar

StartChar: dotlessi
Encoding: 305 305 106
Width: 528
VWidth: 0
Flags: HW
HStem: 0 21G<13.4714 225.893> 1060 20G<292.107 504.529>
VStem: -4 526
DStem2: -4 46 262 44 0.246999 0.969016<7.16506 1077.21>
LayerCount: 2
Back
SplineSet
522 1034 m 2
 530 1066 512 1080 478 1080 c 2
 316 1080 l 2
 286 1080 264 1066 256 1036 c 2
 -4 46 l 2
 -12 14 6 0 40 0 c 2
 202 0 l 2
 232 0 254 14 262 44 c 2
 522 1034 l 2
EndSplineSet
Fore
SplineSet
522 1034 m 1,0,1
 262 44 l 1,2,3
 250 1 250 1 202 0 c 1,4,-1
 40 0 l 2,5,6
 -13 1 -13 1 -4 46 c 1,7,-1
 256 1036 l 1,8,9
 268 1079 268 1079 316 1080 c 1,10,-1
 478 1080 l 2,11,12
 531 1079 531 1079 522 1034 c 1,0,1
EndSplineSet
EndChar

StartChar: e
Encoding: 101 101 107
Width: 668
VWidth: 0
Flags: HMW
HStem: -28 252<243.007 288> 888 196<413.486 465.57>
VStem: 0 243<224.675 311.017> 466 216<683.385 885.919>
LayerCount: 2
Back
SplineSet
120 822 m 1
 50 674 0 504 0 350 c 0
 0 250 24 130 88 62 c 0
 154 -8 212 -16 286 -16 c 0
 408 -16 520 84 606 228 c 0
 692 372 750 558 750 726 c 0
 750 812 752 898 716 964 c 1
 660 1076 576 1098 490 1098 c 0
 304 1098 182 964 120 822 c 1
498 566 m 1
 490 528 458 414 410 324 c 0
 370 250 344 230 300 224 c 1
 250 234 246 270 246 350 c 0
 246 484 324 666 336 698 c 0
 374 794 412 864 472 864 c 0
 554 864 514 618 498 566 c 1
-584 284 m 1
 -356 350 -120 638 -120 852 c 0
 -120 940 -162 1016 -260 1058 c 0
 -358 1100 -470 1052 -558 968 c 0
 -700 836 -832 300 -796 126 c 0
 -772 12 -632 -24 -578 -38 c 1
 -510 -50 -284 142 -240 228 c 0
 -234 240 -242 262 -258 272 c 2
 -356 332 l 2
 -368 340 -386 338 -396 328 c 0
 -428 294 -494 222 -530 214 c 1
 -566 226 -566 236 -546 330 c 0
 -500 554 -466 682 -426 784 c 0
 -414 816 -384 878 -362 878 c 0
 -342 878 -336 866 -336 824 c 0
 -336 710 -428 540 -536 496 c 1
 -584 284 l 1
EndSplineSet
Fore
SplineSet
296 522 m 1,0,1
 354 559 354 559 401 635 c 0,2,3
 466 740 466 740 466 834 c 0,4,5
 466 852 466 852 464 864 c 0,6,7
 460 888 460 888 440 888 c 0,8,9
 435 888 435 888 429 884 c 0,10,11
 402 864 402 864 376 794 c 1,12,13
 337 694 337 694 296 522 c 1,0,1
249 304 m 1,14,15
 243 273 243 273 243 257 c 3,16,17
 243 236 243 236 270 224 c 1,18,19
 288 230 l 0,20,21
 321 244 321 244 391 324 c 0,22,23
 400 333 400 333 409 341 c 0,24,25
 424 356 424 356 446 342 c 2,26,-1
 544 282 l 2,27,28
 558 274 558 274 562 261 c 0,29,30
 567 246 567 246 562 238 c 0,31,32
 555 226 555 226 545 212 c 0,33,34
 494 142 494 142 394 62 c 0,35,36
 280 -28 280 -28 235 -28 c 0,37,-1
 224 -28 l 1,38,39
 30 22 30 22 6 136 c 0,40,41
 0 164 0 164 0 229 c 3,42,43
 0 400 0 400 79 643 c 0,44,45
 161 901 161 901 244 978 c 0,46,47
 272 1005 272 1005 303 1026 c 0,48,49
 387 1084 387 1084 464 1084 c 0,50,51
 505 1084 505 1084 548 1066 c 0,52,53
 682 1005 682 1005 682 862 c 0,54,55
 682 832 682 832 675 798 c 0,56,57
 647 651 647 651 520 504 c 0,58,59
 394 359 394 359 249 304 c 1,14,15
EndSplineSet
Colour: ff00
EndChar

StartChar: eight
Encoding: 56 56 112
Width: 908
VWidth: 0
Flags: HMW
HStem: -26 218<323.063 471.249> 569 267<474.593 517.226> 1153 237<483.544 649.528>
VStem: 36 270<203.32 446.427> 160 282<864.7 1112.53> 538 296<266.4 554.981> 667 267<908.972 1135.6>
LayerCount: 2
Back
SplineSet
508 762 m 1
 724 714 l 1
 792 776 934 888 934 1078 c 0
 934 1276 790 1390 612 1390 c 0
 344 1390 160 1146 160 928 c 0
 160 804 230 644 374 608 c 0
 488 580 538 542 538 440 c 0
 538 328 482 192 390 192 c 0
 326 192 306 252 306 328 c 0
 306 432 446 576 554 606 c 1
 322 712 l 1
 194 618 36 502 36 280 c 0
 36 88 156 -26 348 -26 c 0
 632 -26 834 232 834 446 c 0
 834 702 696 738 586 792 c 0
 470 848 444 918 442 980 c 1
 442 1092 510 1162 580 1152 c 0
 668 1140 672 1070 664 998 c 0
 658 928 578 850 508 834 c 1
 508 762 l 1
EndSplineSet
Fore
SplineSet
516 836 m 1,0,1
 555 848 555 848 594 881 c 0,2,3
 657 936 657 936 664 998 c 0,4,5
 668 1034 668 1034 667 1047 c 0,6,7
 658 1152 658 1152 566 1153 c 0,8,9
 530 1153 530 1153 500 1127 c 0,10,11
 442 1078 442 1078 442 980 c 1,12,13
 446 893 446 893 516 836 c 1,0,1
476 569 m 1,14,15
 431 539 431 539 391 496 c 0,16,17
 306 404 306 404 306 328 c 0,18,19
 306 192 306 192 390 192 c 3,20,21
 444 192 444 192 489 258 c 1,22,23
 538 335 538 335 538 440 c 0,24,25
 538 528 538 528 476 569 c 1,14,15
265 669 m 1,26,27
 243 690 243 690 224 718 c 0,28,29
 160 813 160 813 160 928 c 0,30,31
 160 963 160 963 167 1001 c 0,32,33
 194 1150 194 1150 304 1260 c 0,34,35
 435 1390 435 1390 612 1390 c 4,36,37
 734 1390 734 1390 819 1325 c 0,38,39
 934 1238 934 1238 934 1078 c 0,40,41
 934 943 934 943 837 825 c 0,42,43
 805 787 805 787 727 716 c 1,44,45
 730 714 730 714 734 711 c 0,46,47
 834 629 834 629 834 446 c 0,48,49
 834 404 834 404 823 358 c 0,50,51
 789 214 789 214 673 106 c 0,52,53
 532 -26 532 -26 348 -26 c 0,54,55
 235 -26 235 -26 157 25 c 0,56,57
 36 105 36 105 36 280 c 0,58,59
 36 380 36 380 80 466 c 0,60,61
 131 566 131 566 265 669 c 1,26,27
EndSplineSet
Colour: ff00
EndChar

StartChar: ellipsis
Encoding: 8230 8230 113
Width: 1398
VWidth: 0
Flags: HW
HStem: -36 264<93.7576 316.721 559.757 782.721 1025.76 1248.73>
VStem: 60 294<-0.693413 191.175> 526 294<-0.693413 191.175> 992 294<-0.693413 191.175>
CounterMasks: 1 70
LayerCount: 2
Back
SplineSet
60 96 m 0
 60 26 118 -36 186 -36 c 2
 210 -36 l 2
 292 -36 354 22 354 96 c 0
 354 164 288 228 226 228 c 2
 200 228 l 2
 118 228 60 168 60 96 c 0
526 96 m 0
 526 26 584 -36 652 -36 c 2
 676 -36 l 2
 758 -36 820 22 820 96 c 0
 820 164 754 228 692 228 c 2
 666 228 l 2
 584 228 526 168 526 96 c 0
992 96 m 0
 992 26 1050 -36 1118 -36 c 2
 1142 -36 l 2
 1224 -36 1286 22 1286 96 c 0
 1286 164 1220 228 1158 228 c 2
 1132 228 l 2
 1050 228 992 168 992 96 c 0
EndSplineSet
Fore
SplineSet
992 96 m 0,0,1
 992 136 992 136 1015 170 c 0,2,3
 1055 228 1055 228 1132 228 c 2,4,-1
 1158 228 l 2,5,6
 1197 228 1197 228 1234 198 c 0,7,8
 1286 155 1286 155 1286 96 c 0,9,10
 1286 55 1286 55 1261 21 c 0,11,12
 1219 -36 1219 -36 1142 -36 c 2,13,-1
 1118 -36 l 2,14,15
 1078 -36 1078 -36 1043 -9 c 0,16,17
 992 32 992 32 992 96 c 0,0,1
526 96 m 0,18,19
 526 136 526 136 549 170 c 0,20,21
 589 228 589 228 666 228 c 2,22,-1
 692 228 l 2,23,24
 731 228 731 228 768 198 c 0,25,26
 820 155 820 155 820 96 c 0,27,28
 820 55 820 55 795 21 c 0,29,30
 753 -36 753 -36 676 -36 c 2,31,-1
 652 -36 l 2,32,33
 612 -36 612 -36 577 -9 c 0,34,35
 526 32 526 32 526 96 c 0,18,19
60 96 m 0,36,37
 60 136 60 136 83 170 c 0,38,39
 123 228 123 228 200 228 c 2,40,-1
 226 228 l 2,41,42
 265 228 265 228 302 198 c 0,43,44
 354 155 354 155 354 96 c 0,45,46
 354 54 354 54 329 21 c 0,47,48
 287 -36 287 -36 210 -36 c 2,49,-1
 186 -36 l 2,50,51
 146 -36 146 -36 111 -9 c 0,52,53
 60 32 60 32 60 96 c 0,36,37
EndSplineSet
EndChar

StartChar: emdash
Encoding: 8212 8212 114
Width: 1804
VWidth: 0
Flags: HW
HStem: 524 238<146 1747.06>
LayerCount: 2
Back
SplineSet
172 762 m 2
 154 762 148 758 140 722 c 2
 108 596 l 2
 94 544 106 524 146 524 c 2
 1684 524 l 2
 1714 524 1746 550 1752 580 c 2
 1778 698 l 2
 1788 742 1770 762 1732 762 c 2
 172 762 l 2
EndSplineSet
Fore
SplineSet
172 762 m 2,0,1
 1732 762 l 2,2,3
 1791 761 1791 761 1778 698 c 1,4,-1
 1752 580 l 2,5,6
 1749 568 1749 568 1741 556 c 0,7,8
 1718 524 1718 524 1684 524 c 2,9,-1
 146 524 l 2,10,11
 138 524 138 524 131 525 c 0,12,13
 91 532 91 532 108 596 c 2,14,-1
 140 722 l 2,15,16
 143 737 143 737 147 747 c 0,17,18
 153 762 153 762 172 762 c 2,0,1
EndSplineSet
EndChar

StartChar: endash
Encoding: 8211 8211 115
Width: 1350
VWidth: 0
Flags: HW
HStem: 524 238<146 1169.06>
LayerCount: 2
Back
SplineSet
172 762 m 2
 154 762 148 758 140 722 c 2
 108 596 l 2
 94 544 106 524 146 524 c 2
 1106 524 l 2
 1136 524 1168 550 1174 580 c 2
 1200 698 l 2
 1210 742 1192 762 1154 762 c 2
 172 762 l 2
EndSplineSet
Fore
SplineSet
172 762 m 2,0,1
 1154 762 l 2,2,3
 1213 761 1213 761 1200 698 c 1,4,-1
 1174 580 l 2,5,6
 1171 568 1171 568 1163 556 c 0,7,8
 1140 524 1140 524 1106 524 c 2,9,-1
 146 524 l 2,10,11
 138 524 138 524 131 525 c 0,12,13
 91 532 91 532 108 596 c 2,14,-1
 140 722 l 2,15,16
 143 737 143 737 147 747 c 0,17,18
 153 762 153 762 172 762 c 2,0,1
EndSplineSet
EndChar

StartChar: equal
Encoding: 61 61 116
Width: 996
VWidth: 0
Flags: HW
HStem: 336 238<74 867.062> 738 238<174 967.061>
LayerCount: 2
Back
SplineSet
904 738 m 2
 934 738 966 764 972 794 c 2
 998 912 l 2
 1008 956 990 976 952 976 c 2
 228 976 l 2
 190 976 172 962 162 918 c 2
 136 810 l 2
 122 758 134 738 174 738 c 2
 904 738 l 2
804 336 m 2
 834 336 866 362 872 392 c 2
 898 510 l 2
 908 554 890 574 852 574 c 2
 128 574 l 2
 90 574 72 560 62 516 c 2
 36 408 l 2
 22 356 34 336 74 336 c 2
 804 336 l 2
EndSplineSet
Fore
SplineSet
804 336 m 2,0,1
 74 336 l 2,2,3
 66 336 66 336 59 337 c 0,4,5
 19 344 19 344 36 408 c 1,6,-1
 62 516 l 2,7,8
 65 529 65 529 70 540 c 0,9,10
 85 574 85 574 128 574 c 2,11,-1
 852 574 l 2,12,13
 911 573 911 573 898 510 c 1,14,-1
 872 392 l 2,15,16
 869 380 869 380 861 368 c 0,17,18
 839 336 839 336 804 336 c 2,0,1
904 738 m 2,19,-1
 174 738 l 2,20,21
 166 738 166 738 159 739 c 0,22,23
 119 746 119 746 136 810 c 1,24,-1
 162 918 l 2,25,26
 165 931 165 931 170 942 c 0,27,28
 185 976 185 976 228 976 c 2,29,-1
 952 976 l 2,30,31
 1011 975 1011 975 998 912 c 1,32,-1
 972 794 l 2,33,34
 969 782 969 782 961 770 c 0,35,36
 939 738 939 738 904 738 c 2,19,-1
EndSplineSet
Colour: ff00
EndChar

StartChar: eth
Encoding: 240 240 117
Width: 752
VWidth: 0
Flags: HW
HStem: -16 21G<270.786 360.03> 864 234<417.466 515.247> 1500 20G<436.594 642.802>
VStem: 0 246<249.316 569.172>
DStem2: 298 1342 402 1166 0.979662 0.200654<2.94232 159.248 418.516 557.041>
LayerCount: 2
Back
SplineSet
120 822 m 1
 50 674 0 504 0 350 c 0
 0 250 24 130 88 62 c 0
 154 -8 212 -16 286 -16 c 0
 408 -16 520 84 606 228 c 0
 692 372 750 558 750 726 c 0
 750 812 720 866 684 932 c 1
 628 1044 576 1098 490 1098 c 0
 304 1098 182 964 120 822 c 1
498 566 m 1
 490 528 458 414 410 324 c 0
 370 250 344 230 300 224 c 1
 250 234 246 270 246 350 c 0
 246 484 324 666 336 698 c 0
 374 794 412 864 472 864 c 0
 554 864 514 618 498 566 c 1
606 230 m 1
 738 424 800 764 764 1092 c 0
 748 1244 716 1388 698 1470 c 0
 692 1500 670 1520 640 1520 c 2
 454 1520 l 2
 424 1520 408 1500 418 1472 c 0
 454 1384 500 1236 522 1102 c 0
 550 926 554 716 500 568 c 1
 606 230 l 1
298 1342 m 2
 284 1338 268 1326 288 1294 c 1
 330 1198 l 1
 344 1172 366 1158 402 1166 c 2
 862 1262 l 2
 904 1270 910 1302 898 1326 c 2
 848 1420 l 2
 838 1438 820 1448 796 1444 c 2
 298 1342 l 2
EndSplineSet
Fore
SplineSet
298 1342 m 1,0,1
 454 1374 l 1,2,3
 442 1410 442 1410 418 1472 c 0,4,5
 414 1483 414 1483 415 1493 c 0,6,7
 419 1520 419 1520 454 1520 c 2,8,-1
 640 1520 l 2,9,10
 646 1520 646 1520 652 1519 c 0,11,12
 690 1512 690 1512 698 1470 c 1,13,-1
 708 1426 l 1,14,-1
 796 1444 l 1,15,16
 830 1449 830 1449 848 1420 c 1,17,-1
 898 1326 l 2,18,19
 903 1317 903 1317 903 1306 c 0,20,21
 905 1270 905 1270 862 1262 c 2,22,-1
 744 1237 l 1,23,24
 757 1163 757 1163 764 1092 c 0,25,26
 783 916 783 916 765 739 c 0,27,28
 735 432 735 432 616 245 c 1,29,-1
 606 228 l 2,30,31
 587 196 587 196 566 166 c 0,32,33
 434 -16 434 -16 286 -16 c 0,34,35
 256 -16 256 -16 235 -14 c 0,36,37
 152 -5 152 -5 88 62 c 0,38,39
 75 76 75 76 63 94 c 0,40,41
 0 191 0 191 0 350 c 0,42,43
 0 568 0 568 120 822 c 1,44,45
 146 882 146 882 183 932 c 0,46,47
 305 1098 305 1098 490 1098 c 0,48,49
 508 1098 508 1098 523 1095 c 1,50,-1
 522 1102 l 2,51,52
 517 1130 517 1130 505 1188 c 1,53,-1
 402 1166 l 2,54,55
 354 1156 354 1156 330 1198 c 1,56,-1
 288 1294 l 1,57,58
 266 1331 266 1331 298 1342 c 1,0,1
498 566 m 1,59,60
 513 616 513 616 520 699 c 0,61,62
 533 864 533 864 472 864 c 0,63,64
 452 864 452 864 433 853 c 0,65,66
 386 825 386 825 336 698 c 0,67,68
 335 696 335 696 334 693 c 0,69,70
 246 468 246 468 246 350 c 0,71,72
 246 295 246 295 251 271 c 0,73,74
 260 232 260 232 300 224 c 1,75,76
 318 227 318 227 333 233 c 0,77,78
 370 250 370 250 410 324 c 0,79,80
 418 339 418 339 426 356 c 0,81,82
 476 464 476 464 498 566 c 1,59,60
EndSplineSet
EndChar

StartChar: exclam
Encoding: 33 33 118
Width: 528
VWidth: 0
Flags: HW
HStem: -22 278<36.2087 265.606>
VStem: -6 310<20.144 217.157>
LayerCount: 2
Back
SplineSet
118 432 m 2
 110 400 128 386 162 386 c 2
 272 386 l 2
 302 386 324 400 332 430 c 1
 672 1420 l 1
 680 1452 662 1466 628 1466 c 2
 398 1466 l 2
 368 1466 346 1452 338 1422 c 2
 118 432 l 2
304 118 m 0
 304 190 242 256 172 256 c 2
 146 256 l 2
 60 256 -6 196 -6 118 c 0
 -6 46 64 -22 128 -22 c 2
 156 -22 l 2
 242 -22 304 42 304 118 c 0
EndSplineSet
Fore
SplineSet
304 118 m 0,0,1
 304 75 304 75 279 38 c 0,2,3
 237 -22 237 -22 156 -22 c 2,4,-1
 128 -22 l 2,5,6
 87 -22 87 -22 47 11 c 0,7,8
 -6 57 -6 57 -6 118 c 0,9,10
 -6 162 -6 162 21 198 c 0,11,12
 65 256 65 256 146 256 c 2,13,-1
 172 256 l 2,14,15
 216 256 216 256 252 225 c 0,16,17
 304 182 304 182 304 118 c 0,0,1
118 432 m 2,18,19
 338 1422 l 2,20,21
 348 1465 348 1465 398 1466 c 2,22,-1
 628 1466 l 2,23,24
 681 1465 681 1465 672 1420 c 1,25,-1
 332 430 l 2,26,27
 318 386 318 386 272 386 c 2,28,-1
 162 386 l 2,29,30
 109 387 109 387 118 432 c 2,18,19
EndSplineSet
Colour: ff00
EndChar

StartChar: exclamdown
Encoding: 161 161 119
Width: 528
VWidth: 0
Flags: HW
HStem: -22 21G<19.4714 299.893> 1188 278<408.394 637.792>
VStem: 370 310<1226.84 1423.86>
LayerCount: 2
Back
SplineSet
556 1012 m 2
 564 1044 546 1058 512 1058 c 2
 402 1058 l 2
 372 1058 350 1044 342 1014 c 1
 2 24 l 1
 -6 -8 12 -22 46 -22 c 2
 276 -22 l 2
 306 -22 328 -8 336 22 c 2
 556 1012 l 2
370 1326 m 0
 370 1254 432 1188 502 1188 c 2
 528 1188 l 2
 614 1188 680 1248 680 1326 c 0
 680 1398 610 1466 546 1466 c 2
 518 1466 l 2
 432 1466 370 1402 370 1326 c 0
EndSplineSet
Fore
SplineSet
370 1326 m 0,0,1
 370 1370 370 1370 395 1406 c 0,2,3
 438 1466 438 1466 518 1466 c 2,4,-1
 546 1466 l 2,5,6
 588 1466 588 1466 627 1433 c 0,7,8
 680 1387 680 1387 680 1326 c 0,9,10
 680 1282 680 1282 653 1246 c 0,11,12
 609 1188 609 1188 528 1188 c 2,13,-1
 502 1188 l 2,14,15
 459 1188 459 1188 422 1219 c 0,16,17
 370 1262 370 1262 370 1326 c 0,0,1
556 1012 m 2,18,19
 336 22 l 1,20,21
 324 -21 324 -21 276 -22 c 1,22,-1
 46 -22 l 2,23,24
 -7 -21 -7 -21 2 24 c 1,25,-1
 342 1014 l 1,26,27
 354 1057 354 1057 402 1058 c 1,28,-1
 512 1058 l 2,29,30
 565 1057 565 1057 556 1012 c 2,18,19
EndSplineSet
EndChar

StartChar: f
Encoding: 102 102 120
Width: 622
VWidth: 0
Flags: HMW
HStem: 0 21G<62.8961 242.886> 880 200<154.5 246 555 659.997>
DStem2: 24 46 278 44 0.258643 0.965973<6.26192 863.04 1136.16 1398.24>
LayerCount: 2
Back
SplineSet
220 0 m 2
 248 0 270 14 278 44 c 2
 558 1092 l 2
 592 1222 632 1314 716 1358 c 0
 744 1372 748 1402 732 1424 c 1
 700 1522 l 1
 688 1538 656 1540 628 1532 c 0
 466 1490 370 1348 312 1130 c 2
 24 46 l 2
 18 20 34 0 68 0 c 2
 220 0 l 2
584 1348 m 1
 790 1282 l 2
 820 1272 848 1268 860 1292 c 2
 912 1390 l 2
 932 1428 930 1476 892 1486 c 2
 708 1534 l 1
 646 1556 548 1504 528 1474 c 0
 522 1466 504 1434 496 1416 c 1
 584 1348 l 1
150 880 m 2
 608 880 l 2
 636 880 652 898 660 924 c 2
 694 1036 l 2
 704 1068 694 1080 664 1080 c 2
 200 1080 l 2
 180 1080 166 1076 156 1042 c 2
 124 928 l 2
 114 892 124 880 150 880 c 2
EndSplineSet
Fore
SplineSet
220 0 m 1,0,1
 68 0 l 2,2,3
 58 0 58 0 48 3 c 0,4,5
 16 13 16 13 24 46 c 1,6,-1
 246 880 l 1,7,-1
 150 880 l 1,8,9
 116 882 116 882 124 928 c 1,10,-1
 156 1042 l 2,11,12
 158 1049 158 1049 162 1058 c 0,13,14
 173 1080 173 1080 200 1080 c 2,15,-1
 299 1080 l 1,16,-1
 312 1130 l 2,17,18
 320 1162 320 1162 333 1201 c 0,19,20
 424 1473 424 1473 618 1529 c 1,21,22
 671 1546 671 1546 708 1534 c 1,23,-1
 892 1486 l 2,24,25
 908 1482 908 1482 918 1467 c 1,26,27
 936 1435 936 1435 912 1390 c 2,28,-1
 860 1292 l 2,29,30
 845 1264 845 1264 790 1282 c 2,31,-1
 666 1322 l 1,32,33
 665 1321 665 1321 663 1319 c 0,34,35
 601 1247 601 1247 580 1170 c 2,36,-1
 555 1080 l 1,37,-1
 664 1080 l 1,38,39
 699 1077 699 1077 694 1036 c 1,40,-1
 660 924 l 2,41,42
 647 882 647 882 608 880 c 1,43,-1
 501 880 l 1,44,-1
 278 44 l 2,45,46
 267 2 267 2 220 0 c 1,0,1
EndSplineSet
Colour: ff00
EndChar

StartChar: five
Encoding: 53 53 121
Width: 858
VWidth: 0
Flags: HMW
HStem: -23 186<213.579 362.803> 722 194<421.051 583.905> 1129 231<477 924>
VStem: 0 266<164.514 346.678> 532 247<418.437 720.403>
LayerCount: 2
Back
SplineSet
380 738 m 1
 496 1204 l 1
 410 1130 l 1
 890 1120 l 2
 916 1120 922 1124 930 1160 c 2
 962 1288 l 2
 976 1340 964 1360 924 1360 c 2
 326 1360 l 2
 296 1360 274 1348 266 1318 c 2
 100 658 l 1
 82 624 98 610 124 600 c 2
 266 544 l 1
 282 540 298 544 308 560 c 0
 352 640 430 716 498 722 c 1
 548 710 538 582 498 448 c 0
 448 286 332 158 304 162 c 0
 266 168 250 232 288 338 c 0
 302 372 288 384 254 388 c 1
 134 412 l 1
 102 416 92 408 80 394 c 0
 -78 214 8 -46 268 -22 c 1
 490 -42 694 158 764 502 c 1
 794 660 804 916 538 916 c 0
 358 916 202 800 122 658 c 1
 380 738 l 1
EndSplineSet
Fore
SplineSet
420 899 m 1,0,1
 478 916 478 916 538 916 c 3,2,3
 630 916 630 916 688 875 c 0,4,5
 779 809 779 809 779 649 c 0,6,7
 779 583 779 583 764 502 c 1,8,9
 709 233 709 233 569 99 c 0,10,11
 441 -22 441 -22 268 -23 c 1,12,13
 160 -23 160 -23 92 17 c 0,14,15
 0 72 0 72 0 196 c 3,16,17
 0 302 0 302 80 394 c 0,18,19
 81 395 81 395 83 397 c 0,20,21
 100 416 100 416 134 412 c 1,22,-1
 254 388 l 2,23,24
 261 387 261 387 267 386 c 0,25,26
 304 377 304 377 288 338 c 1,27,28
 267 278 267 278 266 229 c 3,29,30
 266 163 266 163 299 163 c 0,31,32
 334 163 334 163 391 240 c 0,33,34
 468 344 468 344 498 448 c 0,35,36
 532 562 532 562 532 643 c 0,37,38
 531 722 531 722 494 722 c 0,39,40
 462 722 462 722 416 685 c 0,41,42
 351 634 351 634 308 560 c 1,43,44
 294 538 294 538 266 544 c 1,45,-1
 124 600 l 2,46,47
 107 607 107 607 99 621 c 0,48,49
 94 632 94 632 102 665 c 2,50,-1
 266 1318 l 2,51,52
 276 1358 276 1358 326 1360 c 1,53,-1
 924 1360 l 2,54,55
 931 1360 931 1360 939 1359 c 0,56,57
 979 1352 979 1352 962 1288 c 1,58,-1
 930 1160 l 2,59,60
 925 1140 925 1140 921 1133 c 0,61,62
 914 1120 914 1120 890 1120 c 2,63,-1
 477 1129 l 1,64,-1
 420 899 l 1,0,1
EndSplineSet
Colour: ff00
EndChar

StartChar: four
Encoding: 52 52 122
Width: 942
VWidth: 0
Flags: HMW
HStem: 0 21G<437.599 637.893> 294 220<305 462 792 890.897> 1340 20G<610.532 838.091>
DStem2: 6 498 305 512 0.559268 0.828987<178.827 1017.02> 404 62 674 44 0.243886 0.969804<-7.31644 239.14 532.979 752.757>
LayerCount: 2
Back
SplineSet
574 738 m 2
 404 62 l 2
 396 30 410 0 444 0 c 2
 614 0 l 2
 644 0 666 14 674 44 c 2
 844 720 l 2
 852 752 838 782 804 782 c 2
 634 782 l 2
 604 782 582 768 574 738 c 2
828 294 m 2
 866 294 884 314 896 352 c 1
 936 454 l 1
 946 496 930 516 890 514 c 2
 172 512 l 1
 220 392 l 1
 850 1286 l 1
 880 1322 872 1360 826 1360 c 2
 630 1360 l 2
 590 1360 582 1350 570 1334 c 2
 6 498 l 2
 -56 406 -56 294 74 294 c 2
 828 294 l 2
EndSplineSet
Fore
SplineSet
828 294 m 2,0,1
 737 294 l 1,2,-1
 674 44 l 2,3,4
 663 2 663 2 614 0 c 1,5,-1
 444 0 l 2,6,7
 432 0 432 0 421 6 c 0,8,9
 395 23 395 23 404 62 c 2,10,-1
 462 294 l 1,11,-1
 74 294 l 2,12,13
 -12 294 -12 294 -31 357 c 1,14,15
 -48 419 -48 419 6 498 c 2,16,-1
 570 1334 l 2,17,18
 579 1348 579 1348 591 1353 c 0,19,20
 606 1360 606 1360 630 1360 c 2,21,-1
 826 1360 l 2,22,23
 850 1360 850 1360 862 1346 c 1,24,25
 880 1322 880 1322 850 1286 c 1,26,-1
 305 512 l 1,27,-1
 517 513 l 1,28,-1
 574 738 l 2,29,30
 585 780 585 780 634 782 c 1,31,-1
 804 782 l 2,32,33
 816 782 816 782 827 776 c 0,34,35
 853 759 853 759 844 720 c 2,36,-1
 792 514 l 1,37,-1
 890 514 l 1,38,39
 949 516 949 516 936 454 c 1,40,-1
 896 352 l 2,41,42
 895 347 895 347 893 342 c 0,43,44
 874 294 874 294 828 294 c 2,0,1
EndSplineSet
Colour: ff00
EndChar

StartChar: fourinferior
Encoding: 8324 8324 123
Width: 738
VWidth: 0
Flags: HW
HStem: 0 21G<306.093 478.045> 192 156<252 324 599 670 674.587 675.5>
DStem2: -10 324 252 348 0.614146 0.789192<179.847 743.359> 280 40 506 28 0.246999 0.969016<3.96248 158.158 377.25 505.898>
LayerCount: 2
Back
SplineSet
412 492 m 2
 280 40 l 2
 274 20 284 0 310 0 c 2
 460 0 l 2
 482 0 500 10 506 28 c 2
 638 480 l 2
 644 500 632 520 608 520 c 2
 458 520 l 2
 434 520 418 510 412 492 c 2
620 192 m 2
 650 192 662 204 672 228 c 2
 704 310 l 2
 712 336 700 350 670 348 c 1
 132 348 l 1
 176 254 l 1
 644 830 l 2
 662 854 646 884 620 884 c 2
 458 884 l 2
 432 884 422 876 404 856 c 2
 -10 324 l 2
 -58 264 -42 192 56 192 c 2
 620 192 l 2
EndSplineSet
Fore
SplineSet
620 192 m 2,0,1
 554 192 l 1,2,-1
 506 28 l 1,3,4
 496 1 496 1 460 0 c 1,5,-1
 310 0 l 2,6,7
 302 0 302 0 295 3 c 0,8,9
 272 13 272 13 280 40 c 2,10,-1
 324 192 l 1,11,-1
 56 192 l 2,12,13
 -10 193 -10 193 -30 232 c 1,14,15
 -50 274 -50 274 -10 324 c 2,16,-1
 404 856 l 2,17,18
 407 860 407 860 411 863 c 0,19,20
 431 884 431 884 458 884 c 2,21,-1
 620 884 l 2,22,23
 634 884 634 884 644 873 c 0,24,25
 662 853 662 853 644 830 c 1,26,-1
 252 348 l 1,27,-1
 370 348 l 1,28,-1
 412 492 l 1,29,30
 422 519 422 519 458 520 c 1,31,-1
 608 520 l 2,32,33
 617 520 617 520 625 516 c 0,34,35
 645 505 645 505 638 480 c 2,36,-1
 599 348 l 1,37,-1
 670 348 l 2,38,39
 672 348 672 348 675 348 c 0,40,41
 716 348 716 348 704 310 c 1,42,-1
 672 228 l 2,43,44
 671 225 671 225 669 221 c 0,45,46
 655 192 655 192 620 192 c 2,0,1
EndSplineSet
EndChar

StartChar: foursuperior
Encoding: 8308 8308 124
Width: 738
VWidth: 0
Flags: HW
HStem: 832 156<334 406 681 752 756.587 757.5>
DStem2: 72 964 334 988 0.614146 0.789192<179.847 743.359> 362 680 588 668 0.246999 0.969016<3.96248 158.158 377.25 505.898>
LayerCount: 2
Back
SplineSet
494 1132 m 2
 362 680 l 2
 356 660 366 640 392 640 c 2
 542 640 l 2
 564 640 582 650 588 668 c 2
 720 1120 l 2
 726 1140 714 1160 690 1160 c 2
 540 1160 l 2
 516 1160 500 1150 494 1132 c 2
702 832 m 2
 732 832 744 844 754 868 c 2
 786 950 l 2
 794 976 782 990 752 988 c 1
 214 988 l 1
 258 894 l 1
 726 1470 l 2
 744 1494 728 1524 702 1524 c 2
 540 1524 l 2
 514 1524 504 1516 486 1496 c 2
 72 964 l 2
 24 904 40 832 138 832 c 2
 702 832 l 2
EndSplineSet
Fore
SplineSet
702 832 m 2,0,1
 636 832 l 1,2,-1
 588 668 l 1,3,4
 578 641 578 641 542 640 c 1,5,-1
 392 640 l 2,6,7
 384 640 384 640 377 643 c 0,8,9
 354 653 354 653 362 680 c 2,10,-1
 406 832 l 1,11,-1
 138 832 l 2,12,13
 72 833 72 833 52 872 c 1,14,15
 32 914 32 914 72 964 c 2,16,-1
 486 1496 l 2,17,18
 489 1500 489 1500 493 1503 c 0,19,20
 513 1524 513 1524 540 1524 c 2,21,-1
 702 1524 l 2,22,23
 715 1524 715 1524 726 1513 c 0,24,25
 744 1493 744 1493 726 1470 c 1,26,-1
 334 988 l 1,27,-1
 452 988 l 1,28,-1
 494 1132 l 1,29,30
 504 1159 504 1159 540 1160 c 1,31,-1
 690 1160 l 2,32,33
 699 1160 699 1160 707 1156 c 0,34,35
 727 1145 727 1145 720 1120 c 2,36,-1
 681 988 l 1,37,-1
 752 988 l 2,38,39
 754 988 754 988 757 988 c 0,40,41
 798 988 798 988 786 950 c 1,42,-1
 754 868 l 2,43,44
 753 865 753 865 751 861 c 0,45,46
 737 832 737 832 702 832 c 2,0,1
EndSplineSet
EndChar

StartChar: fraction
Encoding: 8260 8260 125
Width: 400
VWidth: 0
Flags: HW
LayerCount: 2
Back
SplineSet
124 -54 m 2
 156 -54 174 -52 208 -18 c 2
 1676 1456 l 2
 1700 1480 1690 1528 1656 1528 c 2
 1462 1528 l 2
 1430 1528 1400 1516 1366 1482 c 2
 -90 20 l 2
 -114 -4 -102 -52 -68 -52 c 2
 124 -54 l 2
EndSplineSet
Fore
SplineSet
124 -54 m 2,0,1
 -68 -52 l 2,2,3
 -89 -51 -89 -51 -99 -30 c 1,4,5
 -111 -1 -111 -1 -90 20 c 2,6,-1
 1366 1482 l 2,7,8
 1411 1527 1411 1527 1462 1528 c 1,9,-1
 1656 1528 l 2,10,11
 1677 1527 1677 1527 1686 1506 c 1,12,13
 1697 1477 1697 1477 1676 1456 c 2,14,-1
 208 -18 l 2,15,16
 197 -29 197 -29 187 -37 c 0,17,18
 164 -54 164 -54 124 -54 c 2,0,1
EndSplineSet
EndChar

StartChar: g
Encoding: 103 103 126
Width: 832
VWidth: 0
Flags: HMW
HStem: -380 226<166.428 293.757> -6 304<172 280> 867 209<462.398 565.418>
VStem: -5 269<313.092 489.764>
DStem2: 68 -56 158 -346 0.86929 -0.494302<-40.2175 211.152> 296 -104 520 -130 0.275546 0.961288<-58.5956 254.804 584.884 995.862 1165.09 1237.25>
LayerCount: 2
Back
SplineSet
802 1080 m 2
 680 1078 l 2
 652 1078 630 1062 616 1012 c 2
 296 -104 l 2
 282 -150 264 -162 242 -150 c 2
 68 -56 l 2
 42 -42 24 -48 2 -72 c 1
 -62 -158 l 2
 -78 -178 -84 -212 -46 -230 c 1
 158 -346 l 2
 250 -400 290 -386 382 -336 c 0
 456 -296 496 -218 520 -130 c 0
 546 -34 754 662 844 1026 c 0
 846 1036 854 1080 802 1080 c 2
608 1010 m 1
 574 870 l 1
 558 824 l 1
 512 668 444 518 386 418 c 0
 342 344 300 298 280 298 c 0
 262 298 260 308 270 358 c 0
 298 510 404 814 462 858 c 0
 492 880 586 854 606 836 c 1
 642 994 l 1
 602 1034 526 1076 446 1076 c 0
 396 1076 336 1062 286 1024 c 0
 172 938 24 542 -4 254 c 0
 -12 176 20 112 72 60 c 0
 98 34 138 -6 172 -6 c 2
 186 -6 l 2
 234 -6 274 30 352 124 c 2
 514 318 l 1
 608 1010 l 1
EndSplineSet
Fore
SplineSet
802 1080 m 1,0,1
 852 1078 852 1078 844 1026 c 1,2,3
 777 756 777 756 571 48 c 0,4,5
 526 -106 526 -106 520 -130 c 0,6,7
 478 -283 478 -283 382 -336 c 0,8,9
 319 -370 319 -370 286 -378 c 0,10,11
 274 -380 274 -380 262 -380 c 0,12,13
 216 -380 216 -380 158 -346 c 1,14,-1
 -46 -230 l 2,15,16
 -61 -222 -61 -222 -68 -213 c 0,17,18
 -86 -187 -86 -187 -62 -158 c 1,19,-1
 2 -72 l 2,20,21
 6 -68 l 0,22,23
 35 -38 35 -38 68 -56 c 2,24,-1
 242 -150 l 2,25,26
 249 -154 249 -154 256 -154 c 0,27,28
 280 -154 280 -154 296 -104 c 1,29,-1
 366 141 l 1,30,-1
 352 124 l 2,31,32
 317 81 317 81 290 53 c 0,33,34
 232 -6 232 -6 186 -6 c 2,35,-1
 172 -6 l 1,36,37
 138 -4 138 -4 72 60 c 1,38,39
 -5 142 -5 142 -5 232 c 3,40,41
 -5 259 -5 259 12 372 c 0,42,43
 29 479 29 479 119 739 c 0,44,45
 195 954 195 954 286 1024 c 0,46,47
 356 1076 356 1076 446 1076 c 3,48,49
 536 1076 536 1076 617 1016 c 1,50,51
 617 1017 617 1017 618 1018 c 0,52,53
 636 1077 636 1077 680 1078 c 2,54,-1
 802 1080 l 1,0,1
568 854 m 1,55,56
 564 855 564 855 560 857 c 0,57,58
 523 868 523 868 498 867 c 0,59,60
 475 867 475 867 462 858 c 0,61,62
 427 831 427 831 371 690 c 0,63,64
 292 492 292 492 270 358 c 0,65,66
 264 321 264 321 264 313 c 3,67,68
 265 298 265 298 280 298 c 3,69,70
 284 298 284 298 288 300 c 0,71,72
 325 317 325 317 386 418 c 1,73,74
 492 601 492 601 558 824 c 1,75,-1
 568 854 l 1,55,56
EndSplineSet
Colour: ff00
EndChar

StartChar: germandbls
Encoding: 223 223 127
Width: 972
VWidth: 0
Flags: HMW
HStem: -32 414<387.224 548.551> 1326 218<577.045 745.06>
VStem: 294 260<179.082 325.556> 460 288<646.914 841.889> 648 284<179.63 453.624>
DStem2: -58 46 196 44 0.246999 0.969016<4.2446 1307.72>
LayerCount: 2
Back
SplineSet
138 0 m 2
 166 0 188 14 196 44 c 2
 476 1092 l 2
 506 1204 586 1346 666 1346 c 0
 736 1346 820 1226 664 1060 c 0
 564 956 460 814 460 678 c 0
 460 472 648 524 648 328 c 0
 648 278 636 180 592 176 c 1
 554 176 552 296 554 350 c 0
 554 376 530 390 492 378 c 2
 334 328 l 2
 308 320 294 288 294 258 c 0
 294 118 340 -32 538 -32 c 0
 780 -32 932 172 932 354 c 0
 932 592 748 624 748 742 c 0
 748 808 814 868 866 932 c 1
 1132 1206 966 1544 692 1544 c 0
 436 1544 278 1312 222 1100 c 2
 -58 46 l 2
 -64 20 -48 0 -14 0 c 2
 138 0 l 2
EndSplineSet
Fore
SplineSet
138 0 m 1,0,1
 -14 0 l 2,2,3
 -24 0 -24 0 -34 3 c 0,4,5
 -66 13 -66 13 -58 46 c 1,6,-1
 222 1100 l 2,7,8
 261 1248 261 1248 348 1361 c 0,9,10
 489 1544 489 1544 692 1544 c 0,11,12
 816 1544 816 1544 903 1461 c 0,13,14
 996 1373 996 1373 1000 1241 c 0,15,16
 1006 1075 1006 1075 866 932 c 1,17,18
 856 920 856 920 834 895 c 0,19,20
 819 878 819 878 812 869 c 0,21,22
 748 793 748 793 748 742 c 0,23,24
 748 724 748 724 754 705 c 0,25,26
 765 674 765 674 816 619 c 0,27,28
 840 593 840 593 852 579 c 0,29,30
 932 482 932 482 932 354 c 0,31,32
 932 338 932 338 930 321 c 0,33,34
 917 189 917 189 823 89 c 0,35,36
 708 -32 708 -32 538 -32 c 0,37,38
 505 -32 505 -32 474 -26 c 0,39,40
 291 11 291 11 294 258 c 0,41,42
 294 265 294 265 295 272 c 0,43,44
 302 318 302 318 334 328 c 2,45,-1
 492 378 l 2,46,47
 508 383 508 383 523 382 c 0,48,49
 555 379 555 379 554 350 c 0,50,51
 554 339 554 339 553 326 c 0,52,53
 552 176 552 176 592 176 c 1,54,55
 607 178 607 178 620 195 c 0,56,57
 648 237 648 237 648 328 c 0,58,59
 648 385 648 385 626 425 c 0,60,61
 608 456 608 456 556 498 c 0,62,63
 532 517 532 517 520 528 c 0,64,65
 460 585 460 585 460 678 c 0,66,67
 461 842 461 842 664 1060 c 0,68,69
 703 1102 703 1102 726 1143 c 0,70,71
 754 1195 754 1195 753 1238 c 0,72,73
 753 1326 753 1326 666 1326 c 0,74,75
 620 1326 620 1326 571 1276 c 0,76,77
 509 1214 509 1214 476 1092 c 2,78,-1
 196 44 l 2,79,80
 185 2 185 2 138 0 c 1,0,1
EndSplineSet
EndChar

StartChar: grave
Encoding: 96 96 128
Width: 606
VWidth: 0
Flags: HW
HStem: 1150 298<349.25 414.375>
LayerCount: 2
Back
SplineSet
346 1448 m 2
 374 1448 392 1438 408 1414 c 2
 544 1194 l 2
 562 1166 542 1150 518 1150 c 2
 432 1150 l 2
 404 1150 384 1158 364 1178 c 2
 128 1412 l 2
 108 1430 120 1448 134 1448 c 2
 346 1448 l 2
EndSplineSet
Fore
SplineSet
346 1448 m 1,0,1
 386 1447 386 1447 408 1414 c 1,2,-1
 544 1194 l 2,3,4
 563 1165 563 1165 536 1153 c 0,5,6
 527 1150 527 1150 518 1150 c 2,7,-1
 432 1150 l 2,8,9
 392 1151 392 1151 364 1178 c 2,10,-1
 128 1412 l 1,11,12
 108 1430 108 1430 123 1443 c 0,13,14
 128 1447 128 1447 134 1448 c 2,15,-1
 346 1448 l 1,0,1
EndSplineSet
EndChar

StartChar: greater
Encoding: 62 62 129
Width: 1004
VWidth: 0
Flags: HW
LayerCount: 2
Back
SplineSet
736 640 m 1
 120 454 l 2
 88 444 60 414 52 382 c 2
 28 268 l 2
 18 230 28 196 82 214 c 2
 882 488 l 2
 916 498 944 528 950 560 c 2
 970 654 l 2
 978 686 962 718 930 732 c 2
 254 1016 l 2
 216 1032 200 1026 192 984 c 2
 166 870 l 2
 160 838 172 806 204 796 c 2
 728 602 l 1
 736 640 l 1
EndSplineSet
Fore
SplineSet
675 622 m 1,0,-1
 204 796 l 2,1,2
 197 798 197 798 190 803 c 0,3,4
 157 824 157 824 166 870 c 1,5,-1
 192 984 l 2,6,7
 195 999 195 999 200 1010 c 0,8,9
 213 1034 213 1034 254 1016 c 2,10,-1
 930 732 l 2,11,12
 938 728 938 728 946 723 c 0,13,14
 981 696 981 696 970 654 c 1,15,-1
 950 560 l 2,16,17
 948 551 948 551 944 542 c 0,18,19
 925 501 925 501 882 488 c 1,20,-1
 82 214 l 2,21,22
 61 207 61 207 47 210 c 0,23,24
 15 217 15 217 28 268 c 1,25,-1
 52 382 l 2,26,27
 54 390 54 390 58 399 c 0,28,29
 78 441 78 441 120 454 c 2,30,-1
 675 622 l 1,0,-1
EndSplineSet
EndChar

StartChar: guillemotleft
Encoding: 171 171 130
Width: 872
VWidth: 0
Flags: HW
DStem2: 392 536 188 522 0.309218 -0.950991<0 295.042> 201.554 604.854 392 536 0.605771 0.795639<60.5837 448.103> 760 536 556 522 0.309218 -0.950991<0 295.042> 569.554 604.854 760 536 0.605771 0.795639<60.5837 448.103>
LayerCount: 2
Back
SplineSet
392 536 m 1
 498 210 l 2
 508 182 494 162 464 162 c 2
 368 162 l 2
 338 162 310 180 300 208 c 2
 188 522 l 2
 178 552 186 586 204 608 c 2
 460 902 l 2
 480 924 512 940 542 940 c 2
 638 940 l 2
 668 940 684 918 660 888 c 2
 392 536 l 1
760 536 m 1
 866 210 l 2
 876 182 862 162 832 162 c 2
 736 162 l 2
 706 162 678 180 668 208 c 2
 556 522 l 2
 546 552 554 586 572 608 c 2
 828 902 l 2
 848 924 880 940 910 940 c 2
 1006 940 l 2
 1036 940 1052 918 1028 888 c 2
 760 536 l 1
EndSplineSet
Fore
SplineSet
760 536 m 1,0,-1
 866 210 l 1,1,2
 878 176 878 176 850 165 c 0,3,4
 841 162 841 162 832 162 c 2,5,-1
 736 162 l 2,6,7
 693 162 693 162 673 197 c 0,8,9
 670 203 670 203 668 208 c 2,10,-1
 556 522 l 2,11,12
 541 566 541 566 570 605 c 0,13,14
 572 607 572 607 572 608 c 2,15,-1
 828 902 l 1,16,17
 863 939 863 939 910 940 c 2,18,-1
 1006 940 l 2,19,20
 1036 940 1036 940 1039 918 c 1,21,22
 1040 904 1040 904 1028 888 c 2,23,-1
 760 536 l 1,0,-1
392 536 m 1,24,-1
 498 210 l 1,25,26
 510 176 510 176 482 165 c 0,27,28
 473 162 473 162 464 162 c 2,29,-1
 368 162 l 2,30,31
 325 162 325 162 305 197 c 0,32,33
 302 203 302 203 300 208 c 2,34,-1
 188 522 l 2,35,36
 173 566 173 566 202 605 c 0,37,38
 204 607 204 607 204 608 c 2,39,-1
 460 902 l 1,40,41
 495 939 495 939 542 940 c 2,42,-1
 638 940 l 2,43,44
 669 940 669 940 671 918 c 1,45,46
 672 904 672 904 660 888 c 2,47,-1
 392 536 l 1,24,-1
EndSplineSet
EndChar

StartChar: guillemotright
Encoding: 187 187 131
Width: 872
VWidth: 0
Flags: HW
DStem2: 530 580 326 566 0.309218 -0.950991<-344.808 -49.7666> 326 566 516.446 497.146 0.605771 0.795639<-387.519 -332.396 -332.396 0> 906 580 702 566 0.309218 -0.950991<-344.808 -49.7666> 702 566 892.446 497.146 0.605771 0.795639<-387.519 -332.396 -332.396 0>
LayerCount: 2
Back
SplineSet
326 566 m 1
 220 892 l 2
 210 920 224 940 254 940 c 2
 350 940 l 2
 380 940 408 922 418 894 c 2
 530 580 l 2
 540 550 532 516 514 494 c 2
 258 200 l 2
 238 178 206 162 176 162 c 2
 80 162 l 2
 50 162 34 184 58 214 c 2
 326 566 l 1
702 566 m 1
 596 892 l 2
 586 920 600 940 630 940 c 2
 726 940 l 2
 756 940 784 922 794 894 c 2
 906 580 l 2
 916 550 908 516 890 494 c 2
 634 200 l 2
 614 178 582 162 552 162 c 2
 456 162 l 2
 426 162 410 184 434 214 c 2
 702 566 l 1
EndSplineSet
Fore
SplineSet
702 566 m 1,0,-1
 596 892 l 1,1,2
 584 926 584 926 612 937 c 0,3,4
 621 940 621 940 630 940 c 2,5,-1
 726 940 l 2,6,7
 769 940 769 940 789 905 c 0,8,9
 792 899 792 899 794 894 c 2,10,-1
 906 580 l 2,11,12
 921 536 921 536 892 497 c 0,13,14
 890 495 890 495 890 494 c 2,15,-1
 634 200 l 1,16,17
 599 163 599 163 552 162 c 2,18,-1
 456 162 l 2,19,20
 425 162 425 162 423 184 c 1,21,22
 422 198 422 198 434 214 c 2,23,-1
 702 566 l 1,0,-1
326 566 m 1,24,-1
 220 892 l 1,25,26
 208 926 208 926 236 937 c 0,27,28
 245 940 245 940 254 940 c 2,29,-1
 350 940 l 2,30,31
 393 940 393 940 413 905 c 0,32,33
 416 899 416 899 418 894 c 2,34,-1
 530 580 l 2,35,36
 545 536 545 536 516 497 c 0,37,38
 514 495 514 495 514 494 c 2,39,-1
 258 200 l 1,40,41
 223 163 223 163 176 162 c 2,42,-1
 80 162 l 2,43,44
 49 162 49 162 47 184 c 1,45,46
 46 198 46 198 58 214 c 2,47,-1
 326 566 l 1,24,-1
EndSplineSet
EndChar

StartChar: guilsinglleft
Encoding: 8249 8249 132
Width: 572
VWidth: 0
Flags: HW
VStem: 188 483
DStem2: 392 536 188 522 0.309218 -0.950991<0 295.042> 201.554 604.854 392 536 0.605771 0.795639<60.5837 448.103>
LayerCount: 2
Back
SplineSet
392 536 m 1
 498 210 l 2
 508 182 494 162 464 162 c 2
 368 162 l 2
 338 162 310 180 300 208 c 2
 188 522 l 2
 178 552 186 586 204 608 c 2
 460 902 l 2
 480 924 512 940 542 940 c 2
 638 940 l 2
 668 940 684 918 660 888 c 2
 392 536 l 1
EndSplineSet
Fore
SplineSet
392 536 m 1,0,-1
 498 210 l 1,1,2
 510 176 510 176 482 165 c 0,3,4
 473 162 473 162 464 162 c 2,5,-1
 368 162 l 2,6,7
 325 162 325 162 305 197 c 0,8,9
 302 203 302 203 300 208 c 2,10,-1
 188 522 l 2,11,12
 173 566 173 566 202 605 c 0,13,14
 204 607 204 607 204 608 c 2,15,-1
 460 902 l 1,16,17
 495 939 495 939 542 940 c 2,18,-1
 638 940 l 2,19,20
 669 940 669 940 671 918 c 1,21,22
 672 904 672 904 660 888 c 2,23,-1
 392 536 l 1,0,-1
EndSplineSet
EndChar

StartChar: guilsinglright
Encoding: 8250 8250 133
Width: 572
VWidth: 0
Flags: HW
VStem: 47 483
DStem2: 530 580 326 566 0.309218 -0.950991<-344.808 -49.7666> 326 566 516.446 497.146 0.605771 0.795639<-387.519 -332.396 -332.396 0>
LayerCount: 2
Back
SplineSet
326 566 m 1
 220 892 l 2
 210 920 224 940 254 940 c 2
 350 940 l 2
 380 940 408 922 418 894 c 2
 530 580 l 2
 540 550 532 516 514 494 c 2
 258 200 l 2
 238 178 206 162 176 162 c 2
 80 162 l 2
 50 162 34 184 58 214 c 2
 326 566 l 1
EndSplineSet
Fore
SplineSet
326 566 m 1,0,-1
 220 892 l 1,1,2
 208 926 208 926 236 937 c 0,3,4
 245 940 245 940 254 940 c 2,5,-1
 350 940 l 2,6,7
 393 940 393 940 413 905 c 0,8,9
 416 899 416 899 418 894 c 2,10,-1
 530 580 l 2,11,12
 545 536 545 536 516 497 c 0,13,14
 514 495 514 495 514 494 c 2,15,-1
 258 200 l 1,16,17
 223 163 223 163 176 162 c 2,18,-1
 80 162 l 2,19,20
 49 162 49 162 47 184 c 1,21,22
 46 198 46 198 58 214 c 2,23,-1
 326 566 l 1,0,-1
EndSplineSet
EndChar

StartChar: h
Encoding: 104 104 134
Width: 870
VWidth: 0
Flags: HMW
HStem: 0 21G<19.5291 203.893> 660 422<564 710> 1498 20G<370.107 586.529>
DStem2: -26 64 240 44 0.247004 0.969015<-10.1287 310.782 845.969 1511.83> 408.27 39.8115 644 28 0.254802 0.966993<8.1819 616.774>
LayerCount: 2
Back
SplineSet
148 0 m 1
 172 0 190 12 210 38 c 1
 260 114 444 496 532 626 c 0
 544 642 552 660 564 660 c 0
 582 660 572 638 562 600 c 0
 536 492 424 90 406 32 c 0
 400 12 422 0 432 0 c 2
 594 -2 l 2
 620 -2 638 8 644 28 c 2
 888 954 l 2
 916 1060 850 1082 804 1082 c 2
 710 1082 l 2
 646 1082 604 1050 560 990 c 2
 354 702 l 1
 148 0 l 1
604 1472 m 2
 612 1504 594 1518 560 1518 c 2
 394 1518 l 2
 364 1518 342 1504 334 1474 c 2
 -26 64 l 2
 -34 30 -20 0 26 0 c 2
 180 0 l 2
 210 0 232 14 240 44 c 2
 604 1472 l 2
EndSplineSet
Fore
SplineSet
604 1472 m 1,0,1
 437 819 l 1,2,-1
 560 990 l 2,3,4
 567 1000 567 1000 578 1014 c 0,5,6
 636 1082 636 1082 710 1082 c 2,7,-1
 804 1082 l 2,8,9
 821 1082 821 1082 837 1078 c 0,10,11
 915 1057 915 1057 888 954 c 2,12,-1
 644 28 l 1,13,14
 635 0 635 0 594 0 c 2,15,-1
 432 0 l 2,16,17
 424 0 424 0 412 10 c 0,18,19
 402 18 402 18 408 40 c 0,20,21
 514 406 514 406 562 600 c 0,22,23
 577 660 577 660 571 634 c 1,24,25
 578 660 578 660 564 660 c 3,26,27
 553 660 553 660 532 626 c 0,28,29
 448 487 448 487 332 264 c 0,30,31
 283 169 283 169 262 130 c 1,32,-1
 240 44 l 1,33,34
 228 1 228 1 180 0 c 1,35,-1
 148 0 l 1,36,-1
 26 0 l 2,37,38
 14 0 14 0 2 3 c 0,39,40
 -38 16 -38 16 -26 64 c 2,41,-1
 334 1474 l 1,42,43
 346 1517 346 1517 394 1518 c 1,44,-1
 560 1518 l 2,45,46
 613 1518 613 1518 604 1472 c 1,0,1
EndSplineSet
Colour: ff00
EndChar

StartChar: hungarumlaut
Encoding: 733 733 135
Width: 932
VWidth: 0
Flags: HW
HStem: 1150 298<153.531 199.25 310.436 318 354 364.474 448.594 476.5>
LayerCount: 2
Back
SplineSet
650 1448 m 2
 518 1448 l 2
 490 1448 472 1438 456 1414 c 2
 298 1184 l 2
 288 1168 290 1150 318 1150 c 2
 396 1150 l 2
 424 1150 444 1158 464 1178 c 2
 664 1398 l 1
 694 1428 676 1448 650 1448 c 2
354 1448 m 2
 222 1448 l 2
 194 1448 176 1438 160 1414 c 2
 22 1184 l 2
 12 1168 14 1150 42 1150 c 2
 120 1150 l 2
 148 1150 168 1158 188 1178 c 1
 368 1398 l 2
 396 1430 380 1448 354 1448 c 2
EndSplineSet
Fore
SplineSet
354 1448 m 2,0,1
 364 1448 364 1448 373 1444 c 0,2,3
 397 1431 397 1431 368 1398 c 1,4,-1
 188 1178 l 1,5,6
 160 1151 160 1151 120 1150 c 2,7,-1
 42 1150 l 2,8,9
 34 1150 34 1150 28 1152 c 0,10,11
 7 1160 7 1160 22 1184 c 2,12,-1
 160 1414 l 1,13,14
 182 1447 182 1447 222 1448 c 1,15,-1
 354 1448 l 2,0,1
650 1448 m 2,16,17
 662 1448 662 1448 671 1442 c 0,18,19
 693 1427 693 1427 664 1398 c 1,20,-1
 464 1178 l 1,21,22
 436 1151 436 1151 396 1150 c 2,23,-1
 318 1150 l 2,24,25
 310 1150 310 1150 304 1152 c 0,26,27
 283 1160 283 1160 298 1184 c 1,28,-1
 456 1414 l 2,29,30
 478 1447 478 1447 518 1448 c 1,31,-1
 650 1448 l 2,16,17
EndSplineSet
EndChar

StartChar: hyphen
Encoding: 45 45 136
Width: 936
VWidth: 0
Flags: HW
HStem: 524 238<146 809.062>
LayerCount: 2
Back
SplineSet
172 762 m 2
 154 762 148 758 140 722 c 2
 108 596 l 2
 94 544 106 524 146 524 c 2
 746 524 l 2
 776 524 808 550 814 580 c 2
 840 698 l 2
 850 742 832 762 794 762 c 2
 172 762 l 2
EndSplineSet
Fore
SplineSet
172 762 m 2,0,1
 794 762 l 2,2,3
 853 761 853 761 840 698 c 1,4,-1
 814 580 l 2,5,6
 811 568 811 568 803 556 c 0,7,8
 780 524 780 524 746 524 c 2,9,-1
 146 524 l 2,10,11
 138 524 138 524 131 525 c 0,12,13
 91 532 91 532 108 596 c 2,14,-1
 140 722 l 2,15,16
 143 737 143 737 147 747 c 0,17,18
 153 762 153 762 172 762 c 2,0,1
EndSplineSet
Colour: ff00
EndChar

StartChar: i
Encoding: 105 105 137
Width: 494
VWidth: 0
Flags: HMW
HStem: 0 21G<-12.5286 199.893> 1060 20G<266.107 478.529> 1210 278<318.394 547.792>
VStem: 280 310<1248.84 1445.86>
DStem2: -30 46 236 44 0.254012 0.967201<8.71376 1080.49>
LayerCount: 2
Back
SplineSet
280 1348 m 0
 280 1276 342 1210 412 1210 c 2
 438 1210 l 2
 524 1210 590 1270 590 1348 c 0
 590 1420 520 1488 456 1488 c 2
 428 1488 l 2
 342 1488 280 1424 280 1348 c 0
496 1034 m 2
 504 1066 486 1080 452 1080 c 2
 290 1080 l 2
 260 1080 238 1066 230 1036 c 2
 -30 46 l 2
 -38 14 -20 0 14 0 c 2
 176 0 l 2
 206 0 228 14 236 44 c 2
 496 1034 l 2
EndSplineSet
Fore
SplineSet
290 1080 m 1,0,-1
 452 1080 l 2,1,2
 505 1079 505 1079 496 1034 c 1,3,-1
 236 44 l 1,4,5
 224 1 224 1 176 0 c 1,6,-1
 14 0 l 2,7,8
 -39 1 -39 1 -30 46 c 1,9,-1
 230 1036 l 1,10,11
 242 1079 242 1079 290 1080 c 1,0,-1
280 1348 m 0,12,13
 280 1392 280 1392 305 1428 c 0,14,15
 348 1488 348 1488 428 1488 c 2,16,-1
 456 1488 l 2,17,18
 498 1488 498 1488 537 1455 c 0,19,20
 590 1409 590 1409 590 1348 c 0,21,22
 590 1304 590 1304 563 1268 c 0,23,24
 519 1210 519 1210 438 1210 c 2,25,-1
 412 1210 l 2,26,27
 369 1210 369 1210 332 1241 c 0,28,29
 280 1284 280 1284 280 1348 c 0,12,13
EndSplineSet
Colour: ff00
EndChar

StartChar: j
Encoding: 106 106 142
Width: 504
VWidth: 0
Flags: HMW
HStem: 1060 20G<283.114 475.104> 1210 278<348.394 577.792>
VStem: 310 310<1248.84 1445.86>
DStem2: -4 82 254 44 0.254012 0.967201<-179.135 1043.04>
LayerCount: 2
Back
SplineSet
306 1080 m 2
 278 1080 256 1066 248 1036 c 2
 -4 82 l 2
 -38 -48 -142 -150 -236 -186 c 0
 -266 -198 -268 -230 -252 -252 c 2
 -188 -350 l 2
 -176 -366 -154 -374 -126 -366 c 0
 -32 -338 182 -228 254 44 c 2
 514 1034 l 2
 520 1060 504 1080 470 1080 c 2
 306 1080 l 2
310 1348 m 0
 310 1276 372 1210 442 1210 c 2
 468 1210 l 2
 554 1210 620 1270 620 1348 c 0
 620 1420 550 1488 486 1488 c 2
 458 1488 l 2
 372 1488 310 1424 310 1348 c 0
EndSplineSet
Fore
SplineSet
310 1348 m 0,0,1
 310 1392 310 1392 335 1428 c 0,2,3
 378 1488 378 1488 458 1488 c 2,4,-1
 486 1488 l 2,5,6
 528 1488 528 1488 567 1455 c 0,7,8
 620 1409 620 1409 620 1348 c 0,9,10
 620 1304 620 1304 593 1268 c 0,11,12
 549 1210 549 1210 468 1210 c 2,13,-1
 442 1210 l 2,14,15
 399 1210 399 1210 362 1241 c 0,16,17
 310 1284 310 1284 310 1348 c 0,0,1
-188 -350 m 2,18,-1
 -252 -252 l 2,19,20
 -261 -238 -261 -238 -261 -222 c 0,21,22
 -261 -196 -261 -196 -236 -186 c 0,23,24
 -187 -166 -187 -166 -142 -130 c 0,25,26
 -37 -44 -37 -44 -4 82 c 2,27,-1
 248 1036 l 2,28,29
 260 1080 260 1080 300 1080 c 2,30,-1
 470 1080 l 2,31,32
 492 1080 492 1080 502 1072 c 0,33,34
 521 1059 521 1059 514 1034 c 2,35,-1
 254 44 l 2,36,37
 211 -122 211 -122 88 -238 c 0,38,39
 -12 -332 -12 -332 -126 -366 c 1,40,41
 -172 -375 -172 -375 -188 -350 c 2,18,-1
EndSplineSet
Colour: ff00
EndChar

StartChar: k
Encoding: 107 107 143
Width: 878
VWidth: 0
Flags: HMW
HStem: 0 21G<19.5291 203.893 517.445 709.634> 1060 20G<704.532 945.302> 1498 20G<370.107 586.529>
DStem2: -26 64 240 44 0.247004 0.969015<-10.3141 438.508 770.785 1511.9> 559 568 337 424 0.308917 -0.951089<68.3773 528.169> 419 746 559 568 0.660203 0.751088<0 482.553>
LayerCount: 2
Back
SplineSet
308 524 m 1
 446 50 l 1
 460 16 480 0 520 0 c 2
 678 0 l 2
 722 0 736 22 724 60 c 2
 526 668 l 1
 532 538 l 1
 944 1006 l 2
 976 1040 978 1080 934 1080 c 2
 724 1080 l 2
 684 1080 676 1070 664 1054 c 2
 338 644 l 1
 308 524 l 1
604 1472 m 2
 612 1504 594 1518 560 1518 c 2
 394 1518 l 2
 364 1518 342 1504 334 1474 c 2
 -26 64 l 2
 -34 30 -20 0 26 0 c 2
 180 0 l 2
 210 0 232 14 240 44 c 2
 604 1472 l 2
EndSplineSet
Fore
SplineSet
419 746 m 1,0,-1
 664 1054 l 2,1,2
 685 1080 685 1080 724 1080 c 2,3,-1
 934 1080 l 2,4,5
 956 1080 956 1080 965 1065 c 1,6,7
 976 1042 976 1042 944 1006 c 2,8,-1
 559 568 l 1,9,-1
 724 60 l 2,10,11
 743 0 743 0 678 0 c 2,12,-1
 520 0 l 2,13,14
 491 0 491 0 474 11 c 0,15,16
 454 24 454 24 446 50 c 2,17,-1
 337 424 l 1,18,-1
 240 44 l 2,19,20
 229 0 229 0 180 0 c 2,21,-1
 26 0 l 2,22,23
 0 0 0 0 -14 12 c 0,24,25
 -35 30 -35 30 -26 64 c 2,26,-1
 334 1474 l 2,27,28
 345 1518 345 1518 394 1518 c 2,29,-1
 560 1518 l 2,30,31
 616 1518 616 1518 604 1472 c 2,32,-1
 419 746 l 1,0,-1
EndSplineSet
Colour: ff00
EndChar

StartChar: l
Encoding: 108 108 144
Width: 486
VWidth: 0
Flags: HMW
HStem: 0 21G<19.5291 203.893> 1498 20G<370.107 586.529>
VStem: -26 630
DStem2: -26 64 240 44 0.247004 0.969015<-9.63146 1511.83>
LayerCount: 2
Back
SplineSet
604 1472 m 2
 612 1504 594 1518 560 1518 c 2
 394 1518 l 2
 364 1518 342 1504 334 1474 c 2
 -26 64 l 2
 -34 30 -20 0 26 0 c 2
 180 0 l 2
 210 0 232 14 240 44 c 2
 604 1472 l 2
EndSplineSet
Fore
SplineSet
394 1518 m 1,0,-1
 560 1518 l 2,1,2
 616 1517 616 1517 604 1472 c 2,3,-1
 240 44 l 1,4,5
 227 0 227 0 180 0 c 2,6,-1
 26 0 l 2,7,8
 4 0 4 0 -10 10 c 0,9,10
 -35 29 -35 29 -26 64 c 2,11,-1
 334 1474 l 2,12,13
 346 1517 346 1517 394 1518 c 1,0,-1
EndSplineSet
Colour: ff00
EndChar

StartChar: less
Encoding: 60 60 145
Width: 1004
VWidth: 0
Flags: HW
LayerCount: 2
Back
SplineSet
260 590 m 1
 876 776 l 2
 908 786 936 816 944 848 c 2
 968 960 l 2
 978 998 968 1032 914 1014 c 2
 114 740 l 2
 80 730 52 700 46 668 c 2
 26 574 l 2
 18 542 34 510 66 496 c 2
 742 212 l 2
 780 196 796 202 804 244 c 2
 830 360 l 2
 836 392 824 424 792 434 c 2
 268 628 l 1
 260 590 l 1
EndSplineSet
Fore
SplineSet
321 608 m 1,0,-1
 792 434 l 2,1,2
 799 432 799 432 806 427 c 0,3,4
 839 406 839 406 830 360 c 1,5,-1
 804 244 l 2,6,7
 801 229 801 229 796 218 c 0,8,9
 783 194 783 194 742 212 c 2,10,-1
 66 496 l 2,11,12
 58 500 58 500 50 505 c 0,13,14
 15 532 15 532 26 574 c 1,15,-1
 46 668 l 2,16,17
 48 677 48 677 52 686 c 0,18,19
 71 727 71 727 114 740 c 1,20,-1
 914 1014 l 2,21,22
 935 1021 935 1021 949 1018 c 0,23,24
 981 1011 981 1011 968 960 c 1,25,-1
 944 848 l 2,26,27
 942 840 942 840 938 831 c 0,28,29
 918 789 918 789 876 776 c 2,30,-1
 321 608 l 1,0,-1
EndSplineSet
EndChar

StartChar: logicalnot
Encoding: 172 172 146
Width: 1804
VWidth: 0
Flags: HW
HStem: 754 238<292.041 1240>
DStem2: 1144 394 1398 392 0.246999 0.969016<4.20114 372.558>
LayerCount: 2
Back
SplineSet
1404 754 m 1
 1292 950 l 1
 1144 394 l 2
 1136 362 1154 348 1188 348 c 2
 1338 348 l 2
 1368 348 1390 362 1398 392 c 2
 1534 906 l 2
 1548 958 1536 992 1478 992 c 2
 348 992 l 2
 308 992 288 988 274 936 c 2
 246 826 l 2
 232 774 244 754 284 754 c 2
 1404 754 l 1
EndSplineSet
Fore
SplineSet
1240 754 m 1,0,-1
 284 754 l 2,1,2
 276 754 276 754 269 755 c 0,3,4
 229 762 229 762 246 826 c 2,5,-1
 274 936 l 2,6,7
 281 961 281 961 292 975 c 0,8,9
 306 992 306 992 348 992 c 2,10,11
 1478 992 l 1,12,13
 1555 991 1555 991 1534 906 c 1,14,-1
 1398 392 l 2,15,16
 1386 349 1386 349 1338 348 c 1,17,-1
 1188 348 l 2,18,19
 1135 349 1135 349 1144 394 c 1,20,-1
 1240 754 l 1,0,-1
EndSplineSet
EndChar

StartChar: m
Encoding: 109 109 147
Width: 1264
VWidth: 0
Flags: HMW
HStem: 0 21G<-0.139865 142.66> 656 424<540 688> 1060 20G<268.737 429.982 651.073 794.565 1096.41 1211.41>
DStem2: -28 52 188 38 0.276534 0.961004<46.2773 249.336 820.56 1081.79> 824 114 1044 28 0.254493 0.967075<-67.5712 561.393>
LayerCount: 2
Back
SplineSet
626 28 m 1
 676 104 802 388 900 562 c 0
 928 610 950 656 970 656 c 0
 988 656 954 558 940 504 c 0
 886 298 810 80 806 32 c 0
 804 12 822 0 832 0 c 2
 994 -2 l 2
 1020 -2 1038 8 1044 28 c 2
 1284 940 l 2
 1314 1054 1260 1082 1206 1082 c 2
 1132 1082 l 2
 1074 1082 1028 1062 970 982 c 1
 736 682 l 1
 626 28 l 1
318 682 m 1
 346 648 l 1
 470 1018 l 1
 482 1064 470 1080 420 1080 c 2
 292 1080 l 2
 258 1080 240 1058 232 1024 c 2
 -28 52 l 2
 -36 22 -18 0 4 0 c 2
 126 0 l 2
 150 0 168 12 188 38 c 0
 240 112 370 400 474 570 c 0
 502 616 520 656 540 656 c 0
 566 656 534 560 518 504 c 0
 482 376 406 90 394 48 c 0
 382 12 404 0 414 0 c 2
 576 -2 l 2
 602 -2 616 8 626 28 c 1
 870 952 l 2
 898 1058 832 1080 786 1080 c 2
 688 1080 l 2
 624 1080 582 1048 538 988 c 2
 318 682 l 1
EndSplineSet
Fore
SplineSet
392 785 m 1,0,-1
 538 988 l 2,1,2
 545 998 545 998 556 1012 c 0,3,4
 614 1080 614 1080 688 1080 c 2,5,-1
 786 1080 l 2,6,7
 803 1080 803 1080 819 1076 c 0,8,9
 897 1055 897 1055 870 952 c 2,10,-1
 831 804 l 1,11,-1
 970 982 l 1,12,13
 989 1008 989 1008 1007 1027 c 0,14,15
 1061 1082 1061 1082 1132 1082 c 2,16,-1
 1206 1082 l 2,17,18
 1216 1082 1216 1082 1227 1080 c 0,19,20
 1317 1065 1317 1065 1284 940 c 2,21,-1
 1044 28 l 2,22,23
 1037 0 1037 0 994 0 c 2,24,-1
 846 0 l 2,25,26
 822 0 822 0 812 11 c 0,27,28
 806 16 806 16 806 32 c 0,29,30
 806 53 806 53 824 114 c 2,31,32
 940 504 l 2,33,34
 947 528 947 528 952 548 c 0,35,36
 984 656 984 656 970 656 c 3,37,38
 961 656 961 656 949 643 c 0,39,40
 941 634 941 634 900 562 c 1,41,42
 854 480 854 480 772 314 c 0,43,44
 649 63 649 63 626 28 c 1,45,46
 612 0 612 0 576 0 c 2,47,-1
 414 0 l 2,48,49
 405 0 405 0 394 10 c 0,50,51
 386 18 386 18 394 48 c 2,52,-1
 518 504 l 2,53,54
 528 537 l 0,55,56
 562 656 562 656 540 656 c 0,57,58
 530 656 530 656 516 638 c 0,59,60
 515 637 515 637 474 570 c 0,61,62
 422 484 422 484 328 300 c 0,63,64
 212 72 212 72 188 38 c 1,65,66
 158 0 158 0 126 0 c 2,67,-1
 4 0 l 2,68,69
 -13 0 -13 0 -23 15 c 0,70,71
 -33 32 -33 32 -28 52 c 2,72,-1
 232 1024 l 1,73,74
 245 1078 245 1078 292 1080 c 1,75,-1
 420 1080 l 2,76,77
 440 1080 440 1080 453 1076 c 0,78,79
 483 1066 483 1066 470 1018 c 1,80,-1
 392 785 l 1,0,-1
EndSplineSet
Colour: ff00
EndChar

StartChar: m.alt1
Encoding: 65538 -1 148
Width: 1174
VWidth: 0
Flags: HW
HStem: 0 21G<-0.139865 142.66 374 556.239 692 874.239> 1062 20G<268.737 429.982 651.073 754.565 996.409 1071.41>
DStem2: 383.874 173.045 586 28 0.246999 0.969016<-132.641 87.9554> 696.339 147.067 904 28 0.246999 0.969016<-106.101 328.827>
LayerCount: 2
Back
SplineSet
564 38 m 1
 614 114 686 312 746 432 c 0
 754 450 764 466 776 466 c 0
 794 466 784 444 774 406 c 0
 748 298 670 80 666 32 c 0
 664 12 682 0 692 0 c 2
 854 -2 l 2
 880 -2 898 8 904 28 c 2
 1144 940 l 2
 1174 1054 1120 1082 1066 1082 c 2
 1032 1082 l 2
 974 1082 928 1062 870 982 c 2
 656 682 l 1
 564 38 l 1
318 682 m 1
 346 648 l 1
 470 1020 l 1
 482 1066 470 1082 420 1082 c 2
 292 1082 l 2
 258 1082 240 1060 232 1026 c 2
 -28 52 l 2
 -36 22 -18 0 4 0 c 2
 126 0 l 2
 150 0 168 12 188 38 c 1
 238 114 354 378 442 508 c 0
 454 524 462 542 474 542 c 0
 492 542 482 520 472 482 c 0
 446 374 352 80 348 32 c 0
 346 12 364 0 374 0 c 2
 536 -2 l 2
 562 -2 580 8 586 28 c 2
 830 954 l 2
 858 1060 792 1082 746 1082 c 2
 688 1082 l 2
 624 1082 582 1050 538 990 c 2
 318 682 l 1
EndSplineSet
Fore
SplineSet
392 785 m 1,0,-1
 538 990 l 2,1,2
 547 1002 547 1002 556 1014 c 0,3,4
 614 1082 614 1082 688 1082 c 2,5,-1
 746 1082 l 2,6,7
 763 1082 763 1082 779 1078 c 0,8,9
 857 1057 857 1057 830 954 c 2,10,-1
 818 909 l 1,11,-1
 870 982 l 2,12,13
 889 1008 889 1008 907 1027 c 0,14,15
 961 1082 961 1082 1032 1082 c 2,16,-1
 1066 1082 l 2,17,18
 1077 1082 1077 1082 1087 1080 c 0,19,20
 1177 1065 1177 1065 1144 940 c 2,21,-1
 904 28 l 1,22,23
 894 -1 894 -1 854 -2 c 1,24,-1
 692 0 l 2,25,26
 689 0 689 0 685 2 c 0,27,28
 664 11 664 11 666 32 c 0,29,30
 668 55 668 55 696 147 c 0,31,32
 766 375 766 375 774 406 c 0,33,34
 776 412 776 412 779 424 c 0,35,36
 782 435 782 435 783 440 c 0,37,38
 790 466 790 466 776 466 c 1,39,40
 762 465 762 465 746 432 c 0,41,42
 721 382 721 382 667 255 c 0,43,44
 631 170 631 170 614 133 c 1,45,-1
 586 28 l 1,46,47
 576 -1 576 -1 536 -2 c 1,48,-1
 374 0 l 2,49,50
 371 0 371 0 367 2 c 0,51,52
 346 11 346 11 348 32 c 0,53,54
 350 56 350 56 384 173 c 0,55,56
 468 465 468 465 472 482 c 0,57,58
 474 488 474 488 477 500 c 0,59,60
 480 511 480 511 481 516 c 0,61,62
 488 542 488 542 474 542 c 0,63,64
 466 541 466 541 450 520 c 0,65,66
 445 512 445 512 442 508 c 0,67,68
 394 437 394 437 307 266 c 0,69,70
 206 66 206 66 188 38 c 1,71,72
 159 1 159 1 126 0 c 1,73,-1
 4 0 l 2,74,75
 -4 0 -4 0 -12 5 c 0,76,77
 -36 19 -36 19 -28 52 c 2,78,-1
 232 1026 l 2,79,80
 245 1080 245 1080 292 1082 c 1,81,-1
 420 1082 l 2,82,83
 440 1082 440 1082 453 1078 c 0,84,85
 483 1068 483 1068 470 1020 c 1,86,-1
 392 785 l 1,0,-1
EndSplineSet
EndChar

StartChar: macron
Encoding: 175 175 149
Width: 796
VWidth: 0
Flags: HW
HStem: 1526 192<124 848.572>
LayerCount: 2
Back
SplineSet
160 1718 m 2
 142 1718 136 1714 130 1694 c 2
 98 1582 l 2
 88 1544 74 1526 122 1526 c 2
 810 1526 l 2
 836 1526 844 1556 852 1582 c 2
 880 1674 l 1
 894 1710 876 1718 862 1718 c 2
 160 1718 l 2
EndSplineSet
Fore
SplineSet
160 1718 m 2,0,1
 862 1718 l 1,2,3
 893 1715 893 1715 880 1674 c 2,4,-1
 852 1582 l 2,5,6
 849 1572 849 1572 848 1568 c 0,7,8
 834 1526 834 1526 810 1526 c 2,9,-1
 122 1526 l 2,10,11
 91 1526 91 1526 88 1541 c 0,12,13
 88 1544 88 1544 98 1582 c 2,14,-1
 130 1694 l 2,15,16
 131 1698 131 1698 133 1703 c 0,17,18
 140 1718 140 1718 160 1718 c 2,0,1
EndSplineSet
EndChar

StartChar: minus
Encoding: 8722 8722 150
Width: 982
VWidth: 0
Flags: HW
HStem: 524 238<110 903.062>
LayerCount: 2
Back
SplineSet
840 524 m 2
 870 524 902 550 908 580 c 2
 934 698 l 2
 944 742 926 762 888 762 c 2
 164 762 l 2
 126 762 108 748 98 704 c 2
 72 596 l 2
 58 544 70 524 110 524 c 2
 840 524 l 2
EndSplineSet
Fore
SplineSet
840 524 m 2,0,1
 110 524 l 2,2,3
 102 524 102 524 95 525 c 0,4,5
 55 532 55 532 72 596 c 1,6,-1
 98 704 l 2,7,8
 101 717 101 717 106 728 c 0,9,10
 121 762 121 762 164 762 c 2,11,-1
 888 762 l 2,12,13
 947 761 947 761 934 698 c 1,14,-1
 908 580 l 2,15,16
 905 568 905 568 897 556 c 0,17,18
 875 524 875 524 840 524 c 2,0,1
EndSplineSet
EndChar

StartChar: mu
Encoding: 181 181 151
Width: 822
VWidth: 0
Flags: HW
HStem: -400 21G<-118.471 45.8937> 0 21G<395.546 573.499> 1060 20G<224.107 461.521 693.854 842.14>
DStem2: 388 72 610 54 0.246999 0.969016<-28.6704 223.603 717.39 1045.67>
LayerCount: 2
Back
SplineSet
248 1080 m 2
 218 1080 196 1066 188 1036 c 2
 -164 -336 l 2
 -172 -370 -158 -400 -112 -400 c 2
 22 -400 l 2
 52 -400 74 -386 82 -356 c 2
 146 -102 l 2
 158 -56 160 -30 160 -2 c 1
 174 -2 l 2
 238 -2 290 28 356 132 c 2
 524 398 l 1
 492 432 l 1
 388 72 l 2
 374 28 384 0 426 0 c 2
 550 0 l 2
 584 0 602 20 610 54 c 2
 870 1028 l 2
 878 1058 860 1080 838 1080 c 2
 716 1080 l 2
 692 1080 668 1072 650 1034 c 0
 598 920 450 640 378 506 c 0
 314 388 288 412 310 504 c 0
 342 630 432 916 464 1022 c 0
 478 1066 464 1080 442 1080 c 2
 248 1080 l 2
EndSplineSet
Fore
SplineSet
248 1080 m 1,0,1
 442 1080 l 2,2,3
 481 1079 481 1079 464 1022 c 0,4,5
 462 1016 462 1016 460 1008 c 0,6,7
 328 574 328 574 310 504 c 1,8,9
 292 431 292 431 312 426 c 0,10,11
 332 421 332 421 378 506 c 0,12,13
 584 889 584 889 650 1034 c 1,14,15
 672 1078 672 1078 716 1080 c 1,16,-1
 838 1080 l 2,17,18
 846 1080 846 1080 854 1075 c 0,19,20
 878 1061 878 1061 870 1028 c 2,21,-1
 610 54 l 2,22,23
 597 2 597 2 550 0 c 1,24,-1
 426 0 l 2,25,26
 365 0 365 0 388 72 c 1,27,-1
 447 276 l 1,28,-1
 356 132 l 2,29,30
 332 95 332 95 309 68 c 0,31,32
 249 -2 249 -2 174 -2 c 2,33,-1
 160 -2 l 1,34,35
 160 -48 160 -48 146 -102 c 2,36,-1
 82 -356 l 1,37,38
 70 -399 70 -399 22 -400 c 1,39,-1
 -112 -400 l 2,40,41
 -125 -400 -125 -400 -136 -397 c 0,42,43
 -175 -384 -175 -384 -164 -336 c 2,44,-1
 188 1036 l 1,45,46
 200 1079 200 1079 248 1080 c 1,0,1
EndSplineSet
EndChar

StartChar: multiply
Encoding: 215 215 152
Width: 934
VWidth: 0
Flags: HW
LayerCount: 2
Back
SplineSet
556 652 m 1
 402 1186 l 2
 388 1236 354 1262 320 1238 c 1
 200 1178 l 1
 162 1150 140 1146 164 1072 c 2
 348 484 l 1
 362 748 l 1
 -24 198 l 2
 -54 152 -44 138 -6 116 c 1
 134 26 l 2
 170 4 188 34 202 50 c 1
 522 576 l 1
 556 652 l 1
360 614 m 1
 494 62 l 2
 506 10 540 -12 594 18 c 2
 708 82 l 2
 748 104 764 118 750 158 c 2
 550 782 l 1
 568 558 l 1
 958 1062 l 2
 986 1100 988 1118 942 1146 c 2
 812 1222 l 2
 776 1244 756 1214 744 1196 c 2
 418 706 l 1
 360 614 l 1
EndSplineSet
Fore
SplineSet
606 607 m 1,0,-1
 750 158 l 2,1,2
 757 137 757 137 754 123 c 0,3,4
 749 104 749 104 708 82 c 2,5,-1
 594 18 l 2,6,7
 579 10 579 10 565 6 c 0,8,9
 509 -7 509 -7 494 62 c 2,10,-1
 413 397 l 1,11,-1
 202 50 l 1,12,-1
 195 42 l 2,13,14
 188 34 188 34 186 32 c 128,-1,15
 184 30 184 30 176.5 24.5 c 128,-1,16
 169 19 169 19 164 18.5 c 128,-1,17
 159 18 159 18 151 19.5 c 128,-1,18
 143 21 143 21 134 26 c 2,19,-1
 -6 116 l 2,20,21
 -25 127 -25 127 -34 137 c 0,22,23
 -51 157 -51 157 -24 198 c 1,24,-1
 295 653 l 1,25,-1
 164 1072 l 2,26,27
 147 1126 147 1126 163 1148 c 0,28,29
 167 1153 167 1153 200 1178 c 1,30,-1
 320 1238 l 1,31,32
 336 1249 336 1249 353 1246 c 0,33,34
 387 1239 387 1239 402 1186 c 2,35,-1
 503 834 l 1,36,-1
 744 1196 l 2,37,38
 745 1197 745 1197 746 1199 c 0,39,40
 776 1244 776 1244 812 1222 c 2,41,-1
 942 1146 l 2,42,43
 965 1132 965 1132 974 1118 c 0,44,45
 985 1099 985 1099 958 1062 c 1,46,-1
 606 607 l 1,0,-1
EndSplineSet
EndChar

StartChar: n
Encoding: 110 110 153
Width: 852
VWidth: 0
Flags: HMW
HStem: 0 21G<-0.139865 142.66> 1060 20G<268.737 429.982 651.073 794.565>
DStem2: -28 52 188 38 0.276534 0.961004<46.2773 249.336 820.56 1081.79> 394 48 630 42 0.255016 0.966937<-0.617616 625.278>
LayerCount: 2
Back
SplineSet
318 682 m 1
 346 648 l 1
 470 1018 l 1
 482 1064 470 1080 420 1080 c 2
 292 1080 l 2
 258 1080 240 1058 232 1024 c 2
 -28 52 l 2
 -36 22 -18 0 4 0 c 2
 126 0 l 2
 150 0 168 12 188 38 c 0
 240 112 370 400 474 570 c 0
 502 616 520 656 540 656 c 0
 566 656 534 560 518 504 c 0
 482 376 406 90 394 48 c 0
 382 12 404 0 414 0 c 2
 576 -2 l 2
 602 -2 620 8 626 28 c 2
 870 952 l 2
 898 1058 832 1080 786 1080 c 2
 688 1080 l 2
 624 1080 582 1048 538 988 c 2
 318 682 l 1
EndSplineSet
Fore
SplineSet
392 785 m 1,0,-1
 538 988 l 2,1,2
 545 998 545 998 556 1012 c 0,3,4
 614 1080 614 1080 688 1080 c 2,5,-1
 786 1080 l 2,6,7
 803 1080 803 1080 819 1076 c 0,8,9
 897 1055 897 1055 870 952 c 2,10,-1
 630 42 l 2,11,12
 619 1 619 1 576 0 c 1,13,-1
 421 0 l 2,14,15
 404 0 404 0 396 9 c 0,16,17
 386 20 386 20 394 48 c 2,18,-1
 518 504 l 2,19,20
 518 505 518 505 528 537 c 0,21,22
 563 656 563 656 540 656 c 3,23,24
 530 656 530 656 516 638 c 0,25,26
 515 637 515 637 474 570 c 0,27,28
 422 484 422 484 328 300 c 0,29,30
 212 72 212 72 188 38 c 1,31,32
 159 1 159 1 126 0 c 1,33,-1
 4 0 l 2,34,35
 -4 0 -4 0 -12 5 c 0,36,37
 -36 19 -36 19 -28 52 c 2,38,-1
 232 1024 l 2,39,40
 247 1078 247 1078 292 1080 c 1,41,-1
 420 1080 l 2,42,43
 440 1080 440 1080 453 1076 c 0,44,45
 486 1065 486 1065 470 1018 c 2,46,-1
 392 785 l 1,0,-1
EndSplineSet
Colour: ff00
EndChar

StartChar: nine
Encoding: 57 57 155
Width: 938
VWidth: 0
Flags: HMW
HStem: -32 208<239.263 358.367> 460 180<327.913 527.813> 1188 194<534.598 648.881>
VStem: 12 279<179.082 327.171> 132 276<661.346 1000.78> 656 263<773.988 1186.52>
LayerCount: 2
Back
SplineSet
700 644 m 1
 618 692 l 1
 582 642 528 640 502 640 c 0
 442 640 404 716 408 806 c 0
 414 966 518 1188 608 1188 c 0
 662 1188 690 1070 580 646 c 0
 500 340 442 278 342 184 c 1
 282 64 l 1
 308 -26 l 1
 472 -20 682 126 822 526 c 0
 1032 1126 864 1382 624 1382 c 0
 320 1382 132 1052 132 782 c 0
 132 642 208 460 388 460 c 0
 494 460 574 478 656 526 c 1
 700 644 l 1
382 224 m 1
 364 190 332 176 316 176 c 0
 272 176 292 332 294 386 c 0
 294 412 268 430 232 412 c 2
 52 328 l 2
 28 316 12 288 12 258 c 0
 12 118 58 -32 256 -32 c 0
 308 -32 358 -20 402 0 c 1
 382 224 l 1
EndSplineSet
Fore
SplineSet
529 475 m 5,0,1
 465 460 465 460 388 460 c 4,2,3
 268 461 268 461 196 564 c 5,4,5
 132 657 132 657 132 782 c 4,6,7
 132 837 132 837 143 896 c 4,8,9
 177 1085 177 1085 293 1220 c 4,10,11
 432 1382 432 1382 624 1382 c 4,12,13
 657 1382 657 1382 689 1375 c 4,14,15
 828 1345 828 1345 885 1199 c 4,16,17
 919 1112 919 1112 919 996 c 4,18,19
 919 801 919 801 822 526 c 4,20,21
 742 297 742 297 624 156 c 4,22,23
 467 -31 467 -31 267 -32 c 4,24,25
 221 -31 221 -31 192 -26 c 4,26,27
 12 7 12 7 12 258 c 5,28,29
 12 309 12 309 52 328 c 6,30,-1
 232 412 l 6,31,32
 252 421 252 421 268 418 c 4,33,34
 295 413 295 413 294 386 c 4,35,36
 291 309 291 309 288 270 c 4,37,38
 281 176 281 176 317 176 c 4,39,40
 346 176 346 176 407 245 c 4,41,42
 482 331 482 331 529 475 c 5,0,1
584 660 m 1,43,44
 639 874 639 874 652 1006 c 0,45,46
 656 1047 656 1047 656 1078 c 0,47,48
 656 1188 656 1188 608 1188 c 0,49,50
 542 1187 542 1187 473 1056 c 0,51,52
 408 929 408 929 408 796 c 0,53,54
 408 711 408 711 438 672 c 0,55,56
 466 638 466 638 512 638 c 0,57,58
 550 638 550 638 584 660 c 1,43,44
EndSplineSet
Colour: ff00
EndChar

StartChar: numbersign
Encoding: 35 35 157
Width: 1614
VWidth: 0
Flags: HMW
HStem: 0 21G<309.529 493.893 849.529 1033.9> 400 238<118 350 681 890 1221 1425.06> 884 238<240 473 805 1013 1345 1547.06> 1498 20G<660.107 876.529 1200.1 1416.53>
DStem2: 264 64 530 44 0.247004 0.969015<-10.1288 346.831 659.215 846.216 1158.85 1511.83> 804 64 1070 44 0.247004 0.969015<-10.1288 346.831 659.215 846.216 1158.85 1511.83>
LayerCount: 2
Back
SplineSet
266 1122 m 2
 248 1122 242 1118 234 1082 c 2
 202 956 l 2
 188 904 200 884 240 884 c 2
 1484 884 l 2
 1514 884 1546 910 1552 940 c 2
 1578 1058 l 2
 1588 1102 1570 1122 1532 1122 c 2
 266 1122 l 2
144 638 m 2
 126 638 120 634 112 598 c 2
 80 472 l 2
 66 420 78 400 118 400 c 2
 1362 400 l 2
 1392 400 1424 426 1430 456 c 2
 1456 574 l 2
 1466 618 1448 638 1410 638 c 2
 144 638 l 2
1434 1472 m 2
 1442 1504 1424 1518 1390 1518 c 2
 1224 1518 l 2
 1194 1518 1172 1504 1164 1474 c 2
 804 64 l 2
 796 30 810 0 856 0 c 2
 1010 0 l 2
 1040 0 1062 14 1070 44 c 2
 1434 1472 l 2
894 1472 m 2
 902 1504 884 1518 850 1518 c 2
 684 1518 l 2
 654 1518 632 1504 624 1474 c 2
 264 64 l 2
 256 30 270 0 316 0 c 2
 470 0 l 2
 500 0 522 14 530 44 c 2
 894 1472 l 2
EndSplineSet
Fore
SplineSet
805 1122 m 1,0,-1
 1074 1122 l 1,1,-1
 1164 1474 l 2,2,3
 1176 1517 1176 1517 1224 1518 c 1,4,-1
 1390 1518 l 2,5,6
 1443 1517 1443 1517 1434 1472 c 1,7,-1
 1345 1122 l 1,8,-1
 1532 1122 l 2,9,10
 1591 1121 1591 1121 1578 1058 c 1,11,-1
 1552 940 l 2,12,13
 1549 928 1549 928 1541 916 c 0,14,15
 1518 884 1518 884 1484 884 c 2,16,-1
 1284 884 l 1,17,-1
 1221 638 l 1,18,-1
 1410 638 l 2,19,20
 1469 637 1469 637 1456 574 c 1,21,-1
 1430 456 l 2,22,23
 1427 444 1427 444 1419 432 c 0,24,25
 1396 400 1396 400 1362 400 c 2,26,-1
 1161 400 l 1,27,-1
 1070 44 l 2,28,29
 1058 1 1058 1 1010 0 c 1,30,-1
 856 0 l 2,31,32
 843 0 843 0 832 3 c 0,33,34
 793 16 793 16 804 64 c 2,35,-1
 890 400 l 1,36,-1
 621 400 l 1,37,-1
 530 44 l 2,38,39
 518 1 518 1 470 0 c 1,40,-1
 316 0 l 2,41,42
 303 0 303 0 292 3 c 0,43,44
 253 16 253 16 264 64 c 2,45,-1
 350 400 l 1,46,-1
 118 400 l 2,47,48
 110 400 110 400 103 401 c 0,49,50
 63 408 63 408 80 472 c 2,51,-1
 112 598 l 2,52,53
 115 613 115 613 119 623 c 0,54,55
 125 638 125 638 144 638 c 2,56,-1
 411 638 l 1,57,-1
 473 884 l 1,58,-1
 240 884 l 2,59,60
 232 884 232 884 225 885 c 0,61,62
 185 892 185 892 202 956 c 2,63,-1
 234 1082 l 2,64,65
 237 1097 237 1097 241 1107 c 0,66,67
 247 1122 247 1122 266 1122 c 2,68,-1
 534 1122 l 1,69,-1
 624 1474 l 1,70,71
 636 1517 636 1517 684 1518 c 1,72,-1
 850 1518 l 2,73,74
 903 1517 903 1517 894 1472 c 1,75,-1
 805 1122 l 1,0,-1
681 638 m 1,76,-1
 951 638 l 1,77,-1
 1013 884 l 1,78,-1
 744 884 l 1,79,-1
 681 638 l 1,76,-1
EndSplineSet
Colour: ff00
EndChar

StartChar: o
Encoding: 111 111 158
Width: 764
VWidth: 0
Flags: HW
HStem: -16 240<254.805 373.636> 864 234<401.304 515.163>
VStem: 0 246<226.213 569.425> 522 228<491.994 863.431>
LayerCount: 2
Back
SplineSet
120 822 m 5
 50 674 0 504 0 350 c 4
 0 250 24 130 88 62 c 4
 154 -8 212 -16 286 -16 c 4
 408 -16 520 84 606 228 c 4
 692 372 750 558 750 726 c 4
 750 812 752 898 716 964 c 5
 660 1076 576 1098 490 1098 c 4
 304 1098 182 964 120 822 c 5
498 566 m 5
 490 528 458 414 410 324 c 4
 370 250 344 230 300 224 c 5
 250 234 246 270 246 350 c 4
 246 484 324 666 336 698 c 4
 374 794 412 864 472 864 c 4
 554 864 514 618 498 566 c 5
EndSplineSet
Fore
SplineSet
498 566 m 0,0,1
 522 681 522 681 522 752 c 3,2,3
 522 864 522 864 472 864 c 3,4,5
 442 864 442 864 419 842 c 0,6,7
 373 794 373 794 334 693 c 0,8,9
 246 469 246 469 246 350 c 3,10,11
 246 224 246 224 300 224 c 0,12,13
 331 225 331 225 356 248 c 0,14,15
 395 285 395 285 426 356 c 0,16,17
 479 476 479 476 498 566 c 0,0,1
120 822 m 1,18,19
 146 882 146 882 183 932 c 0,20,21
 238 1007 238 1007 306 1048 c 1,22,23
 388 1098 388 1098 490 1098 c 0,24,25
 511 1098 511 1098 530 1096 c 0,26,27
 657 1080 657 1080 716 964 c 0,28,29
 729 940 729 940 737 908 c 0,30,31
 750 857 750 857 750 726 c 0,32,33
 750 680 750 680 744 630 c 0,34,35
 718 416 718 416 606 228 c 0,36,37
 587 196 587 196 566 166 c 0,38,39
 434 -16 434 -16 286 -16 c 0,40,41
 256 -16 256 -16 235 -14 c 0,42,43
 128 -3 128 -3 63 94 c 0,44,45
 0 191 0 191 0 350 c 0,46,47
 0 568 0 568 120 822 c 1,18,19
EndSplineSet
Colour: ff00
EndChar

StartChar: ogonek
Encoding: 731 731 162
Width: 666
VWidth: 0
Flags: HW
HStem: -400 504
VStem: 18 200<-236.489 -90.4212>
LayerCount: 2
Back
SplineSet
366 104 m 1
 252 76 18 -30 18 -232 c 0
 18 -284 42 -330 74 -356 c 0
 112 -388 156 -400 222 -400 c 0
 320 -400 376 -372 392 -366 c 0
 416 -356 426 -344 418 -322 c 2
 398 -252 l 2
 390 -230 374 -224 358 -228 c 0
 332 -236 320 -242 290 -244 c 0
 252 -246 218 -228 218 -186 c 0
 218 -122 274 -44 420 4 c 0
 444 12 440 38 420 56 c 2
 366 104 l 1
EndSplineSet
Fore
SplineSet
366 104 m 1,0,1
 420 56 l 2,2,3
 428 49 428 49 433 39 c 0,4,5
 446 13 446 13 420 4 c 0,6,7
 359 -16 359 -16 314 -45 c 0,8,9
 218 -107 218 -107 218 -186 c 0,10,11
 218 -198 218 -198 222 -209 c 0,12,13
 237 -247 237 -247 290 -244 c 0,14,15
 310 -243 310 -243 358 -228 c 1,16,17
 386 -222 386 -222 398 -252 c 1,18,-1
 418 -322 l 1,19,20
 427 -350 427 -350 392 -366 c 1,21,-1
 381 -370 l 2,22,23
 370 -374 370 -374 362.5 -377 c 128,-1,24
 355 -380 355 -380 338 -385 c 128,-1,25
 321 -390 321 -390 305.5 -393 c 128,-1,26
 290 -396 290 -396 267.5 -398 c 128,-1,27
 245 -400 245 -400 222 -400 c 0,28,29
 127 -400 127 -400 74 -356 c 0,30,31
 71 -354 71 -354 68 -351 c 0,32,33
 18 -305 18 -305 18 -232 c 0,34,35
 20 -101 20 -101 146 -2 c 0,36,37
 244 74 244 74 366 104 c 1,0,1
EndSplineSet
EndChar

StartChar: one
Encoding: 49 49 164
Width: 628
VWidth: 0
Flags: HMW
HStem: 0 21G<105.598 305.893> 1340 20G<456.972 624>
VStem: 27 639
DStem2: 72 62 342 44 0.250158 0.968205<-6.11804 937.917>
LayerCount: 2
Back
SplineSet
334 1076 m 1
 72 62 l 2
 64 30 78 0 112 0 c 2
 282 0 l 2
 312 0 334 14 342 44 c 2
 666 1298 l 2
 674 1330 656 1362 626 1360 c 1
 334 1076 l 1
598 1316 m 1
 624 1360 l 1
 476 1360 l 2
 430 1360 376 1302 318 1248 c 2
 60 1008 l 2
 -8 944 28 890 68 890 c 2
 194 890 l 2
 224 890 256 910 276 934 c 2
 598 1316 l 1
EndSplineSet
Fore
SplineSet
621 1355 m 1,0,-1
 626 1360 l 1,1,2
 639 1361 639 1361 651 1352 c 0,3,4
 675 1333 675 1333 666 1298 c 2,5,-1
 342 44 l 2,6,7
 330 1 330 1 282 0 c 1,8,-1
 112 0 l 2,9,10
 100 0 100 0 89 6 c 0,11,12
 62 23 62 23 72 62 c 2,13,-1
 307 970 l 1,14,-1
 276 934 l 2,15,16
 238 890 238 890 194 890 c 2,17,-1
 68 890 l 2,18,19
 41 890 41 890 27 916 c 1,20,21
 6 958 6 958 60 1008 c 2,22,-1
 382 1307 l 2,23,24
 439 1360 439 1360 476 1360 c 2,25,-1
 624 1360 l 1,26,-1
 621 1355 l 1,0,-1
EndSplineSet
Colour: ff00
EndChar

StartChar: onehalf
Encoding: 189 189 165
Width: 1998
VWidth: 0
Flags: HW
HStem: 0 178<1535 1763.72> 742 152<1607.14 1702.96>
VStem: 1348 229<593.615 729.337>
DStem2: 52 20 350 -18 0.705651 0.708559<88.1019 2172.23> 1230 114 1535 178 0.689304 0.724472<256.604 732.142>
LayerCount: 2
Back
SplineSet
454 1304 m 1
 256 644 l 2
 250 624 262 604 286 604 c 2
 430 604 l 2
 452 604 468 614 474 632 c 2
 718 1448 l 2
 724 1468 710 1490 688 1488 c 1
 454 1304 l 1
666 1460 m 1
 686 1488 l 1
 560 1488 l 2
 526 1488 484 1450 442 1416 c 2
 226 1250 l 1
 176 1208 202 1172 232 1172 c 2
 342 1172 l 2
 364 1172 388 1186 404 1202 c 2
 666 1460 l 1
266 -54 m 2
 298 -54 316 -52 350 -18 c 2
 1818 1456 l 2
 1842 1480 1832 1528 1798 1528 c 2
 1604 1528 l 2
 1572 1528 1542 1516 1508 1482 c 2
 52 20 l 2
 28 -4 40 -52 74 -52 c 2
 266 -54 l 2
1384 178 m 1
 1392 36 l 1
 1796 438 l 1
 2008 656 1930 894 1686 894 c 0
 1494 894 1348 764 1348 610 c 0
 1348 592 1350 572 1382 576 c 2
 1538 594 l 2
 1570 598 1578 624 1578 628 c 0
 1578 700 1618 742 1650 742 c 0
 1746 742 1700 608 1622 526 c 2
 1230 114 l 2
 1172 52 1218 0 1266 0 c 2
 1710 0 l 2
 1732 0 1756 16 1762 36 c 2
 1784 136 l 2
 1792 164 1778 178 1750 178 c 2
 1384 178 l 1
EndSplineSet
Fore
SplineSet
266 -54 m 2,0,1
 74 -52 l 2,2,3
 53 -51 53 -51 43 -30 c 1,4,5
 31 -1 31 -1 52 20 c 2,6,-1
 1508 1482 l 2,7,8
 1553 1527 1553 1527 1604 1528 c 1,9,-1
 1798 1528 l 2,10,11
 1819 1527 1819 1527 1828 1506 c 1,12,13
 1839 1477 1839 1477 1818 1456 c 2,14,-1
 350 -18 l 2,15,16
 339 -29 339 -29 329 -37 c 0,17,18
 306 -54 306 -54 266 -54 c 2,0,1
1535 178 m 1,19,-1
 1750 178 l 1,20,21
 1791 176 1791 176 1784 136 c 1,22,-1
 1762 36 l 2,23,24
 1760 31 1760 31 1757 25 c 0,25,26
 1740 0 1740 0 1710 0 c 2,27,-1
 1266 0 l 2,28,29
 1232 1 1232 1 1213 26 c 0,30,31
 1185 65 1185 65 1230 114 c 2,32,-1
 1622 526 l 2,33,34
 1629 534 1629 534 1637 543 c 0,35,36
 1697 615 1697 615 1704 679 c 0,37,38
 1710 742 1710 742 1650 742 c 0,39,40
 1635 742 1635 742 1620 730 c 0,41,42
 1578 698 1578 698 1578 628 c 0,43,44
 1578 627 1578 627 1577 624 c 0,45,46
 1569 598 1569 598 1538 594 c 2,47,-1
 1382 576 l 2,48,49
 1376 575 1376 575 1370 576 c 0,50,51
 1348 578 1348 578 1348 610 c 0,52,53
 1349 722 1349 722 1439 804 c 0,54,55
 1538 894 1538 894 1686 894 c 0,56,57
 1773 894 1773 894 1833 855 c 0,58,59
 1919 800 1919 800 1919 693 c 0,60,61
 1920 565 1920 565 1796 438 c 1,62,-1
 1535 178 l 1,19,-1
683 1484 m 1,63,-1
 688 1488 l 1,64,65
 698 1489 698 1489 707 1483 c 0,66,67
 725 1470 725 1470 718 1448 c 2,68,-1
 474 632 l 1,69,70
 464 605 464 605 430 604 c 1,71,-1
 286 604 l 2,72,73
 277 604 277 604 269 608 c 0,74,75
 249 619 249 619 256 644 c 2,76,-1
 432 1229 l 1,77,-1
 404 1202 l 2,78,79
 374 1173 374 1173 342 1172 c 2,80,-1
 232 1172 l 2,81,82
 213 1173 213 1173 203 1187 c 1,83,84
 185 1215 185 1215 226 1250 c 1,85,-1
 442 1416 l 2,86,87
 446 1420 446 1420 456 1428 c 0,88,89
 461 1432 461 1432 464 1434 c 0,90,91
 530 1488 530 1488 560 1488 c 2,92,-1
 686 1488 l 1,93,-1
 683 1484 l 1,63,-1
EndSplineSet
EndChar

StartChar: onequarter
Encoding: 188 188 166
Width: 1998
VWidth: 0
Flags: HW
HStem: 0 21G<1504.09 1676.04> 192 156<1450 1522 1797 1868 1872.59 1873.5>
DStem2: 52 20 350 -18 0.705651 0.708559<88.1019 2172.23> 1188 324 1450 348 0.614146 0.789192<179.847 743.359> 1478 40 1704 28 0.246999 0.969016<3.96248 158.158 377.25 505.897>
LayerCount: 2
Back
SplineSet
454 1304 m 1
 256 644 l 2
 250 624 262 604 286 604 c 2
 430 604 l 2
 452 604 468 614 474 632 c 2
 718 1448 l 2
 724 1468 710 1490 688 1488 c 1
 454 1304 l 1
666 1460 m 1
 686 1488 l 1
 560 1488 l 2
 526 1488 484 1450 442 1416 c 2
 226 1250 l 1
 176 1208 202 1172 232 1172 c 2
 342 1172 l 2
 364 1172 388 1186 404 1202 c 2
 666 1460 l 1
266 -54 m 2
 298 -54 316 -52 350 -18 c 2
 1818 1456 l 2
 1842 1480 1832 1528 1798 1528 c 2
 1604 1528 l 2
 1572 1528 1542 1516 1508 1482 c 2
 52 20 l 2
 28 -4 40 -52 74 -52 c 2
 266 -54 l 2
1610 492 m 2
 1478 40 l 2
 1472 20 1482 0 1508 0 c 2
 1658 0 l 2
 1680 0 1698 10 1704 28 c 2
 1836 480 l 2
 1842 500 1830 520 1806 520 c 2
 1656 520 l 2
 1632 520 1616 510 1610 492 c 2
1818 192 m 2
 1848 192 1860 204 1870 228 c 2
 1902 310 l 2
 1910 336 1898 350 1868 348 c 1
 1330 348 l 1
 1374 254 l 1
 1842 830 l 2
 1860 854 1844 884 1818 884 c 2
 1656 884 l 2
 1630 884 1620 876 1602 856 c 2
 1188 324 l 2
 1140 264 1156 192 1254 192 c 2
 1818 192 l 2
EndSplineSet
Fore
SplineSet
1818 192 m 2,0,1
 1752 192 l 1,2,-1
 1704 28 l 1,3,4
 1694 1 1694 1 1658 0 c 1,5,-1
 1508 0 l 2,6,7
 1500 0 1500 0 1493 3 c 0,8,9
 1470 13 1470 13 1478 40 c 2,10,-1
 1522 192 l 1,11,-1
 1254 192 l 2,12,13
 1188 193 1188 193 1168 232 c 1,14,15
 1148 274 1148 274 1188 324 c 2,16,-1
 1602 856 l 2,17,18
 1605 860 1605 860 1609 863 c 0,19,20
 1629 884 1629 884 1656 884 c 2,21,-1
 1818 884 l 2,22,23
 1832 884 1832 884 1842 873 c 0,24,25
 1860 853 1860 853 1842 830 c 1,26,-1
 1450 348 l 1,27,-1
 1568 348 l 1,28,-1
 1610 492 l 1,29,30
 1620 519 1620 519 1656 520 c 1,31,-1
 1806 520 l 2,32,33
 1815 520 1815 520 1823 516 c 0,34,35
 1843 505 1843 505 1836 480 c 2,36,-1
 1797 348 l 1,37,-1
 1868 348 l 2,38,39
 1870 348 1870 348 1873 348 c 0,40,41
 1914 348 1914 348 1902 310 c 1,42,-1
 1870 228 l 2,43,44
 1869 225 1869 225 1867 221 c 0,45,46
 1853 192 1853 192 1818 192 c 2,0,1
266 -54 m 2,47,-1
 74 -52 l 2,48,49
 53 -51 53 -51 43 -30 c 1,50,51
 31 -1 31 -1 52 20 c 2,52,-1
 1508 1482 l 2,53,54
 1553 1527 1553 1527 1604 1528 c 1,55,-1
 1798 1528 l 2,56,57
 1819 1527 1819 1527 1828 1506 c 1,58,59
 1839 1477 1839 1477 1818 1456 c 2,60,-1
 350 -18 l 2,61,62
 339 -29 339 -29 329 -37 c 0,63,64
 306 -54 306 -54 266 -54 c 2,47,-1
683 1484 m 1,65,-1
 688 1488 l 1,66,67
 698 1489 698 1489 707 1483 c 0,68,69
 725 1470 725 1470 718 1448 c 2,70,-1
 474 632 l 1,71,72
 464 605 464 605 430 604 c 1,73,-1
 286 604 l 2,74,75
 277 604 277 604 269 608 c 0,76,77
 249 619 249 619 256 644 c 2,78,-1
 432 1229 l 1,79,-1
 404 1202 l 2,80,81
 374 1173 374 1173 342 1172 c 2,82,-1
 232 1172 l 2,83,84
 213 1173 213 1173 203 1187 c 1,85,86
 185 1215 185 1215 226 1250 c 1,87,-1
 442 1416 l 2,88,89
 446 1420 446 1420 456 1428 c 0,90,91
 461 1432 461 1432 464 1434 c 0,92,93
 530 1488 530 1488 560 1488 c 2,94,-1
 686 1488 l 1,95,-1
 683 1484 l 1,65,-1
EndSplineSet
EndChar

StartChar: onesuperior
Encoding: 185 185 167
Width: 448
VWidth: 0
Flags: HW
HStem: 1520 21G<592 594>
VStem: 109 515
LayerCount: 2
Back
SplineSet
360 1340 m 1
 162 680 l 2
 156 660 168 640 192 640 c 2
 336 640 l 2
 358 640 374 650 380 668 c 2
 624 1484 l 2
 630 1504 616 1526 594 1524 c 1
 360 1340 l 1
572 1496 m 1
 592 1524 l 1
 466 1524 l 2
 432 1524 390 1486 348 1452 c 2
 132 1286 l 1
 82 1244 108 1208 138 1208 c 2
 248 1208 l 2
 270 1208 294 1222 310 1238 c 2
 572 1496 l 1
EndSplineSet
Fore
SplineSet
589 1520 m 1,0,-1
 594 1524 l 1,1,2
 604 1525 604 1525 613 1519 c 0,3,4
 631 1506 631 1506 624 1484 c 2,5,-1
 380 668 l 1,6,7
 370 641 370 641 336 640 c 1,8,-1
 192 640 l 2,9,10
 183 640 183 640 175 644 c 0,11,12
 155 655 155 655 162 680 c 2,13,-1
 338 1265 l 1,14,-1
 310 1238 l 2,15,16
 280 1209 280 1209 248 1208 c 2,17,-1
 138 1208 l 2,18,19
 119 1209 119 1209 109 1223 c 1,20,21
 91 1251 91 1251 132 1286 c 1,22,-1
 348 1452 l 2,23,24
 352 1456 352 1456 362 1464 c 0,25,26
 367 1468 367 1468 370 1470 c 0,27,28
 436 1524 436 1524 466 1524 c 2,29,-1
 592 1524 l 1,30,-1
 589 1520 l 1,0,-1
EndSplineSet
EndChar

StartChar: ordfeminine
Encoding: 170 170 168
Width: 660
VWidth: 0
Flags: HW
VStem: 148 170<946.498 1086.06>
LayerCount: 2
Back
SplineSet
474 1262 m 1
 308 1260 148 1110 148 950 c 0
 148 890 178 840 242 812 c 0
 308 784 394 820 440 888 c 1
 508 900 l 1
 582 1028 672 1328 650 1434 c 0
 634 1510 554 1528 502 1540 c 0
 430 1556 272 1446 244 1388 c 0
 240 1380 244 1364 256 1358 c 1
 320 1298 l 2
 328 1292 340 1294 346 1300 c 0
 368 1324 418 1352 442 1358 c 1
 466 1350 478 1338 464 1276 c 0
 434 1126 416 1074 390 1006 c 0
 382 984 350 946 336 946 c 0
 322 946 318 954 318 982 c 0
 318 1058 376 1120 442 1120 c 1
 474 1262 l 1
392 888 m 1
 434 812 l 2
 440 802 468 798 480 800 c 0
 572 818 654 902 702 986 c 0
 708 996 706 1008 690 1016 c 2
 624 1048 l 2
 608 1056 598 1050 592 1036 c 0
 570 988 474 914 392 888 c 1
EndSplineSet
Fore
SplineSet
428 1119 m 1,0,1
 398 1115 398 1115 371 1095 c 0,2,3
 318 1053 318 1053 318 982 c 0,4,5
 318 972 318 972 319 965 c 0,6,7
 321 946 321 946 336 946 c 0,8,9
 342 946 342 946 352 955 c 0,10,11
 380 979 380 979 390 1006 c 0,12,13
 415 1070 415 1070 428 1119 c 1,0,1
548 981 m 1,14,15
 580 1010 580 1010 592 1036 c 0,16,17
 602 1057 602 1057 624 1048 c 1,18,-1
 690 1016 l 1,19,20
 711 1004 711 1004 702 986 c 1,21,22
 687 959 687 959 667 933 c 0,23,24
 581 820 581 820 480 800 c 0,25,26
 478 800 478 800 474 800 c 0,27,28
 442 800 442 800 434 812 c 2,29,-1
 411 854 l 1,30,31
 397 841 397 841 379 829 c 0,32,33
 307 784 307 784 242 812 c 1,34,35
 149 853 149 853 148 950 c 0,36,37
 148 958 148 958 149 968 c 0,38,39
 157 1079 157 1079 250 1167 c 0,40,41
 344 1255 344 1255 461 1262 c 1,42,-1
 464 1276 l 2,43,44
 471 1309 471 1309 469 1327 c 0,45,46
 466 1349 466 1349 442 1358 c 1,47,48
 436 1356 436 1356 427 1353 c 0,49,50
 375 1331 375 1331 346 1300 c 1,51,52
 334 1289 334 1289 320 1298 c 1,53,-1
 256 1358 l 2,54,55
 254 1359 254 1359 251 1362 c 0,56,57
 238 1375 238 1375 244 1388 c 0,58,59
 244 1389 244 1389 245 1390 c 0,60,61
 268 1433 268 1433 347 1486 c 0,62,63
 448 1553 448 1553 502 1540 c 2,64,-1
 503 1540 l 2,65,66
 528 1534 528 1534 547 1528 c 128,-1,67
 566 1522 566 1522 589.5 1511 c 128,-1,68
 613 1500 613 1500 628.5 1480.5 c 128,-1,69
 644 1461 644 1461 650 1434 c 0,70,71
 658 1392 658 1392 645 1310 c 0,72,73
 619 1149 619 1149 548 981 c 1,14,15
EndSplineSet
EndChar

StartChar: ordmasculine
Encoding: 186 186 169
Width: 748
VWidth: 0
Flags: HW
HStem: 828 158<413.61 532.903>
VStem: 210 202<986.939 1252.8> 622 188<1106.31 1370.12>
LayerCount: 2
Back
SplineSet
210 1082 m 0
 210 1006 228 938 286 884 c 0
 324 848 376 828 452 828 c 0
 680 828 810 1112 810 1278 c 0
 810 1350 802 1398 772 1448 c 0
 740 1502 670 1530 592 1530 c 0
 346 1530 210 1278 210 1082 c 0
456 986 m 0
 416 986 412 1014 412 1064 c 0
 412 1152 474 1372 568 1372 c 0
 604 1372 622 1350 622 1296 c 1
 616 1202 564 986 456 986 c 0
EndSplineSet
Fore
SplineSet
456 986 m 0,0,1
 524 987 524 987 573 1097 c 1,2,3
 615 1192 615 1192 622 1296 c 1,4,5
 620 1366 620 1366 568 1372 c 1,6,7
 505 1367 505 1367 451 1242 c 1,8,9
 412 1142 412 1142 412 1064 c 0,10,11
 412 1037 412 1037 415 1022 c 0,12,13
 421 986 421 986 456 986 c 0,0,1
210 1082 m 0,14,15
 210 1102 210 1102 212 1124 c 0,16,17
 226 1273 226 1273 315 1388 c 0,18,19
 425 1530 425 1530 592 1530 c 0,20,21
 609 1530 609 1530 625 1528 c 0,22,23
 731 1517 731 1517 772 1448 c 0,24,25
 774 1445 774 1445 776 1441 c 0,26,27
 810 1381 810 1381 810 1278 c 0,28,29
 810 1254 810 1254 806 1225 c 0,30,31
 787 1089 787 1089 706 976 c 0,32,33
 600 828 600 828 452 828 c 0,34,35
 346 828 346 828 286 884 c 0,36,37
 211 955 211 955 210 1082 c 0,14,15
EndSplineSet
EndChar

StartChar: oslash
Encoding: 248 248 170
Width: 752
VWidth: 0
Flags: HW
HStem: -16 21G<270.786 360.03> 864 234<417.466 514.231>
DStem2: -180 166 -36 16 0.739483 0.673175<-60.8034 132.914 624.971 727.368 1203.28 1419.14>
LayerCount: 2
Back
SplineSet
990 950 m 2
 1016 972 1002 996 976 1020 c 2
 898 1090 l 2
 870 1116 848 1106 826 1086 c 2
 634 910 l 1
 598 858 l 1
 220 512 l 1
 154 472 l 1
 -180 166 l 2
 -224 124 -208 104 -184 76 c 2
 -108 -6 l 2
 -88 -26 -58 -4 -36 16 c 2
 178 210 l 1
 206 262 l 1
 582 604 l 1
 664 652 l 1
 990 950 l 2
120 822 m 1
 50 674 0 504 0 350 c 0
 0 250 24 130 88 62 c 0
 154 -8 212 -16 286 -16 c 0
 408 -16 520 84 606 228 c 0
 692 372 750 558 750 726 c 0
 750 812 752 898 716 964 c 1
 660 1076 576 1098 490 1098 c 0
 304 1098 182 964 120 822 c 1
498 566 m 1
 490 528 458 414 410 324 c 0
 370 250 344 230 300 224 c 1
 250 234 246 270 246 350 c 0
 246 484 324 666 336 698 c 0
 374 794 412 864 472 864 c 0
 554 864 514 618 498 566 c 1
EndSplineSet
Fore
SplineSet
120 822 m 1,0,1
 146 882 146 882 183 932 c 0,2,3
 305 1098 305 1098 490 1098 c 0,4,5
 506 1098 506 1098 521 1097 c 0,6,7
 646 1088 646 1088 708 978 c 1,8,-1
 826 1086 l 2,9,10
 863 1119 863 1119 898 1090 c 1,11,-1
 976 1020 l 1,12,13
 1021 978 1021 978 990 950 c 2,14,-1
 750 731 l 1,15,-1
 750 726 l 2,16,17
 750 680 750 680 744 630 c 0,18,19
 718 416 718 416 606 228 c 0,20,21
 587 196 587 196 566 166 c 0,22,23
 434 -16 434 -16 286 -16 c 0,24,25
 256 -16 256 -16 235 -14 c 0,26,27
 152 -5 152 -5 88 62 c 0,28,29
 74 77 74 77 58 102 c 1,30,-1
 -36 16 l 2,31,32
 -84 -28 -84 -28 -108 -6 c 1,33,-1
 -184 76 l 2,34,35
 -196 90 -196 90 -202 99 c 0,36,37
 -219 129 -219 129 -180 166 c 1,38,-1
 0 331 l 1,39,-1
 0 350 l 2,40,41
 0 568 0 568 120 822 c 1,0,1
247 300 m 1,42,43
 248 285 248 285 251 273 c 0,44,45
 260 232 260 232 300 224 c 1,46,47
 318 227 318 227 333 233 c 0,48,49
 370 250 370 250 410 324 c 0,50,51
 453 405 453 405 485 516 c 1,52,-1
 247 300 l 1,42,43
520 787 m 1,53,54
 513 862 513 862 472 864 c 1,55,56
 452 864 452 864 433 853 c 0,57,58
 386 825 386 825 336 698 c 0,59,60
 306 622 306 622 291 577 c 1,61,-1
 520 787 l 1,53,54
EndSplineSet
EndChar

StartChar: p
Encoding: 112 112 172
Width: 834
VWidth: 0
Flags: HMW
HStem: -400 21G<-92.4709 91.8935> -8 209<278.983 405.692> 770 304<566 674> 1060 20G<250.107 466.529>
VStem: 582 269<663.81 883.396>
DStem2: -138 -336 128 -356 0.248107 0.968733<-9.56021 465.73 636.015 993.259 1329.65 1473.06>
LayerCount: 2
Back
SplineSet
484 1034 m 2
 492 1066 474 1080 440 1080 c 2
 274 1080 l 2
 244 1080 222 1066 214 1036 c 2
 -138 -336 l 2
 -146 -370 -132 -400 -86 -400 c 2
 68 -400 l 2
 98 -400 120 -386 128 -356 c 2
 484 1034 l 2
238 58 m 1
 272 198 l 1
 288 244 l 1
 334 400 402 550 460 650 c 0
 504 724 546 770 566 770 c 0
 584 770 586 760 576 710 c 0
 548 558 442 254 384 210 c 0
 354 188 260 214 240 232 c 1
 204 74 l 1
 244 34 320 -8 400 -8 c 0
 450 -8 510 6 560 44 c 0
 674 130 822 526 850 814 c 0
 858 892 826 956 774 1008 c 0
 748 1034 708 1074 674 1074 c 2
 660 1074 l 2
 612 1074 572 1038 494 944 c 2
 332 750 l 1
 238 58 l 1
EndSplineSet
Fore
SplineSet
68 -400 m 2,0,-1
 -86 -400 l 2,1,2
 -109 -400 -109 -400 -125 -388 c 0,3,4
 -147 -371 -147 -371 -138 -336 c 2,5,-1
 214 1036 l 2,6,7
 225 1078 225 1078 274 1080 c 1,8,-1
 440 1080 l 2,9,10
 496 1079 496 1079 484 1034 c 2,11,-1
 446 887 l 1,12,-1
 494 944 l 2,13,14
 535 993 535 993 556 1015 c 0,15,16
 614 1074 614 1074 660 1074 c 2,17,-1
 674 1074 l 1,18,19
 708 1072 708 1072 774 1008 c 1,20,21
 851 930 851 930 851 836 c 0,22,23
 851 824 851 824 849 806 c 0,24,25
 824 577 824 577 727 329 c 0,26,27
 639 105 639 105 560 44 c 0,28,29
 492 -7 492 -7 400 -8 c 1,30,31
 311 -8 311 -8 232 50 c 1,32,-1
 128 -356 l 2,33,34
 117 -400 117 -400 68 -400 c 2,0,-1
278 214 m 1,35,36
 282 213 282 213 286 211 c 0,37,38
 323 200 323 200 348 201 c 0,39,40
 371 201 371 201 384 210 c 0,41,42
 419 237 419 237 475 378 c 0,43,44
 551 570 551 570 576 710 c 0,45,46
 582 744 582 744 582 755 c 3,47,48
 582 770 582 770 566 770 c 3,49,50
 552 770 552 770 525 740 c 0,51,52
 492 704 492 704 460 650 c 1,53,54
 354 467 354 467 288 244 c 1,55,-1
 278 214 l 1,35,36
EndSplineSet
Colour: ff00
EndChar

StartChar: paragraph
Encoding: 182 182 173
Width: 1352
VWidth: 0
Flags: HW
HStem: -400 21G<291.529 459.893 727.529 895.893> 1240 208<901 1083 1337 1496>
DStem2: 246 -336 496 -356 0.246999 0.969016<-14.1337 951.23> 682 -336 932 -356 0.246999 0.969016<-14.1337 1626.22>
LayerCount: 2
Back
SplineSet
1388 1440 m 1
 1134 1442 l 1
 682 -336 l 2
 674 -370 688 -400 734 -400 c 2
 872 -400 l 2
 902 -400 924 -386 932 -356 c 2
 1388 1440 l 1
952 1440 m 1
 682 1380 l 1
 246 -336 l 2
 238 -370 252 -400 298 -400 c 2
 436 -400 l 2
 466 -400 488 -386 496 -356 c 2
 952 1440 l 1
816 1240 m 1
 1444 1240 l 2
 1480 1240 1494 1252 1500 1280 c 2
 1530 1400 l 2
 1538 1436 1528 1448 1496 1448 c 2
 812 1448 l 2
 444 1448 178 1234 178 928 c 0
 178 712 346 578 574 578 c 2
 648 578 l 1
 816 1240 l 1
EndSplineSet
Fore
SplineSet
901 1240 m 1,0,-1
 496 -356 l 1,1,2
 484 -399 484 -399 436 -400 c 1,3,-1
 298 -400 l 2,4,5
 285 -400 285 -400 274 -397 c 0,6,7
 235 -384 235 -384 246 -336 c 2,8,-1
 480 586 l 1,9,10
 377 605 377 605 303 662 c 0,11,12
 178 759 178 759 178 928 c 0,13,14
 178 963 178 963 183 997 c 0,15,16
 210 1192 210 1192 373 1316 c 0,17,18
 549 1448 549 1448 812 1448 c 2,19,-1
 1496 1448 l 2,20,21
 1504 1448 1504 1448 1512 1447 c 0,22,23
 1539 1441 1539 1441 1530 1400 c 1,24,-1
 1500 1280 l 2,25,26
 1499 1275 1499 1275 1497 1270 c 0,27,28
 1487 1240 1487 1240 1444 1240 c 2,29,-1
 1337 1240 l 1,30,-1
 932 -356 l 1,31,32
 920 -399 920 -399 872 -400 c 1,33,-1
 734 -400 l 2,34,35
 721 -400 721 -400 710 -397 c 0,36,37
 671 -384 671 -384 682 -336 c 2,38,-1
 1083 1240 l 1,39,-1
 901 1240 l 1,0,-1
EndSplineSet
EndChar

StartChar: parenleft
Encoding: 40 40 174
Width: 826
VWidth: 0
Flags: HW
VStem: 162 248<-1.98501 703.851>
LayerCount: 2
Back
SplineSet
162 360 m 0
 162 92 196 -124 300 -314 c 0
 312 -338 332 -348 356 -334 c 1
 524 -292 l 1
 548 -278 566 -254 550 -232 c 0
 460 -100 410 148 410 380 c 0
 410 824 676 1278 1004 1578 c 0
 1022 1594 1022 1638 992 1642 c 2
 852 1658 l 2
 830 1660 796 1658 758 1622 c 0
 450 1330 162 866 162 360 c 0
EndSplineSet
Fore
SplineSet
162 360 m 0,0,1
 162 696 162 696 327 1036 c 0,2,3
 487 1365 487 1365 758 1622 c 0,4,5
 800 1661 800 1661 852 1658 c 1,6,-1
 992 1642 l 1,7,8
 1009 1639 1009 1639 1015 1619 c 1,9,10
 1021 1593 1021 1593 1004 1578 c 0,11,12
 784 1376 784 1376 632 1119 c 0,13,14
 410 743 410 743 410 380 c 0,15,16
 410 276 410 276 423 174 c 0,17,18
 456 -95 456 -95 550 -232 c 0,19,20
 553 -237 553 -237 555 -243 c 0,21,22
 562 -270 562 -270 524 -292 c 1,23,-1
 356 -334 l 1,24,25
 321 -353 321 -353 300 -314 c 0,26,27
 277 -272 277 -272 257 -226 c 0,28,29
 162 1 162 1 162 360 c 0,0,1
EndSplineSet
EndChar

